# Exported from Wings 3D 0.99.00b
mtllib rad.mtl
o cube1_sep54
#28 vertices, 52 faces
v 1.50781064 -1.1102230e-16 0.49592088
v 0.91052986 -1.24026632 0.49592088
v -0.43154787 -1.54658680 0.49592088
v -1.50781064 -0.68829588 0.49592088
v -1.50781064 0.68829588 0.49592088
v -0.43154787 1.54658680 0.49592088
v 0.91052986 1.24026632 0.49592088
v 1.50781064 -1.1102230e-16 -0.49592088
v 0.91052986 -1.24026632 -0.49592088
v -0.43154787 -1.54658680 -0.49592088
v -1.50781064 -0.68829588 -0.49592088
v -1.50781064 0.68829588 -0.49592088
v -0.43154787 1.54658680 -0.49592088
v 0.91052986 1.24026632 -0.49592088
v 0.73051741 -1.01453785 0.71540127
v 1.21909309 0.0000000e+0 0.71540127
v 0.73051741 1.01453785 0.71540127
v -0.36730217 1.26510800 0.71540127
v -1.24768512 0.56302603 0.71540127
v -1.24768512 -0.56302603 0.71540127
v -0.36730217 -1.26510800 0.71540127
v 1.21909309 -2.2204460e-16 -0.71540127
v 0.73051741 -1.01453785 -0.71540127
v -0.36730217 -1.26510800 -0.71540127
v -1.24768512 -0.56302603 -0.71540127
v -1.24768512 0.56302603 -0.71540127
v -0.36730217 1.26510800 -0.71540127
v 0.73051741 1.01453785 -0.71540127
vt 9.6047267e-3 5.4965221e-2
vt 9.6047267e-3 5.4965221e-2
vt 9.6047267e-3 0.18074949
vt 9.8446882e-3 5.4626724e-2
vt 9.8446882e-3 5.4626724e-2
vt 9.8446882e-3 5.4626724e-2
vt 9.8446882e-3 5.4626724e-2
vt 1.0581149e-2 0.18211013
vt 1.0581149e-2 0.18211013
vt 1.0581149e-2 0.18211013
vt 1.0581149e-2 0.18211013
vt 1.0826281e-2 5.3269808e-2
vt 1.0826281e-2 0.18244490
vt 1.0826281e-2 0.18244490
vt 2.5286267e-2 1.1066576e-2
vt 2.5286267e-2 0.22464813
vt 2.5286267e-2 1.1066576e-2
vt 2.5693158e-2 1.0788068e-2
vt 2.5693158e-2 1.0788068e-2
vt 2.5693158e-2 1.0788068e-2
vt 2.5693158e-2 1.0788068e-2
vt 2.6935048e-2 0.22576275
vt 2.6935048e-2 0.22576275
vt 2.6935048e-2 0.22576275
vt 2.6935048e-2 0.22576275
vt 2.7346168e-2 0.22603498
vt 2.7346168e-2 0.22603498
vt 2.7346168e-2 9.6797281e-3
vt 0.17001576 9.6797281e-3
vt 0.17001576 9.6797281e-3
vt 0.17001576 0.22603498
vt 0.17042688 9.9519538e-3
vt 0.17042688 9.9519538e-3
vt 0.17042688 9.9519538e-3
vt 0.17166877 0.22492664
vt 0.17166877 0.22492664
vt 0.17166877 0.22492664
vt 0.17166877 0.22492664
vt 0.17207566 1.1066576e-2
vt 0.17207566 0.22464813
vt 0.17207566 0.22464813
vt 0.18653565 5.3269808e-2
vt 0.18653565 0.18244490
vt 0.18653565 5.3269808e-2
vt 0.18678078 5.3604579e-2
vt 0.18678078 5.3604579e-2
vt 0.18678078 5.3604579e-2
vt 0.18678078 5.3604579e-2
vt 0.18751724 0.18108798
vt 0.18751724 0.18108798
vt 0.18751724 0.18108798
vt 0.18751724 0.18108798
vt 0.18775720 0.18074949
vt 0.18775720 0.18074949
vt 0.18775720 5.4965221e-2
vt 0.19575325 9.8160240e-2
vt 0.19575325 9.8160240e-2
vt 0.23087554 0.17109243
vt 0.23087554 2.5228051e-2
vt 0.23087554 0.17109243
vt 0.23087554 2.5228051e-2
vt 0.30979461 0.18910519
vt 0.30979461 7.2152883e-3
vt 0.30979461 0.18910519
vt 0.37308280 5.7685929e-2
vt 0.37308280 0.13863455
vn 0.85208896 -7.3545277e-2 0.51820411
vn 0.55413717 -0.69486603 0.45835925
vn -0.19776927 -0.86648377 0.45835925
vn -0.80075141 -0.38562155 0.45835925
vn -0.80075141 0.38562155 0.45835925
vn -0.19776927 0.86648377 0.45835925
vn 0.53480591 0.74767262 0.39366012
vn 0.85208896 7.3545277e-2 -0.51820411
vn 0.53480591 -0.74767262 -0.39366012
vn -0.19776927 -0.86648377 -0.45835925
vn -0.80075141 -0.38562155 -0.45835925
vn -0.80075141 0.38562155 -0.45835925
vn -0.19776927 0.86648377 -0.45835925
vn 0.55413717 0.69486603 -0.45835925
vn 0.22334679 -0.28006802 0.93363704
vn 0.41756949 9.9739459e-17 0.90864499
vn 0.28125857 0.25600615 0.92485375
vn -7.9711548e-2 0.34923911 0.93363704
vn -0.28181462 0.13571477 0.94982210
vn -0.44782609 -0.21566168 0.86772221
vn -5.5306235e-2 -0.24231245 0.96862062
vn 0.41756949 -3.3768494e-16 -0.90864499
vn 0.28125857 -0.25600615 -0.92485375
vn -7.9711548e-2 -0.34923911 -0.93363704
vn -0.28181462 -0.13571477 -0.94982210
vn -0.44782609 0.21566168 -0.86772221
vn -5.5306235e-2 0.24231245 -0.96862062
vn 0.22334679 0.28006802 -0.93363704
g cube1_sep54_cube1_sep28_auv
usemtl cube1_sep28_auv
f 1/53/1 8/44/8 7/13/7
f 1/14/1 9/42/9 8/1/8
f 1/14/1 15/41/15 2/54/2
f 2/54/2 9/42/9 1/14/1
f 2/5/2 15/18/15 3/46/3
f 3/46/3 9/9/9 2/5/2
f 3/6/3 11/52/11 10/10/10
f 3/6/3 20/33/20 4/48/4
f 4/48/4 11/52/11 3/6/3
f 4/12/4 20/28/20 5/55/5
f 5/55/5 11/3/11 4/12/4
f 5/4/5 13/50/13 12/11/12
f 5/4/5 18/32/18 6/47/6
f 6/47/6 13/50/13 5/4/5
f 6/7/6 18/19/18 7/45/7
f 7/13/7 8/44/8 14/2/14
f 7/45/7 13/8/13 6/7/6
f 7/13/7 17/27/17 1/53/1
f 8/44/8 28/17/28 14/2/14
f 9/42/9 23/29/23 8/1/8
f 10/51/10 9/9/9 3/46/3
f 10/51/10 24/37/24 9/9/9
f 11/52/11 24/25/24 10/10/10
f 12/43/12 11/3/11 5/55/5
f 12/43/12 26/31/26 11/3/11
f 13/50/13 26/23/26 12/11/12
f 14/49/14 13/8/13 7/45/7
f 14/49/14 28/35/28 13/8/13
f 15/41/15 1/14/1 16/26/16
f 15/61/15 18/62/18 21/63/21
f 16/40/16 1/53/1 17/27/17
f 16/57/16 17/58/17 15/61/15
f 17/34/17 7/45/7 18/19/18
f 18/32/18 5/4/5 19/20/19
f 18/62/18 15/61/15 17/58/17
f 19/39/19 5/55/5 20/28/20
f 19/66/19 21/63/21 18/62/18
f 20/33/20 3/6/3 21/21/21
f 20/65/20 21/63/21 19/66/19
f 21/32/21 3/46/3 15/18/15
f 22/15/22 8/1/8 23/29/23
f 22/30/22 28/17/28 8/44/8
f 23/24/23 9/9/9 24/37/24
f 23/59/23 28/60/28 22/56/22
f 24/25/24 11/52/11 25/38/25
f 24/63/24 28/60/28 23/59/23
f 25/16/25 11/3/11 26/31/26
f 25/65/25 27/64/27 24/63/24
f 26/23/26 13/50/13 27/36/27
f 26/66/26 27/64/27 25/65/25
f 27/22/27 13/8/13 28/35/28
f 28/60/28 24/63/24 27/64/27
