# Exported from Wings 3D 0.99.00b
mtllib raketer1.mtl
o cube1_sep99
#10 vertices, 16 faces
v -0.70018174 1.58935441 -1.72092461
v -0.48699077 1.58935441 -2.01435681
v -0.14204053 1.58935441 -1.90227569
v -0.14204053 1.58935441 -1.53957354
v -0.48699077 1.58935441 -1.42749241
v -0.43016700 2.03958994 -1.60237800
v -0.29080710 2.03958994 -1.64765878
v -0.29080710 2.03958994 -1.79419045
v -0.43016700 2.03958994 -1.83947122
v -0.51629615 2.03958994 -1.72092461
vt 0.16011239 0.66157803
vt 0.16024707 0.66223726
vt 0.16032699 0.66153358
vt 0.16036530 0.66199668
vt 0.16076906 0.66187096
vt 0.16404165 0.72966510
vt 0.16404165 0.74019884
vt 0.17405983 0.72641000
vt 0.17405983 0.74345395
vt 0.17416142 0.72045550
vt 0.17423356 0.72112962
vt 0.17439790 0.72040583
vt 0.17448966 0.72085612
vt 0.17501569 0.72070093
vt 0.18025141 0.73493197
vt 0.19318534 0.72045016
vt 0.19325748 0.72114448
vt 0.19342182 0.72039342
vt 0.19351357 0.72082644
vt 0.19403950 0.72063171
vt 0.20720132 0.66156482
vt 0.20733599 0.66227405
vt 0.20741591 0.66150286
vt 0.20745418 0.66192320
vt 0.20785768 0.66169964
vn -0.97183839 -0.23564836 4.9862657e-15
vn -0.30031458 -0.23564836 -0.92427323
vn 0.70348248 -0.49384110 -0.51110994
vn 0.78623377 -0.23564836 0.57123227
vn -6.9832654e-2 -0.40773143 0.91042763
vn -0.27023054 0.85687823 0.43901612
vn 0.65222846 0.59164486 0.47387171
vn 0.40836325 0.86325695 -0.29669327
vn -0.21212591 0.72717337 -0.65285641
vn -0.68645385 0.72717337 4.9606018e-15
g cube1_sep99_cube1_sep28_auv
usemtl cube1_sep28_auv
f 1/24/1 3/21/3 5/23/5
f 1/24/1 9/13/9 2/4/2
f 2/25/2 3/21/3 1/24/1
f 2/25/2 9/20/9 3/5/3
f 3/21/3 7/10/7 4/1/4
f 4/22/4 5/23/5 3/21/3
f 4/22/4 7/17/7 5/2/5
f 5/23/5 6/18/6 1/3/1
f 6/11/6 5/2/5 7/17/7
f 7/10/7 3/21/3 8/16/8
f 7/7/7 8/6/8 6/9/6
f 8/14/8 3/5/3 9/20/9
f 9/13/9 1/24/1 10/19/10
f 9/8/9 6/9/6 8/6/8
f 10/12/10 1/3/1 6/18/6
f 10/15/10 6/9/6 9/8/9
o cube1_sep58
#10 vertices, 16 faces
v -0.64896529 -1.47108720 -1.72092461
v -0.47116401 -1.47108720 -1.96564707
v -0.18347552 -1.47108720 -1.87217141
v -0.18347552 -1.47108720 -1.56967782
v -0.47116401 -1.47108720 -1.47620216
v -0.70018174 -0.93426031 -1.72092461
v -0.48699077 -0.93426031 -2.01435681
v -0.14204053 -0.93426031 -1.90227569
v -0.14204053 -0.93426031 -1.53957354
v -0.48699077 -0.93426031 -1.42749241
vt 9.8782470e-2 0.93008362
vt 9.8782470e-2 0.97848886
vt 0.14481858 0.91512558
vt 0.14481858 0.99344690
vt 0.15957736 0.33432342
vt 0.15985420 0.33444737
vt 0.16002048 0.33402834
vt 0.16011331 0.33398395
vt 0.16050303 0.33468765
vt 0.16323267 0.26475638
vt 0.16365404 0.26488808
vt 0.16390935 0.26447396
vt 0.16397631 0.26442813
vt 0.16446576 0.26513744
vt 0.17327047 0.95428624
vt 0.20250458 0.26461350
vt 0.20292617 0.26482680
vt 0.20318152 0.26446294
vt 0.20324848 0.26440251
vt 0.20373792 0.26516813
vt 0.20666598 0.33415210
vt 0.20694307 0.33437390
vt 0.20710942 0.33401512
vt 0.20720223 0.33395323
vt 0.20759195 0.33472445
vn -0.72384842 -0.66731746 0.17530222
vn -0.28638450 -0.37565466 -0.88140087
vn 0.36841638 -0.89029324 -0.26767017
vn 0.74976436 -0.37565466 0.54473570
vn -0.18524859 -0.80039197 0.57013653
vn -0.92860668 0.29515043 -0.22489075
vn -0.20333979 0.75299924 -0.62581553
vn 0.71645925 0.46446336 -0.52053812
vn 0.71645925 0.46446336 0.52053812
vn -0.23726863 0.64066873 0.73023776
g cube1_sep58_cube1_sep28_auv
usemtl cube1_sep28_auv
f 11/40/11 13/27/13 15/28/15
f 11/42/11 16/47/16 12/36/12
f 11/38/11 20/49/20 16/33/16
f 12/29/12 13/27/13 11/40/11
f 12/36/12 16/47/16 17/31/17
f 12/41/12 18/30/18 13/35/13
f 13/43/13 18/48/18 14/37/14
f 14/26/14 15/28/15 13/27/13
f 14/37/14 18/48/18 19/32/19
f 14/45/14 20/34/20 15/39/15
f 15/44/15 20/49/20 11/38/11
f 17/46/17 18/30/18 12/41/12
f 17/31/17 20/34/20 18/30/18
f 19/32/19 18/30/18 20/34/20
f 19/50/19 20/34/20 14/45/14
f 20/34/20 17/31/17 16/33/16
