# Exported from Wings 3D 0.99.00b
mtllib raketer2.mtl
o cube1_sep93
#20 vertices, 32 faces
v 0.70954320 1.58935441 -1.72092461
v 0.49635223 1.58935441 -2.01435681
v 0.15140199 1.58935441 -1.90227569
v 0.15140199 1.58935441 -1.53957354
v 0.49635223 1.58935441 -1.42749241
v 0.43952846 2.03958994 -1.60237800
v 0.30016856 2.03958994 -1.64765878
v 0.30016856 2.03958994 -1.79419045
v 0.43952846 2.03958994 -1.83947122
v 0.52565761 2.03958994 -1.72092461
v 0.65832675 -1.47108720 -1.72092461
v 0.48052548 -1.47108720 -1.96564707
v 0.19283698 -1.47108720 -1.87217141
v 0.19283698 -1.47108720 -1.56967782
v 0.48052548 -1.47108720 -1.47620216
v 0.70954320 -0.93426031 -1.72092461
v 0.49635223 -0.93426031 -2.01435681
v 0.15140199 -0.93426031 -1.90227569
v 0.15140199 -0.93426031 -1.53957354
v 0.49635223 -0.93426031 -1.42749241
vt 9.8782470e-2 0.93008362
vt 9.8782470e-2 0.97848886
vt 0.14481858 0.91512558
vt 0.14481858 0.99344690
vt 0.15957736 0.33432342
vt 0.15985420 0.33444737
vt 0.16002048 0.33402834
vt 0.16011239 0.66157803
vt 0.16011331 0.33398395
vt 0.16024707 0.66223726
vt 0.16032699 0.66153358
vt 0.16036530 0.66199668
vt 0.16050303 0.33468765
vt 0.16076906 0.66187096
vt 0.16323267 0.26475638
vt 0.16365404 0.26488808
vt 0.16390935 0.26447396
vt 0.16397631 0.26442813
vt 0.16404165 0.72966510
vt 0.16404165 0.74019884
vt 0.16446576 0.26513744
vt 0.17327047 0.95428624
vt 0.17405983 0.72641000
vt 0.17405983 0.74345395
vt 0.17416142 0.72045550
vt 0.17423356 0.72112962
vt 0.17439790 0.72040583
vt 0.17448966 0.72085612
vt 0.17501569 0.72070093
vt 0.18025141 0.73493197
vt 0.19318534 0.72045016
vt 0.19325748 0.72114448
vt 0.19342182 0.72039342
vt 0.19351357 0.72082644
vt 0.19403950 0.72063171
vt 0.20250458 0.26461350
vt 0.20292617 0.26482680
vt 0.20318152 0.26446294
vt 0.20324848 0.26440251
vt 0.20373792 0.26516813
vt 0.20666598 0.33415210
vt 0.20694307 0.33437390
vt 0.20710942 0.33401512
vt 0.20720132 0.66156482
vt 0.20720223 0.33395323
vt 0.20733599 0.66227405
vt 0.20741591 0.66150286
vt 0.20745418 0.66192320
vt 0.20759195 0.33472445
vt 0.20785768 0.66169964
vn 0.99657550 8.2687854e-2 5.1131858e-15
vn 0.16796443 -0.83938048 -0.51694135
vn -0.80624651 8.2687854e-2 -0.58577238
vn -0.59163174 -0.40773143 0.69550482
vn 0.23044815 -0.66623049 0.70924649
vn 0.21212591 0.72717337 0.65285641
vn -0.71545339 0.63347154 0.29468671
vn -0.31551091 0.92081785 -0.22923209
vn 0.24912910 0.59164486 -0.76674054
vn 0.50476474 0.86325695 3.6476405e-15
vn 0.81335152 -0.58177256 2.6308043e-15
vn 0.21577083 -0.71585490 -0.66407433
vn -0.65801520 -0.58177256 -0.47807603
vn -0.65801520 -0.58177256 0.47807603
vn 0.39040378 -0.66731746 0.63424939
vn 0.88559234 0.46446336 2.6816305e-15
vn 0.27366308 0.46446336 -0.84224836
vn -0.62117734 0.64066873 -0.45131175
vn -0.71645925 0.46446336 0.52053812
vn 6.2343073e-2 0.57921989 0.81278390
g cube1_sep93_cube1_sep28_auv
usemtl cube1_sep28_auv
f 1/48/1 5/47/5 2/50/2
f 1/11/1 6/33/6 5/47/5
f 2/12/2 9/28/9 1/48/1
f 3/44/3 2/50/2 4/46/4
f 3/14/3 9/35/9 2/50/2
f 4/46/4 2/50/2 5/47/5
f 4/8/4 7/25/7 3/44/3
f 5/10/5 6/26/6 4/46/4
f 6/33/6 1/11/1 10/27/10
f 6/24/6 8/19/8 7/20/7
f 7/32/7 4/46/4 6/26/6
f 8/31/8 3/44/3 7/25/7
f 8/19/8 10/30/10 9/23/9
f 9/35/9 3/14/3 8/29/8
f 10/34/10 1/48/1 9/28/9
f 10/30/10 8/19/8 6/24/6
f 11/22/11 15/3/15 12/4/12
f 11/18/11 16/9/16 15/39/15
f 12/4/12 14/1/14 13/2/13
f 12/16/12 16/42/16 11/37/11
f 12/36/12 18/5/18 17/41/17
f 13/15/13 18/5/18 12/36/12
f 14/1/14 12/4/12 15/3/15
f 14/17/14 18/43/18 13/38/13
f 14/40/14 20/13/20 19/49/19
f 15/39/15 16/9/16 20/45/20
f 15/21/15 20/13/20 14/40/14
f 16/9/16 18/5/18 20/13/20
f 17/6/17 16/42/16 12/16/12
f 17/6/17 18/5/18 16/9/16
f 19/7/19 18/43/18 14/17/14
f 20/13/20 18/5/18 19/7/19
