# Exported from Wings 3D 0.99.00b
mtllib raketel2.mtl
o cube1_sep98
#10 vertices, 16 faces
v 0.70954320 1.58935441 1.72092461
v 0.49635223 1.58935441 2.01435681
v 0.15140199 1.58935441 1.90227569
v 0.15140199 1.58935441 1.53957354
v 0.49635223 1.58935441 1.42749241
v 0.43952846 2.03958994 1.60237800
v 0.30016856 2.03958994 1.64765878
v 0.30016856 2.03958994 1.79419045
v 0.43952846 2.03958994 1.83947122
v 0.52565761 2.03958994 1.72092461
vt 0.16011239 0.66157803
vt 0.16024707 0.66223726
vt 0.16032699 0.66153358
vt 0.16036530 0.66199668
vt 0.16076906 0.66187096
vt 0.16404165 0.72966510
vt 0.16404165 0.74019884
vt 0.17405983 0.72641000
vt 0.17405983 0.74345395
vt 0.17416142 0.72045550
vt 0.17423356 0.72112962
vt 0.17439790 0.72040583
vt 0.17448966 0.72085612
vt 0.17501569 0.72070093
vt 0.18025141 0.73493197
vt 0.19318534 0.72045016
vt 0.19325748 0.72114448
vt 0.19342182 0.72039342
vt 0.19351357 0.72082644
vt 0.19403950 0.72063171
vt 0.20720132 0.66156482
vt 0.20733599 0.66227405
vt 0.20741591 0.66150286
vt 0.20745418 0.66192320
vt 0.20785768 0.66169964
vn 0.86955217 -0.49384110 -4.4928788e-15
vn 0.30031458 -0.23564836 0.92427323
vn -0.78623377 -0.23564836 0.57123227
vn -0.60332110 -0.66623049 -0.43833844
vn 7.6454993e-2 -2.4786603e-2 -0.99676490
vn 0.32899386 0.77851849 -0.53448293
vn -0.55535283 0.72717337 -0.40348745
vn -0.55535283 0.72717337 0.40348745
vn 0.18091347 0.81070976 0.55679439
vn 0.68645385 0.72717337 -4.9606018e-15
g cube1_sep98_cube1_sep28_auv
usemtl cube1_sep28_auv
f 1/24/1 4/22/4 5/23/5
f 1/24/1 9/13/9 2/4/2
f 2/25/2 3/21/3 1/24/1
f 2/25/2 9/20/9 3/5/3
f 3/21/3 7/10/7 4/1/4
f 4/22/4 1/24/1 3/21/3
f 4/22/4 7/17/7 5/2/5
f 5/23/5 6/18/6 1/3/1
f 6/11/6 5/2/5 7/17/7
f 7/10/7 3/21/3 8/16/8
f 7/7/7 9/8/9 6/9/6
f 8/14/8 3/5/3 9/20/9
f 8/6/8 9/8/9 7/7/7
f 9/13/9 1/24/1 10/19/10
f 10/12/10 1/3/1 6/18/6
f 10/15/10 6/9/6 9/8/9
o cube1_sep91
#10 vertices, 16 faces
v 0.65832675 -1.47108720 1.72092461
v 0.48052548 -1.47108720 1.96564707
v 0.19283698 -1.47108720 1.87217141
v 0.19283698 -1.47108720 1.56967782
v 0.48052548 -1.47108720 1.47620216
v 0.70954320 -0.93426031 1.72092461
v 0.49635223 -0.93426031 2.01435681
v 0.15140199 -0.93426031 1.90227569
v 0.15140199 -0.93426031 1.53957354
v 0.49635223 -0.93426031 1.42749241
vt 9.8782470e-2 0.93008362
vt 9.8782470e-2 0.97848886
vt 0.14481858 0.91512558
vt 0.14481858 0.99344690
vt 0.15957736 0.33432342
vt 0.15985420 0.33444737
vt 0.16002048 0.33402834
vt 0.16011331 0.33398395
vt 0.16050303 0.33468765
vt 0.16323267 0.26475638
vt 0.16365404 0.26488808
vt 0.16390935 0.26447396
vt 0.16397631 0.26442813
vt 0.16446576 0.26513744
vt 0.17327047 0.95428624
vt 0.20250458 0.26461350
vt 0.20292617 0.26482680
vt 0.20318152 0.26446294
vt 0.20324848 0.26440251
vt 0.20373792 0.26516813
vt 0.20666598 0.33415210
vt 0.20694307 0.33437390
vt 0.20710942 0.33401512
vt 0.20720223 0.33395323
vt 0.20759195 0.33472445
vn 0.59325735 -0.79208778 -0.14367557
vn 0.28638450 -0.37565466 0.88140087
vn -0.48498710 -0.80039197 0.35236375
vn -0.65801520 -0.58177256 -0.47807603
vn 0.25133944 -0.58177256 -0.77354326
vn 0.79226849 0.57921989 0.19187225
vn 0.20333979 0.75299924 0.62581553
vn -0.79101913 0.20975764 0.57470903
vn -0.39894027 0.86996284 -0.28984707
vn 0.30214242 0.20975764 -0.92989875
g cube1_sep91_cube1_sep28_auv
usemtl cube1_sep28_auv
f 11/40/11 14/26/14 15/28/15
f 11/42/11 16/47/16 12/36/12
f 11/38/11 20/49/20 16/33/16
f 12/29/12 13/27/13 11/40/11
f 12/36/12 16/47/16 17/31/17
f 12/41/12 18/30/18 13/35/13
f 13/43/13 18/48/18 14/37/14
f 14/26/14 11/40/11 13/27/13
f 14/37/14 18/48/18 19/32/19
f 14/45/14 20/34/20 15/39/15
f 15/44/15 20/49/20 11/38/11
f 16/33/16 19/32/19 17/31/17
f 17/46/17 18/30/18 12/41/12
f 18/30/18 17/31/17 19/32/19
f 19/50/19 20/34/20 14/45/14
f 20/34/20 19/32/19 16/33/16
