# Exported from Wings 3D 0.99.00b
mtllib rakete.mtl
o cube1_sep55
#35 vertices, 66 faces
v 3.06044161 0.28396134 -1.6549262e-15
v 3.06044161 7.0770370e-2 0.29343220
v 3.06044161 -0.27417987 0.18135107
v 3.06044161 -0.27417987 -0.18135107
v 3.06044161 7.0770370e-2 -0.29343220
v 0.0000000e+0 0.23274489 -1.6549262e-15
v 0.0000000e+0 5.4943614e-2 0.24472245
v 0.0000000e+0 -0.23274489 0.15124679
v 0.0000000e+0 -0.23274489 -0.15124679
v 0.0000000e+0 5.4943614e-2 -0.24472245
v 3.51067714 1.3946597e-2 -0.11854661
v 3.51067714 -0.12541330 -7.3265833e-2
v 3.51067714 -0.12541330 7.3265833e-2
v 3.51067714 1.3946597e-2 0.11854661
v 3.51067714 0.10007575 -1.6549262e-15
v 2.10237793 0.28396134 -1.6549262e-15
v 0.53682689 0.28396134 -1.6549262e-15
v 2.10237793 7.0770370e-2 0.29343220
v 0.53682689 7.0770370e-2 0.29343220
v 2.10237793 -0.27417987 0.18135107
v 0.53682689 -0.27417987 0.18135107
v 2.10237793 -0.27417987 -0.18135107
v 0.53682689 -0.27417987 -0.18135107
v 2.10237793 7.0770370e-2 -0.29343220
v 0.53682689 7.0770370e-2 -0.29343220
v 1.67969668 0.17704734 -1.6549262e-15
v 0.70544610 0.17704734 -1.6549262e-15
v 1.67969668 3.7732125e-2 0.19175094
v 0.70544610 3.7732125e-2 0.19175094
v 1.67969668 -0.18768462 0.11850860
v 0.70544610 -0.18768462 0.11850860
v 1.67969668 -0.18768462 -0.11850860
v 0.70544610 -0.18768462 -0.11850860
v 1.67969668 3.7732125e-2 -0.19175094
v 0.70544610 3.7732125e-2 -0.19175094
vt 9.8782470e-2 0.93008362
vt 9.8782470e-2 0.97848886
vt 0.14481858 0.91512558
vt 0.14481858 0.99344690
vt 0.15957736 0.33432342
vt 0.15985420 0.33444737
vt 0.16002048 0.33402834
vt 0.16007750 0.53722725
vt 0.16011239 0.66157803
vt 0.16011331 0.33398395
vt 0.16017127 0.53764604
vt 0.16024586 0.53718282
vt 0.16024707 0.66223726
vt 0.16031664 0.53752099
vt 0.16032699 0.66153358
vt 0.16034424 0.53788651
vt 0.16036530 0.66199668
vt 0.16050303 0.33468765
vt 0.16076906 0.66187096
vt 0.16323267 0.26475638
vt 0.16365404 0.26488808
vt 0.16390935 0.26447396
vt 0.16397631 0.26442813
vt 0.16404165 0.72966510
vt 0.16404165 0.74019884
vt 0.16446576 0.26513744
vt 0.16781659 0.35643725
vt 0.16804746 0.35657827
vt 0.16818542 0.35616970
vt 0.16822090 0.48262145
vt 0.16824477 0.48302987
vt 0.16827665 0.48288816
vt 0.16828647 0.35612227
vt 0.16836896 0.48257400
vt 0.16854563 0.48328939
vt 0.16864444 0.35683768
vt 0.17327047 0.95428624
vt 0.17405983 0.72641000
vt 0.17405983 0.74345395
vt 0.17416142 0.72045550
vt 0.17423356 0.72112962
vt 0.17439790 0.72040583
vt 0.17448966 0.72085612
vt 0.17501569 0.72070093
vt 0.18025141 0.73493197
vt 0.19318534 0.72045016
vt 0.19325748 0.72114448
vt 0.19342182 0.72039342
vt 0.19351357 0.72082644
vt 0.19403950 0.72063171
vt 0.19858788 0.35632529
vt 0.19881892 0.35653026
vt 0.19895691 0.35616107
vt 0.19899239 0.48261281
vt 0.19901623 0.48298185
vt 0.19904794 0.48277620
vt 0.19905796 0.35610220
vt 0.19914045 0.48255392
vt 0.19931712 0.48331343
vt 0.19941593 0.35686172
vt 0.20250458 0.26461350
vt 0.20292617 0.26482680
vt 0.20318152 0.26446294
vt 0.20324848 0.26440251
vt 0.20373792 0.26516813
vt 0.20666598 0.33415210
vt 0.20694307 0.33437390
vt 0.20710942 0.33401512
vt 0.20716643 0.53721403
vt 0.20720132 0.66156482
vt 0.20720223 0.33395323
vt 0.20726014 0.53757257
vt 0.20733479 0.53715210
vt 0.20733599 0.66227405
vt 0.20740527 0.53734967
vt 0.20741591 0.66150286
vt 0.20743316 0.53792330
vt 0.20745418 0.66192320
vt 0.20759195 0.33472445
vt 0.20785768 0.66169964
vn 0.22126722 0.96969088 0.10363599
vn 0.19509907 0.30307878 0.93278058
vn 0.19509907 -0.79347055 0.57649010
vn 0.19509907 -0.79347055 -0.57649010
vn 0.16665666 0.20917572 -0.96357204
vn -0.89029324 0.45538770 -1.4729621e-15
vn -0.37565466 0.28638450 0.88140087
vn -0.80039197 -0.48498710 0.35236375
vn -0.66731746 -0.68864573 -0.28364495
vn -0.37565466 0.28638450 -0.88140087
vn 0.77851849 0.32899386 -0.53448293
vn 0.72717337 -0.55535283 -0.40348745
vn 0.72717337 -0.55535283 0.40348745
vn 0.81070976 0.18091347 0.55679439
vn 0.72717337 0.68645385 -4.7125717e-15
vn -0.12076692 0.96479077 -0.23365384
vn 0.24124698 0.97046375 -2.9645252e-15
vn -0.12420493 0.30662415 0.94369209
vn 0.24124698 0.29988979 0.92296588
vn -0.12420493 -0.80275244 0.58323379
vn 0.24124698 -0.78512167 0.57042428
vn -0.12420493 -0.80275244 -0.58323379
vn 0.17208784 -0.70099303 -0.69209432
vn -0.12420493 0.30662415 -0.94369209
vn 0.30398470 0.16719465 -0.93789085
vn -0.10597583 0.98917823 0.10146704
vn 0.28605986 0.95821175 -4.9056334e-15
vn -0.12420493 0.30662415 0.94369209
vn 0.28605986 0.29610372 0.91131353
vn -0.12420493 -0.80275244 0.58323379
vn 0.28605986 -0.77520959 0.56322274
vn -0.12420493 -0.80275244 -0.58323379
vn 0.28605986 -0.77520959 -0.56322274
vn -0.14105806 0.20592307 -0.96834824
vn 0.27865516 0.50342879 -0.81786965
g cube1_sep55_cube1_sep28_auv
usemtl cube1_sep28_auv
f 1/15/1 11/48/11 5/76/5
f 1/78/1 18/11/18 2/17/2
f 2/17/2 14/43/14 1/78/1
f 3/19/3 14/50/14 2/80/2
f 3/19/3 18/75/18 20/14/20
f 3/70/3 22/8/22 4/9/4
f 4/9/4 12/40/12 3/70/3
f 4/74/4 22/77/22 5/13/5
f 5/13/5 12/47/12 4/74/4
f 5/76/5 16/12/16 1/15/1
f 5/13/5 22/77/22 24/16/24
f 6/37/6 8/2/8 7/4/7
f 6/23/6 17/10/17 10/64/10
f 7/21/7 17/67/17 6/62/6
f 7/61/7 21/5/21 19/66/19
f 8/2/8 6/37/6 9/1/9
f 8/20/8 21/5/21 7/61/7
f 9/22/9 21/68/21 8/63/8
f 10/3/10 9/1/9 6/37/6
f 10/64/10 17/10/17 25/71/25
f 10/26/10 23/79/23 9/65/9
f 11/48/11 1/15/1 15/42/15
f 11/39/11 14/38/14 12/25/12
f 12/47/12 5/13/5 11/41/11
f 12/25/12 14/38/14 13/24/13
f 13/46/13 3/70/3 12/40/12
f 14/50/14 3/19/3 13/44/13
f 14/38/14 11/39/11 15/45/15
f 15/49/15 1/78/1 14/43/14
f 16/72/16 18/11/18 1/78/1
f 16/12/16 34/58/34 26/34/26
f 17/67/17 29/28/29 27/52/27
f 17/10/17 35/57/35 25/71/25
f 18/75/18 3/19/3 2/80/2
f 18/11/18 26/55/26 28/31/28
f 19/6/19 17/67/17 7/21/7
f 19/6/19 29/28/29 17/67/17
f 20/14/20 18/75/18 30/32/30
f 20/69/20 22/8/22 3/70/3
f 21/5/21 29/51/29 19/66/19
f 21/68/21 33/29/33 31/53/31
f 22/8/22 30/54/30 32/30/32
f 23/7/23 21/68/21 9/22/9
f 23/7/23 33/29/33 21/68/21
f 24/73/24 16/12/16 5/76/5
f 24/16/24 22/77/22 34/35/34
f 25/18/25 23/79/23 10/26/10
f 25/18/25 33/60/33 23/79/23
f 26/55/26 18/11/18 16/72/16
f 26/34/26 35/57/35 27/33/27
f 27/52/27 29/28/29 26/55/26
f 27/33/27 35/57/35 17/10/17
f 28/31/28 26/55/26 29/28/29
f 28/56/28 30/32/30 18/75/18
f 29/51/29 30/32/30 28/56/28
f 30/54/30 22/8/22 20/69/20
f 30/32/30 29/51/29 31/27/31
f 31/27/31 29/51/29 21/5/21
f 31/53/31 33/29/33 30/54/30
f 32/30/32 30/54/30 33/29/33
f 32/59/32 34/35/34 22/77/22
f 33/60/33 34/35/34 32/59/32
f 34/58/34 16/12/16 24/73/24
f 34/35/34 33/60/33 35/36/35
f 35/57/35 26/34/26 34/58/34
f 35/36/35 33/60/33 25/18/25
