# Exported from Wings 3D 0.99.00b
mtllib triebwerk_o.mtl
o cube1_sep56
#15 vertices, 23 faces
v 2.85336369 2.03032687 -8.3977328e-2
v 2.85336369 1.83140337 0.18981739
v 2.85336369 1.50953837 8.5237111e-2
v 2.85336369 1.50953837 -0.25319177
v 2.85336369 1.83140337 -0.35777204
v 4.41830546 1.98599261 -8.3977328e-2
v 4.41830546 1.81770333 0.14765300
v 4.41830546 1.54540554 5.9178088e-2
v 4.41830546 1.54540554 -0.22713274
v 4.41830546 1.81770333 -0.31560766
v 4.04856655 1.90805644 -8.3977328e-2
v 4.04856655 1.79361972 7.3531295e-2
v 4.04856655 1.60845723 1.3368354e-2
v 4.04856655 1.60845723 -0.18132301
v 4.04856655 1.79361972 -0.24148595
vt 0.52196958 0.34263970
vt 0.52237532 0.31974642
vt 0.52237532 0.31974642
vt 0.52237532 0.31974642
vt 0.52237532 0.36553298
vt 0.52237532 0.36553298
vt 0.52237532 0.36553298
vt 0.52273170 0.29685948
vt 0.52273170 0.38841992
vt 0.59669249 0.25924048
vt 0.61572453 0.28582415
vt 0.61609384 0.23292513
vt 0.64688832 0.27593841
vt 0.64707252 0.24315659
vt 0.64707252 0.24315659
vt 0.64707252 0.27585078
vt 0.64707252 0.27585078
vt 0.64707252 0.24315659
vt 0.64707252 0.27585078
vt 0.64711657 0.24324502
vt 0.71005847 0.23546384
vt 0.71005847 0.28354353
vt 0.71005847 0.23546384
vt 0.71005847 0.23546384
vt 0.71005847 0.28354353
vt 0.71005847 0.28354353
vt 0.73377789 0.34263970
vt 0.73415429 0.32327198
vt 0.73415429 0.32327198
vt 0.73415429 0.32327198
vt 0.73415429 0.36200742
vt 0.73415429 0.36200742
vt 0.73415429 0.36200742
vt 0.73442265 0.30390964
vt 0.73442265 0.38136977
vn 2.7523280e-2 0.97153605 0.23528742
vn 2.8318293e-2 0.30889307 0.95067510
vn 2.8318293e-2 -0.80869254 0.58754952
vn 2.8318293e-2 -0.80869254 -0.58754952
vn 2.8318293e-2 0.30889307 -0.95067510
vn 0.60969680 -0.62816422 -0.48340409
vn 0.50349142 0.68556127 0.52583470
vn 0.99825466 -4.7777468e-2 3.4712362e-2
vn 0.99825466 -4.7777468e-2 -3.4712362e-2
vn 0.99825466 1.8249369e-2 -5.6165782e-2
vn 0.90219410 -0.43133027 -3.0023216e-15
vn 0.52143831 -0.44728672 -0.72666132
vn 0.64217716 0.62015704 -0.45057046
vn 0.82587509 0.45616675 0.33142454
vn 0.46432354 -0.27368574 0.84231809
g cube1_sep56_cube1_sep28_auv
usemtl cube1_sep28_auv
f 1/1/1 6/27/6 5/9/5
f 1/1/1 7/34/7 6/27/6
f 2/8/2 7/34/7 1/1/1
f 3/2/3 7/33/7 2/5/2
f 3/4/3 9/32/9 8/29/8
f 4/7/4 9/32/9 3/4/3
f 5/9/5 6/27/6 10/35/10
f 5/6/5 9/28/9 4/3/4
f 6/23/6 15/17/15 10/26/10
f 7/24/7 12/15/12 6/25/6
f 8/30/8 7/33/7 3/2/3
f 8/24/8 13/15/13 7/25/7
f 9/25/9 13/15/13 8/24/8
f 10/31/10 9/28/9 5/6/5
f 10/22/10 15/19/15 9/21/9
f 11/16/11 6/25/6 12/15/12
f 11/14/11 15/17/15 6/23/6
f 12/16/12 7/25/7 13/15/13
f 12/10/12 13/12/13 11/11/11
f 13/15/13 9/25/9 14/16/14
f 14/18/14 9/21/9 15/19/15
f 14/20/14 11/11/11 13/12/13
f 15/13/15 11/11/11 14/20/14
