# Exported from Wings 3D 1.2.rc3
mtllib bombe.mtl
o cylinder1
#72 vertices, 140 faces
v -0.34400000 0.34400000 0.0000000e+0
v -0.34400000 0.17200000 0.29791274
v -0.34400000 -0.17200000 0.29791274
v -0.34400000 -0.34400000 4.2127850e-17
v -0.34400000 -0.17200000 -0.29791274
v -0.34400000 0.17200000 -0.29791274
v 0.34400000 0.34400000 0.0000000e+0
v 0.34400000 0.17200000 0.29791274
v 0.34400000 -0.17200000 0.29791274
v 0.34400000 -0.34400000 4.2127850e-17
v 0.34400000 -0.17200000 -0.29791274
v 0.34400000 0.17200000 -0.29791274
v 0.85195199 0.20020800 -3.8672769e-18
v 0.85195199 0.10010400 0.17338521
v 0.85195199 -0.10010400 0.17338521
v 0.85195199 -0.20020800 2.0651132e-17
v 0.85195199 -0.10010400 -0.17338521
v 0.85195199 0.10010400 -0.17338521
v -0.85195199 0.10010400 0.17338521
v -0.85195199 0.20020800 -8.8891167e-33
v -0.85195199 0.10010400 -0.17338521
v -0.85195199 -0.10010400 -0.17338521
v -0.85195199 -0.20020800 2.4518409e-17
v -0.85195199 -0.10010400 0.17338521
v -0.11466667 0.34400000 0.0000000e+0
v 0.11466667 0.34400000 0.0000000e+0
v -0.11466667 0.17200000 0.29791274
v 0.11466667 0.17200000 0.29791274
v -0.11466667 -0.17200000 0.29791274
v 0.11466667 -0.17200000 0.29791274
v -0.11466667 -0.34400000 4.2127850e-17
v 0.11466667 -0.34400000 4.2127850e-17
v -0.11466667 -0.17200000 -0.29791274
v 0.11466667 -0.17200000 -0.29791274
v -0.11466667 0.17200000 -0.29791274
v 0.11466667 0.17200000 -0.29791274
v -0.35052246 0.43717438 7.9216143e-2
v -0.35052246 0.28719038 0.33899605
v -8.3137659e-2 0.28719038 0.33899605
v -8.3137659e-2 0.43717438 7.9216143e-2
v -0.92209566 0.30905619 7.7639070e-2
v -0.92209566 0.22176550 0.22883098
v -0.35052246 -0.14998400 -0.41821219
v -0.35052246 0.14998400 -0.41821219
v -0.92209566 -8.7290688e-2 -0.30647005
v -0.92209566 8.7290688e-2 -0.30647005
v -8.3137659e-2 0.14998400 -0.41821219
v -8.3137659e-2 -0.14998400 -0.41821219
v -0.35052246 -0.28719038 0.33899605
v -0.35052246 -0.43717438 7.9216143e-2
v -0.92209566 -0.22176550 0.22883098
v -0.92209566 -0.30905619 7.7639070e-2
v -8.3137659e-2 -0.43717438 7.9216143e-2
v -8.3137659e-2 -0.28719038 0.33899605
v 0.35052246 -0.14998400 -0.41821219
v 0.35052246 0.14998400 -0.41821219
v 0.92209566 8.7290688e-2 -0.30647005
v 0.92209566 -8.7290688e-2 -0.30647005
v 8.3137659e-2 -0.14998400 -0.41821219
v 8.3137659e-2 0.14998400 -0.41821219
v 0.35052246 -0.28719038 0.33899605
v 0.35052246 -0.43717438 7.9216143e-2
v 8.3137659e-2 -0.28719038 0.33899605
v 8.3137659e-2 -0.43717438 7.9216143e-2
v 0.92209566 -0.30905619 7.7639070e-2
v 0.92209566 -0.22176550 0.22883098
v 0.35052246 0.43717438 7.9216143e-2
v 0.35052246 0.28719038 0.33899605
v 8.3137659e-2 0.43717438 7.9216143e-2
v 8.3137659e-2 0.28719038 0.33899605
v 0.92209566 0.22176550 0.22883098
v 0.92209566 0.30905619 7.7639070e-2
vt 1.9321434e-2 0.57029540
vt 1.9321434e-2 0.57029540
vt 1.9321434e-2 0.85772768
vt 1.9321434e-2 0.57029540
vt 1.9321434e-2 0.57029540
vt 1.9321434e-2 0.85772768
vt 1.9321434e-2 0.57029540
vt 1.9321434e-2 0.85772768
vt 1.9321434e-2 0.57029540
vt 1.9321434e-2 0.85772768
vt 1.9321434e-2 0.85772768
vt 1.9688640e-2 2.0318726e-2
vt 1.9688640e-2 0.57069600
vt 1.9688640e-2 0.57069600
vt 1.9688640e-2 2.0318726e-2
vt 1.9688640e-2 2.0318726e-2
vt 1.9688640e-2 0.57069600
vt 1.9688640e-2 2.0318726e-2
vt 1.9688640e-2 0.57069600
vt 1.9688640e-2 2.0318726e-2
vt 5.4899118e-2 0.46031945
vt 5.4899118e-2 0.13069528
vt 5.4899118e-2 0.13069528
vt 5.4899118e-2 0.13069528
vt 5.4899118e-2 0.46031945
vt 5.4899118e-2 0.46031945
vt 5.4899118e-2 0.13069528
vt 5.4899118e-2 0.46031945
vt 5.4899118e-2 0.13069528
vt 5.4899118e-2 0.46031945
vt 0.27266972 0.13069528
vt 0.27266972 0.46031945
vt 0.27266972 0.13069528
vt 0.27266972 0.13069528
vt 0.27266972 0.46031945
vt 0.27266972 0.13069528
vt 0.27266972 0.13069528
vt 0.27266972 0.46031945
vt 0.27266972 0.13069528
vt 0.27266972 0.46031945
vt 0.27266972 0.46031945
vt 0.27359219 2.0318726e-2
vt 0.27359219 0.57069600
vt 0.27359219 0.57069600
vt 0.27359219 2.0318726e-2
vt 0.27359219 0.57069600
vt 0.27359219 2.0318726e-2
vt 0.27359219 2.0318726e-2
vt 0.27359219 0.57069600
vt 0.27359219 2.0318726e-2
vt 0.27359219 2.0318726e-2
vt 0.27359219 0.57069600
vt 0.27362050 0.57029540
vt 0.27362050 0.57029540
vt 0.27362050 0.85772768
vt 0.27362050 0.85772768
vt 0.27362050 0.57029540
vt 0.27362050 0.85772768
vt 0.27362050 0.57029540
vt 0.27362050 0.57029540
vt 0.74172543 0.82384331
vt 0.74172543 0.82384331
vt 0.74172543 0.82384331
vt 0.74172543 0.98753570
vt 0.74172543 0.82384331
vt 0.74172543 0.82384331
vt 0.74172543 0.98753570
vt 0.74172543 0.98753570
vt 0.74172543 0.98753570
vt 0.77098863 0.19958673
vt 0.77098863 0.39142800
vt 0.77098863 0.19958673
vt 0.77098863 0.19958673
vt 0.77098863 0.19958673
vt 0.77098863 0.39142800
vt 0.77098863 0.39142800
vt 0.77098863 0.39142800
vt 0.77098863 0.19958673
vt 0.77098863 0.39142800
vt 0.77098863 0.19958673
vt 0.77098863 0.39142800
vt 0.79027843 0.24768031
vt 0.79027843 0.24768031
vt 0.79027843 0.31252421
vt 0.79027843 0.31252421
vt 0.83027643 0.63036875
vt 0.83027643 0.63036875
vt 0.83027643 0.79765433
vt 0.83027643 0.63036875
vt 0.83027643 0.63036875
vt 0.83027643 0.63036875
vt 0.83027643 0.79765433
vt 0.83027643 0.79765433
vt 0.83027643 0.79765433
vt 0.83027643 0.63036875
vt 0.83027643 0.79765433
vt 0.83048185 8.3009488e-2
vt 0.83048185 8.3009488e-2
vt 0.83048185 0.50800524
vt 0.83048185 0.50800524
vt 0.83048185 8.3009488e-2
vt 0.83048185 0.50800524
vt 0.83048185 8.3009488e-2
vt 0.83048185 8.3009488e-2
vt 0.83048185 0.50800524
vt 0.83048185 0.50800524
vt 0.83970947 0.24292113
vt 0.83970947 0.24292113
vt 0.83970947 0.31728339
vt 0.83970947 0.31728339
vt 0.85947355 0.76867611
vt 0.85975675 0.47489593
vt 0.85975675 0.47489593
vt 0.85975675 0.47489593
vt 0.86007922 0.76903302
vt 0.86007922 0.76903302
vt 0.86007922 0.76903302
vt 0.86039760 0.47454029
vt 0.90410908 0.20573999
vt 0.90410908 0.20573999
vt 0.90410908 0.35446453
vt 0.90410908 0.35446453
vt 0.93294618 0.16531105
vt 0.93294618 0.16531105
vt 0.93294618 0.39489347
vt 0.93294618 0.39489347
vt 0.96850869 0.24292113
vt 0.96850869 0.24292113
vt 0.96850869 0.31728339
vt 0.96850869 0.31728339
vt 0.98135031 0.79064716
vt 0.98167819 0.45317419
vt 0.98167819 0.45317419
vt 0.98167819 0.45317419
vt 0.98204800 0.79048737
vt 0.98204800 0.79048737
vt 0.98204800 0.79048737
vt 0.98241001 0.45333544
vt 0.98726401 0.82384331
vt 0.98726401 0.82384331
vt 0.98726401 0.98753570
vt 0.98726401 0.82384331
vt 0.98726401 0.82384331
vt 0.98726401 0.98753570
vt 0.98726401 0.98753570
vt 0.98726401 0.98753570
vt 0.98910264 0.19773300
vt 0.98910264 0.19773300
vt 0.98910264 0.36247153
vt 0.98910264 0.36247153
vn -0.10629933 0.76188061 -0.63893536
vn -9.7548971e-2 -0.19089105 0.97675217
vn -0.10629933 0.17239395 0.97927564
vn -9.7548971e-2 -0.75044667 -0.65369259
vn -0.10629933 -0.93427456 -0.34034028
vn -9.7548971e-2 0.94133772 -0.32305959
vn 9.7548971e-2 0.75044667 -0.65369259
vn 0.10629933 -0.17239395 0.97927564
vn 9.7548971e-2 0.19089105 0.97675217
vn 0.10629933 -0.76188061 -0.63893536
vn 9.7548971e-2 -0.94133772 -0.32305959
vn 0.10629933 0.93427456 -0.34034028
vn 0.27898573 0.87279598 -0.40049237
vn -0.27898573 0.87279598 -0.40049237
vn 0.27898573 8.9561427e-2 0.95610968
vn -0.27898573 8.9561427e-2 0.95610968
vn 0.27898573 -8.9561427e-2 0.95610968
vn -0.27898573 -8.9561427e-2 0.95610968
vn 0.27898573 -0.87279598 -0.40049237
vn -0.27898573 -0.87279598 -0.40049237
vn 0.27898573 -0.78323456 -0.55561731
vn -0.27898573 -0.78323456 -0.55561731
vn 0.27898573 0.78323456 -0.55561731
vn -0.27898573 0.78323456 -0.55561731
vn 0.19762901 0.69813375 -0.68815117
vn 0.19762901 0.69813375 -0.68815117
vn 1.00000000 1.3846427e-16 0.0000000e+0
vn 1.00000000 1.3846427e-16 0.0000000e+0
vn 1.00000000 1.3846427e-16 0.0000000e+0
vn 0.88464680 -0.40379454 -0.23313088
vn 1.00000000 1.1837482e-16 0.0000000e+0
vn 0.19721541 -0.20633723 0.95840025
vn 0.19721541 -0.20633723 0.95840025
vn 0.88464680 -0.40379454 -0.23313088
vn 1.00000000 1.1837482e-16 0.0000000e+0
vn 0.19721541 -0.20633723 0.95840025
vn 0.19721541 -0.20633723 0.95840025
vn 0.88464680 -0.40379454 -0.23313088
vn 1.00000000 2.3674963e-16 0.0000000e+0
vn 0.19762901 0.24688952 0.94867715
vn 0.19762901 0.24688952 0.94867715
vn 0.88464680 0.40379454 -0.23313088
vn 1.00000000 7.8916544e-17 0.0000000e+0
vn 0.19721541 -0.72683035 -0.65789340
vn 0.19721541 -0.72683035 -0.65789340
vn 0.88464680 0.40379454 -0.23313088
vn 1.00000000 7.8916544e-17 0.0000000e+0
vn 1.00000000 7.8916544e-17 0.0000000e+0
vn 0.19721541 -0.72683035 -0.65789340
vn 0.19721541 -0.72683035 -0.65789340
vn 0.88464680 0.40379454 -0.23313088
vn 0.19762901 -0.94502327 -0.26052598
vn 0.19762901 -0.94502327 -0.26052598
vn 1.00000000 2.0769640e-16 0.0000000e+0
vn 1.00000000 2.0769640e-16 0.0000000e+0
vn 0.88464680 4.4277748e-16 0.46626177
vn 0.19721541 0.93316757 -0.30050684
vn 0.19721541 0.93316757 -0.30050684
vn 0.88464680 2.2138874e-16 0.46626177
vn 1.00000000 4.1539281e-16 0.0000000e+0
vn 0.19721541 0.93316757 -0.30050684
vn 0.19721541 0.93316757 -0.30050684
vn 0.88464680 2.2138874e-16 0.46626177
vn -0.19762901 -0.24688952 0.94867715
vn -1.00000000 -1.3147682e-31 0.0000000e+0
vn -1.00000000 -1.3147682e-31 0.0000000e+0
vn -1.00000000 -1.3147682e-31 0.0000000e+0
vn -0.88464680 -0.40379454 -0.23313088
vn -0.19762901 -0.24688952 0.94867715
vn -1.00000000 3.9978524e-16 0.0000000e+0
vn -0.19721541 0.72683035 -0.65789340
vn -0.19721541 0.72683035 -0.65789340
vn -0.88464680 -0.40379454 -0.23313088
vn -1.00000000 3.9978524e-16 0.0000000e+0
vn -0.88464680 -0.40379454 -0.23313088
vn -0.19721541 0.72683035 -0.65789340
vn -0.19721541 0.72683035 -0.65789340
vn -1.00000000 0.0000000e+0 0.0000000e+0
vn -0.19762901 0.94502327 -0.26052598
vn -0.88464680 4.4277748e-16 0.46626177
vn -0.19762901 0.94502327 -0.26052598
vn -1.00000000 -1.3147682e-31 0.0000000e+0
vn -0.19721541 -0.93316757 -0.30050684
vn -0.19721541 -0.93316757 -0.30050684
vn -0.88464680 2.2138874e-16 0.46626177
vn -1.00000000 -1.3147682e-31 0.0000000e+0
vn -1.00000000 -1.3147682e-31 0.0000000e+0
vn -0.88464680 2.2138874e-16 0.46626177
vn -0.19721541 -0.93316757 -0.30050684
vn -0.19721541 -0.93316757 -0.30050684
vn -0.19762901 -0.69813375 -0.68815117
vn -1.00000000 -3.9978524e-16 0.0000000e+0
vn -1.00000000 -3.9978524e-16 0.0000000e+0
vn -0.88464680 0.40379454 -0.23313088
vn -0.19762901 -0.69813375 -0.68815117
vn -0.19721541 0.20633723 0.95840025
vn -0.19721541 0.20633723 0.95840025
vn -0.88464680 0.40379454 -0.23313088
vn -1.00000000 0.0000000e+0 0.0000000e+0
vn -0.88464680 0.40379454 -0.23313088
vn -0.19721541 0.20633723 0.95840025
vn -0.19721541 0.20633723 0.95840025
vn 8.6512449e-17 0.86602540 0.50000000
vn -0.19186708 0.84993545 0.49071046
vn -7.3863532e-2 0.61597017 -0.78429901
vn -7.3863532e-2 0.61597017 -0.78429901
vn 8.6512449e-17 0.86602540 0.50000000
vn -0.19186708 0.84993545 0.49071046
vn -7.3863532e-2 0.61597017 -0.78429901
vn -7.3863532e-2 0.61597017 -0.78429901
vn -7.0362229e-2 -0.33862903 0.93828543
vn -7.0362229e-2 -0.33862903 0.93828543
vn 1.7302490e-16 0.86602540 0.50000000
vn -0.19186708 0.84993545 0.49071046
vn 8.6512449e-17 0.86602540 0.50000000
vn 0.70016909 -0.40207207 0.59000110
vn 0.70016909 -0.40207207 0.59000110
vn 0.70016909 -0.40207207 0.59000110
vn 8.6512449e-17 0.86602540 0.50000000
vn 0.70016909 -0.40207207 0.59000110
vn 0.0000000e+0 0.86602540 0.50000000
vn 0.70016909 0.30991991 -0.64320518
vn 0.70016909 0.30991991 -0.64320518
vn -0.19186708 0.84993545 0.49071046
vn -0.11565149 0.52632487 -0.84238166
vn -0.88464680 -0.40379454 -0.23313088
vn -0.19186708 0.84993545 0.49071046
vn -0.88464680 -0.40379454 -0.23313088
vn -0.14294497 -0.41011785 0.90076084
vn -0.19186708 0.84993545 0.49071046
vn -0.88464680 -0.40379454 -0.23313088
vn -0.14294497 -0.41011785 0.90076084
vn 0.0000000e+0 -5.5517073e-16 -1.00000000
vn -0.19186708 -4.9491171e-16 -0.98142092
vn -7.3863532e-2 -0.98720795 -0.14129631
vn -7.3863532e-2 -0.98720795 -0.14129631
vn 0.0000000e+0 -5.5517073e-16 -1.00000000
vn -0.19186708 -4.9491171e-16 -0.98142092
vn -7.3863532e-2 -0.98720795 -0.14129631
vn -7.3863532e-2 -0.98720795 -0.14129631
vn -7.0362229e-2 0.98189353 -0.17588137
vn -7.0362229e-2 0.98189353 -0.17588137
vn 0.0000000e+0 -5.5517073e-16 -1.00000000
vn -0.19186708 -4.4385721e-16 -0.98142092
vn -0.19186708 -5.4596622e-16 -0.98142092
vn -0.11565149 -0.99268635 -3.4619875e-2
vn -0.88464680 0.0000000e+0 0.46626177
vn -0.19186708 -4.9491171e-16 -0.98142092
vn -0.88464680 2.2138874e-16 0.46626177
vn -0.14294497 0.98514069 -9.5207944e-2
vn -0.19186708 -4.9491171e-16 -0.98142092
vn -0.88464680 2.2138874e-16 0.46626177
vn -0.14294497 0.98514069 -9.5207944e-2
vn 0.0000000e+0 -5.5517073e-16 -1.00000000
vn 0.70016909 0.71199198 5.3204076e-2
vn 0.70016909 0.71199198 5.3204076e-2
vn 0.70016909 0.71199198 5.3204076e-2
vn 0.0000000e+0 -5.5517073e-16 -1.00000000
vn 0.70016909 0.71199198 5.3204076e-2
vn 0.0000000e+0 -5.5517073e-16 -1.00000000
vn 0.70016909 -0.71199198 5.3204076e-2
vn 0.70016909 -0.71199198 5.3204076e-2
vn -1.7302490e-16 -0.86602540 0.50000000
vn -0.19186708 -0.84993545 0.49071046
vn -7.3863532e-2 0.37123778 0.92559532
vn -7.3863532e-2 0.37123778 0.92559532
vn -1.7302490e-16 -0.86602540 0.50000000
vn -0.19186708 -0.84993545 0.49071046
vn -7.3863532e-2 0.37123778 0.92559532
vn -7.3863532e-2 0.37123778 0.92559532
vn -7.0362229e-2 -0.64326450 -0.76240405
vn -7.0362229e-2 -0.64326450 -0.76240405
vn 0.0000000e+0 -0.86602540 0.50000000
vn -0.19186708 -0.84993545 0.49071046
vn -0.19186708 -0.84993545 0.49071046
vn -0.11565149 0.46636149 0.87700154
vn -0.88464680 0.40379454 -0.23313088
vn -0.19186708 -0.84993545 0.49071046
vn -0.88464680 0.40379454 -0.23313088
vn -0.14294497 -0.57502284 -0.80555289
vn -0.19186708 -0.84993545 0.49071046
vn -0.88464680 0.40379454 -0.23313088
vn -0.14294497 -0.57502284 -0.80555289
vn -1.7302490e-16 -0.86602540 0.50000000
vn 0.70016909 -0.30991991 -0.64320518
vn 0.70016909 -0.30991991 -0.64320518
vn 0.70016909 -0.30991991 -0.64320518
vn -1.7302490e-16 -0.86602540 0.50000000
vn 0.70016909 -0.30991991 -0.64320518
vn -3.4604980e-16 -0.86602540 0.50000000
vn 0.70016909 0.40207207 0.59000110
vn 0.70016909 0.40207207 0.59000110
vn -6.9209959e-16 -5.5517073e-16 -1.00000000
vn 7.0362229e-2 -0.98189353 -0.17588137
vn 0.19186708 -6.0273338e-16 -0.98142092
vn 7.0362229e-2 -0.98189353 -0.17588137
vn 0.19186708 -5.7434980e-16 -0.98142092
vn -3.4604980e-16 -5.5517073e-16 -1.00000000
vn 7.3863532e-2 0.98720795 -0.14129631
vn 7.3863532e-2 0.98720795 -0.14129631
vn -3.4604980e-16 -5.5517073e-16 -1.00000000
vn 7.3863532e-2 0.98720795 -0.14129631
vn 0.19186708 -5.7434980e-16 -0.98142092
vn 7.3863532e-2 0.98720795 -0.14129631
vn 0.19186708 -5.4596622e-16 -0.98142092
vn 0.11565149 0.99268635 -3.4619875e-2
vn 0.88464680 0.0000000e+0 0.46626177
vn 0.19186708 -5.7434980e-16 -0.98142092
vn 0.88464680 2.2138874e-16 0.46626177
vn 0.14294497 -0.98514069 -9.5207944e-2
vn 0.14294497 -0.98514069 -9.5207944e-2
vn 0.88464680 2.2138874e-16 0.46626177
vn 0.19186708 -5.7434980e-16 -0.98142092
vn -3.4604980e-16 -5.5517073e-16 -1.00000000
vn -0.70016909 -0.71199198 5.3204076e-2
vn -0.70016909 -0.71199198 5.3204076e-2
vn -0.70016909 -0.71199198 5.3204076e-2
vn -3.4604980e-16 -5.5517073e-16 -1.00000000
vn -0.70016909 -0.71199198 5.3204076e-2
vn 0.0000000e+0 -5.5517073e-16 -1.00000000
vn -0.70016909 0.71199198 5.3204076e-2
vn -0.70016909 0.71199198 5.3204076e-2
vn 7.0362229e-2 0.33862903 0.93828543
vn 0.19186708 -0.84993545 0.49071046
vn 0.0000000e+0 -0.86602540 0.50000000
vn 7.0362229e-2 0.33862903 0.93828543
vn 0.19186708 -0.84993545 0.49071046
vn 0.0000000e+0 -0.86602540 0.50000000
vn 7.3863532e-2 -0.61597017 -0.78429901
vn 7.3863532e-2 -0.61597017 -0.78429901
vn 0.19186708 -0.84993545 0.49071046
vn 7.3863532e-2 -0.61597017 -0.78429901
vn 7.3863532e-2 -0.61597017 -0.78429901
vn 0.0000000e+0 -0.86602540 0.50000000
vn 0.0000000e+0 -0.86602540 0.50000000
vn -0.70016909 0.40207207 0.59000110
vn -0.70016909 0.40207207 0.59000110
vn -0.70016909 0.40207207 0.59000110
vn 0.0000000e+0 -0.86602540 0.50000000
vn -0.70016909 0.40207207 0.59000110
vn 0.0000000e+0 -0.86602540 0.50000000
vn -0.70016909 -0.30991991 -0.64320518
vn -0.70016909 -0.30991991 -0.64320518
vn 0.19186708 -0.84993545 0.49071046
vn 0.11565149 -0.52632487 -0.84238166
vn 0.88464680 0.40379454 -0.23313088
vn 0.19186708 -0.84993545 0.49071046
vn 0.88464680 0.40379454 -0.23313088
vn 0.14294497 0.41011785 0.90076084
vn 0.14294497 0.41011785 0.90076084
vn 0.19186708 -0.84993545 0.49071046
vn 0.88464680 0.40379454 -0.23313088
vn 7.0362229e-2 0.64326450 -0.76240405
vn 1.7302490e-16 0.86602540 0.50000000
vn 0.19186708 0.84993545 0.49071046
vn 7.0362229e-2 0.64326450 -0.76240405
vn 0.19186708 0.84993545 0.49071046
vn 1.7302490e-16 0.86602540 0.50000000
vn 7.3863532e-2 -0.37123778 0.92559532
vn 7.3863532e-2 -0.37123778 0.92559532
vn 1.7302490e-16 0.86602540 0.50000000
vn 7.3863532e-2 -0.37123778 0.92559532
vn 7.3863532e-2 -0.37123778 0.92559532
vn 0.19186708 0.84993545 0.49071046
vn 1.7302490e-16 0.86602540 0.50000000
vn -0.70016909 0.30991991 -0.64320518
vn -0.70016909 0.30991991 -0.64320518
vn -0.70016909 0.30991991 -0.64320518
vn 1.7302490e-16 0.86602540 0.50000000
vn -0.70016909 0.30991991 -0.64320518
vn 1.7302490e-16 0.86602540 0.50000000
vn -0.70016909 -0.40207207 0.59000110
vn -0.70016909 -0.40207207 0.59000110
vn 0.19186708 0.84993545 0.49071046
vn 0.11565149 -0.46636149 0.87700154
vn 0.88464680 -0.40379454 -0.23313088
vn 0.19186708 0.84993545 0.49071046
vn 0.88464680 -0.40379454 -0.23313088
vn 0.14294497 0.57502284 -0.80555289
vn 0.88464680 -0.40379454 -0.23313088
vn 0.19186708 0.84993545 0.49071046
vn 0.14294497 0.57502284 -0.80555289
g cylinder1_cylinder1_auv
usemtl cylinder1_auv
s 1
f 15/127/42 66/147/252 16/119/51
f 16/119/46 66/147/248 65/123/246
f 17/108/56 58/83/212 18/109/63
f 18/109/59 58/83/209 57/85/207
f 23/120/94 52/124/182 24/128/100
f 24/128/98 52/124/179 51/148/177
f 37/56/108 42/95/130 38/59/114
f 41/96/124 42/95/127 37/56/104
f 43/57/138 46/88/151 44/58/144
f 45/87/145 46/88/148 43/57/134
f 50/55/173 53/11/188 49/54/167
f 54/5/190 49/54/163 53/11/184
f 55/53/193 59/4/218 56/56/201
f 60/6/220 56/56/198 59/4/214
f 61/60/225 63/9/239 62/56/234
f 64/6/241 62/56/228 63/9/235
f 68/53/264 72/92/281 67/56/255
f 71/86/274 72/92/277 68/53/257
s 2
f 13/122/30 72/126/280 14/129/38
f 14/129/34 72/126/278 71/149/276
f 19/130/68 42/150/131 20/121/75
f 20/121/73 42/150/128 41/125/126
f 21/110/80 46/84/152 22/107/88
f 22/107/85 46/84/149 45/82/147
f 38/59/113 39/2/119 37/56/107
f 40/3/121 37/56/103 39/2/115
f 44/58/143 47/8/158 43/57/137
f 48/7/160 43/57/133 47/8/154
f 49/54/168 52/93/181 50/55/174
f 51/89/175 52/93/178 49/54/164
f 56/56/203 58/90/213 55/53/195
f 57/94/205 58/90/208 56/56/197
f 62/56/231 66/91/251 61/60/224
f 65/88/244 66/91/247 62/56/227
f 67/56/254 69/10/269 68/53/261
f 70/1/271 68/53/258 69/10/265
s 3
f 14/129/35 16/119/48 13/122/28
f 15/127/39 16/119/43 14/129/31
f 17/108/54 13/122/27 16/119/47
f 18/109/60 13/122/29 17/108/55
f 20/121/74 22/107/86 19/130/66
f 21/110/78 22/107/82 20/121/70
f 23/120/93 19/130/67 22/107/87
f 24/128/99 19/130/65 23/120/92
s 4
f 1/33/1 20/72/76 37/45/109
f 1/33/1 25/29/13 6/41/6
f 2/38/2 24/74/101 3/36/3
f 2/38/2 29/27/17 27/28/15
f 2/38/2 39/17/116 38/49/111
f 2/38/2 42/100/132 19/77/69
f 3/36/3 24/74/102 49/47/169
f 3/36/3 29/27/17 2/38/2
f 4/34/4 22/75/89 5/35/5
f 4/34/4 33/21/21 31/23/19
f 4/34/4 52/103/183 23/73/95
f 4/34/4 53/12/185 50/42/172
f 5/35/5 22/75/90 43/44/139
f 5/35/5 33/21/21 4/34/4
f 6/41/6 20/72/77 1/33/1
f 6/41/6 25/29/13 35/30/23
f 6/41/6 46/99/153 21/76/81
f 6/41/6 47/14/155 44/46/142
f 7/31/7 18/79/62 12/40/12
f 7/31/7 36/26/24 26/24/14
f 7/31/7 69/18/268 67/50/253
f 7/31/7 72/101/279 13/70/26
f 8/38/8 28/28/16 9/37/9
f 8/38/8 68/49/263 28/28/16
f 9/37/9 14/81/37 8/38/8
f 9/37/9 28/28/16 30/22/18
f 9/37/9 63/16/240 61/48/226
f 9/37/9 66/104/249 15/80/41
f 10/39/10 32/24/20 11/32/11
f 10/39/10 62/51/233 32/24/20
f 11/32/11 16/78/50 10/39/10
f 11/32/11 32/24/20 34/25/22
f 11/32/11 58/102/210 17/71/53
f 11/32/11 59/13/219 55/43/196
f 12/40/12 36/26/24 7/31/7
f 12/40/12 56/52/204 36/26/24
f 13/70/25 18/79/57 7/31/7
f 14/81/32 9/37/9 15/80/40
f 14/81/36 68/49/262 8/38/8
f 16/78/44 11/32/11 17/71/52
f 16/78/49 62/51/232 10/39/10
f 18/79/61 56/52/202 12/40/12
f 19/77/64 24/74/96 2/38/2
f 20/72/71 6/41/6 21/76/79
f 22/75/83 4/34/4 23/73/91
f 25/66/13 28/145/16 26/68/14
f 25/29/13 37/45/105 40/20/123
f 25/133/13 39/115/120 27/137/15
f 26/146/14 36/64/24 25/140/13
f 26/24/14 69/18/266 7/31/7
f 27/66/15 29/143/17 28/68/16
f 27/28/15 39/17/118 2/38/2
f 28/145/16 25/66/13 27/143/15
f 28/28/16 68/49/259 70/17/273
f 28/135/16 69/114/270 26/132/14
f 29/144/17 32/65/20 30/142/18
f 29/27/17 49/47/166 54/15/192
f 29/136/17 53/114/189 31/132/19
f 30/145/18 28/68/16 29/143/17
f 30/22/18 63/16/236 9/37/9
f 31/145/19 33/69/21 32/143/20
f 31/23/19 53/12/187 4/34/4
f 32/65/20 29/144/17 31/67/19
f 32/24/20 62/51/229 64/18/243
f 32/134/20 63/116/238 30/135/18
f 33/141/21 36/61/24 34/139/22
f 33/21/21 43/44/136 48/13/162
f 33/138/21 47/111/157 35/131/23
f 34/63/22 32/143/20 33/69/21
f 34/25/22 59/13/215 11/32/11
f 35/62/23 25/140/13 36/64/24
f 35/30/23 47/14/159 6/41/6
f 36/61/24 33/141/21 35/64/23
f 36/26/24 56/52/200 60/19/222
f 36/131/24 59/118/217 34/138/22
f 37/45/110 25/29/13 1/33/1
f 38/49/112 42/100/129 2/38/2
f 40/112/122 39/115/117 25/133/13
f 41/97/125 37/45/106 20/72/72
f 43/44/140 33/21/21 5/35/5
f 44/46/141 46/99/150 6/41/6
f 45/105/146 43/44/135 22/75/84
f 48/118/161 47/111/156 33/138/21
f 49/47/170 29/27/17 3/36/3
f 50/42/171 52/103/180 4/34/4
f 51/98/176 49/47/165 24/74/97
f 54/116/191 53/114/186 29/136/17
f 55/43/194 58/102/211 11/32/11
f 57/102/206 56/52/199 18/79/58
f 60/111/221 59/118/216 36/131/24
f 61/48/223 66/104/250 9/37/9
f 64/113/242 63/116/237 32/134/20
f 65/101/245 62/51/230 16/78/45
f 67/50/256 72/101/282 7/31/7
f 70/117/272 69/114/267 28/135/16
f 71/106/275 68/49/260 14/81/33
