# Exported from Wings 3D 1.0.2
mtllib bruecke.mtl
o cube2_sep98
#12 vertices, 10 faces
v 19.21025841 16.94690185 28.52343527
v 19.21025841 16.60660691 28.52343527
v 19.21025841 16.60660691 30.25389599
v 19.21025841 16.94690185 30.25389599
v 4.73944678 16.60660691 30.25389599
v 4.73944678 16.94690185 30.25389599
v 4.73944678 16.94690185 28.52343527
v 4.73944678 16.60660691 28.52343527
v -9.73136486 16.94690185 28.52343527
v -9.73136486 16.60660691 28.52343527
v -9.73136486 16.60660691 30.25389599
v -9.73136486 16.94690185 30.25389599
vt 0.13352597 0.95078150
vt 0.13352597 0.95279818
vt 0.14378114 0.95078150
vt 0.14378114 0.95279818
vt 0.37257588 0.68331614
vt 0.37257588 0.43882313
vt 0.37257588 0.68331614
vt 0.37257588 0.43882313
vt 0.41175028 0.68339140
vt 0.41175028 0.68339140
vt 0.41175028 0.43889839
vt 0.41175028 0.43889839
vt 0.41181216 0.68331614
vt 0.41181216 0.43882313
vt 0.41181216 0.43882313
vt 0.41181216 0.68331614
vt 0.41946609 0.43889839
vt 0.41946609 0.43889839
vt 0.41946609 0.68339140
vt 0.41946609 0.68339140
vn 1.00000000 0.0000000e+0 0.0000000e+0
vn 0.0000000e+0 1.00000000 0.0000000e+0
vn 0.0000000e+0 0.0000000e+0 -1.00000000
vn 1.00000000 0.0000000e+0 0.0000000e+0
vn 0.0000000e+0 0.0000000e+0 -1.00000000
vn 0.0000000e+0 -1.00000000 0.0000000e+0
vn 1.00000000 0.0000000e+0 0.0000000e+0
vn 0.0000000e+0 0.0000000e+0 1.00000000
vn 0.0000000e+0 -1.00000000 0.0000000e+0
vn 1.00000000 0.0000000e+0 0.0000000e+0
vn 0.0000000e+0 0.0000000e+0 1.00000000
vn 0.0000000e+0 1.00000000 0.0000000e+0
vn 0.0000000e+0 0.0000000e+0 1.00000000
vn 0.0000000e+0 -1.00000000 0.0000000e+0
vn 0.0000000e+0 0.0000000e+0 1.00000000
vn 0.0000000e+0 -1.00000000 0.0000000e+0
vn 0.0000000e+0 0.0000000e+0 1.00000000
vn 0.0000000e+0 1.00000000 0.0000000e+0
vn 0.0000000e+0 0.0000000e+0 1.00000000
vn 0.0000000e+0 1.00000000 0.0000000e+0
vn 0.0000000e+0 1.00000000 0.0000000e+0
vn 0.0000000e+0 0.0000000e+0 -1.00000000
vn 0.0000000e+0 1.00000000 0.0000000e+0
vn 0.0000000e+0 0.0000000e+0 -1.00000000
vn 0.0000000e+0 0.0000000e+0 -1.00000000
vn 0.0000000e+0 -1.00000000 0.0000000e+0
vn 0.0000000e+0 0.0000000e+0 -1.00000000
vn 0.0000000e+0 -1.00000000 0.0000000e+0
vn -1.00000000 0.0000000e+0 0.0000000e+0
vn 0.0000000e+0 1.00000000 0.0000000e+0
vn 0.0000000e+0 0.0000000e+0 -1.00000000
vn -1.00000000 0.0000000e+0 0.0000000e+0
vn 0.0000000e+0 0.0000000e+0 -1.00000000
vn 0.0000000e+0 -1.00000000 0.0000000e+0
vn -1.00000000 0.0000000e+0 0.0000000e+0
vn 0.0000000e+0 0.0000000e+0 1.00000000
vn 0.0000000e+0 -1.00000000 0.0000000e+0
vn -1.00000000 0.0000000e+0 0.0000000e+0
vn 0.0000000e+0 0.0000000e+0 1.00000000
vn 0.0000000e+0 1.00000000 0.0000000e+0
g cube2_sep98_cube2_copy27_auv
usemtl cube2_copy27_auv
f 1/7/2 7/6/21 6/15/18 4/16/12
f 2/17/5 8/19/25 7/9/22 1/11/3
f 3/14/9 5/13/14 8/5/26 2/8/6
f 4/2/10 3/1/7 2/3/4 1/4/1
f 4/10/11 6/12/17 5/18/13 3/20/8
f 5/13/16 11/14/37 10/8/34 8/5/28
f 6/12/19 12/10/39 11/20/36 5/18/15
f 7/6/23 9/7/30 12/16/40 6/15/20
f 8/19/27 10/17/33 9/11/31 7/9/24
f 9/4/29 10/3/32 11/1/35 12/2/38
