# Exported from Wings 3D 1.0.2
mtllib geruest1.mtl
o cube2_copy105
#16 vertices, 20 faces
v -27.82225929 0.0000000e+0 0.32580573
v -27.82225929 37.61225558 0.32580573
v 12.18813956 37.61225558 0.32580573
v 12.18813956 0.0000000e+0 0.32580573
v -27.82225929 0.0000000e+0 -39.68459312
v -27.82225929 37.61225558 -39.68459312
v 12.18813956 37.61225558 -39.68459312
v 12.18813956 0.0000000e+0 -39.68459312
v 11.74802517 0.0000000e+0 -0.11430866
v -27.38214490 0.0000000e+0 -0.11430866
v -27.38214490 0.0000000e+0 -39.24447874
v 11.74802517 0.0000000e+0 -39.24447874
v 11.74802517 36.96991102 -0.11430866
v -27.38214490 36.96991102 -0.11430866
v -27.38214490 36.96991102 -39.24447874
v 11.74802517 36.96991102 -39.24447874
vt 0.58695057 0.22667883
vt 0.58695813 0.22649405
vt 0.58720855 8.0157766e-3
vt 0.58720855 8.0157766e-3
vt 0.58720855 8.5643268e-3
vt 0.58720855 0.22656074
vt 0.58720855 8.0157766e-3
vt 0.58720855 8.5643268e-3
vt 0.58720855 0.22656074
vt 0.58720855 0.22710929
vt 0.58720855 0.22710929
vt 0.58720855 8.0157766e-3
vt 0.58729454 7.4716389e-3
vt 0.58729454 7.6576729e-3
vt 0.78956089 8.0157766e-3
vt 0.78956089 8.0157766e-3
vt 0.78956089 8.5643268e-3
vt 0.78956089 8.5643268e-3
vt 0.78956089 0.22656074
vt 0.78956089 0.22710929
vt 0.78956089 0.22710929
vt 0.78978705 0.22621371
vt 0.78979020 0.22639218
vt 0.78984312 8.0501500e-3
vt 0.78984753 7.8729448e-3
vn 0.0000000e+0 0.0000000e+0 1.00000000
vn -1.00000000 0.0000000e+0 0.0000000e+0
vn 0.0000000e+0 0.0000000e+0 1.00000000
vn 0.0000000e+0 1.00000000 0.0000000e+0
vn -1.00000000 0.0000000e+0 0.0000000e+0
vn 0.0000000e+0 0.0000000e+0 1.00000000
vn 0.0000000e+0 1.00000000 0.0000000e+0
vn -1.00000000 0.0000000e+0 0.0000000e+0
vn 0.0000000e+0 0.0000000e+0 1.00000000
vn 1.00000000 0.0000000e+0 0.0000000e+0
vn 0.0000000e+0 1.00000000 0.0000000e+0
vn 0.0000000e+0 0.0000000e+0 1.00000000
vn 1.00000000 0.0000000e+0 0.0000000e+0
vn 0.0000000e+0 0.0000000e+0 1.00000000
vn 1.00000000 0.0000000e+0 0.0000000e+0
vn 0.0000000e+0 0.0000000e+0 -1.00000000
vn -1.00000000 0.0000000e+0 0.0000000e+0
vn 0.0000000e+0 0.0000000e+0 -1.00000000
vn -1.00000000 0.0000000e+0 0.0000000e+0
vn 0.0000000e+0 1.00000000 0.0000000e+0
vn -1.00000000 0.0000000e+0 0.0000000e+0
vn 0.0000000e+0 0.0000000e+0 -1.00000000
vn 1.00000000 0.0000000e+0 0.0000000e+0
vn 0.0000000e+0 1.00000000 0.0000000e+0
vn 0.0000000e+0 0.0000000e+0 -1.00000000
vn 1.00000000 0.0000000e+0 0.0000000e+0
vn 0.0000000e+0 0.0000000e+0 -1.00000000
vn 0.0000000e+0 1.00000000 0.0000000e+0
vn 1.00000000 0.0000000e+0 0.0000000e+0
vn 0.0000000e+0 0.0000000e+0 -1.00000000
vn -1.00000000 0.0000000e+0 0.0000000e+0
vn 0.0000000e+0 0.0000000e+0 -1.00000000
vn 0.0000000e+0 0.0000000e+0 -1.00000000
vn 1.00000000 0.0000000e+0 0.0000000e+0
vn 1.00000000 0.0000000e+0 0.0000000e+0
vn 0.0000000e+0 0.0000000e+0 -1.00000000
vn 1.00000000 0.0000000e+0 0.0000000e+0
vn 0.0000000e+0 0.0000000e+0 1.00000000
vn 0.0000000e+0 0.0000000e+0 1.00000000
vn -1.00000000 0.0000000e+0 0.0000000e+0
vn -1.00000000 0.0000000e+0 0.0000000e+0
vn 0.0000000e+0 0.0000000e+0 1.00000000
vn 0.0000000e+0 -1.00000000 0.0000000e+0
vn 0.0000000e+0 0.0000000e+0 -1.00000000
vn -1.00000000 0.0000000e+0 0.0000000e+0
vn -1.00000000 0.0000000e+0 0.0000000e+0
vn 0.0000000e+0 -1.00000000 0.0000000e+0
vn 0.0000000e+0 0.0000000e+0 -1.00000000
vn 0.0000000e+0 0.0000000e+0 -1.00000000
vn 1.00000000 0.0000000e+0 0.0000000e+0
vn 0.0000000e+0 -1.00000000 0.0000000e+0
vn 0.0000000e+0 -1.00000000 0.0000000e+0
vn 1.00000000 0.0000000e+0 0.0000000e+0
vn 0.0000000e+0 0.0000000e+0 1.00000000
vn 0.0000000e+0 -1.00000000 0.0000000e+0
vn 1.00000000 0.0000000e+0 0.0000000e+0
vn 0.0000000e+0 0.0000000e+0 1.00000000
vn 0.0000000e+0 -1.00000000 0.0000000e+0
vn 0.0000000e+0 0.0000000e+0 1.00000000
vn -1.00000000 0.0000000e+0 0.0000000e+0
g cube2_copy105_cube2_copy27_auv
usemtl cube2_copy27_auv
f 1/8/1 4/17/14 2/9/6
f 2/9/3 4/17/12 3/19/9
f 2/19/8 5/8/19 1/18/2
f 2/14/4 7/22/24 6/2/20
f 3/24/11 7/22/28 2/14/7
f 4/5/15 7/19/26 3/6/10
f 5/18/16 7/9/25 8/8/30
f 6/6/21 5/8/17 2/19/5
f 6/19/22 7/9/27 5/18/18
f 8/17/29 7/19/23 4/5/13
f 9/15/31 13/21/46 12/3/41
f 10/16/36 13/10/48 9/12/32
f 11/16/37 15/21/56 10/4/35
f 12/16/42 15/10/57 11/7/38
f 13/10/44 10/16/33 14/20/49
f 14/10/50 10/4/34 15/21/53
f 14/25/51 15/23/55 13/13/47
f 15/10/54 12/16/39 16/20/59
f 16/11/60 12/3/40 13/21/45
f 16/1/58 13/13/43 15/23/52
o cube2_sep95
#16 vertices, 20 faces
v -27.82225929 0.0000000e+0 39.87514451
v -27.82225929 37.61225558 39.87514451
v 12.18813956 37.61225558 39.87514451
v 12.18813956 0.0000000e+0 39.87514451
v -27.82225929 0.0000000e+0 -0.13525434
v -27.82225929 37.61225558 -0.13525434
v 12.18813956 37.61225558 -0.13525434
v 12.18813956 0.0000000e+0 -0.13525434
v 11.74802517 0.0000000e+0 39.43503012
v -27.38214490 0.0000000e+0 39.43503012
v -27.38214490 0.0000000e+0 0.30486005
v 11.74802517 0.0000000e+0 0.30486005
v 11.74802517 36.96991102 39.43503012
v -27.38214490 36.96991102 39.43503012
v -27.38214490 36.96991102 0.30486005
v 11.74802517 36.96991102 0.30486005
vt 0.58695057 0.22667883
vt 0.58695813 0.22649405
vt 0.58720855 8.0157766e-3
vt 0.58720855 8.0157766e-3
vt 0.58720855 8.5643268e-3
vt 0.58720855 0.22656074
vt 0.58720855 8.0157766e-3
vt 0.58720855 8.5643268e-3
vt 0.58720855 0.22656074
vt 0.58720855 0.22710929
vt 0.58720855 0.22710929
vt 0.58720855 8.0157766e-3
vt 0.58729454 7.4716389e-3
vt 0.58729454 7.6576729e-3
vt 0.78956089 8.0157766e-3
vt 0.78956089 8.0157766e-3
vt 0.78956089 8.5643268e-3
vt 0.78956089 8.5643268e-3
vt 0.78956089 0.22656074
vt 0.78956089 0.22710929
vt 0.78956089 0.22710929
vt 0.78978705 0.22621371
vt 0.78979020 0.22639218
vt 0.78984312 8.0501500e-3
vt 0.78984753 7.8729448e-3
vn 0.0000000e+0 0.0000000e+0 1.00000000
vn -1.00000000 0.0000000e+0 0.0000000e+0
vn 0.0000000e+0 0.0000000e+0 1.00000000
vn 0.0000000e+0 1.00000000 0.0000000e+0
vn -1.00000000 0.0000000e+0 0.0000000e+0
vn 0.0000000e+0 0.0000000e+0 1.00000000
vn 0.0000000e+0 1.00000000 0.0000000e+0
vn -1.00000000 0.0000000e+0 0.0000000e+0
vn 0.0000000e+0 0.0000000e+0 1.00000000
vn 1.00000000 0.0000000e+0 0.0000000e+0
vn 0.0000000e+0 1.00000000 0.0000000e+0
vn 0.0000000e+0 0.0000000e+0 1.00000000
vn 1.00000000 0.0000000e+0 0.0000000e+0
vn 0.0000000e+0 0.0000000e+0 1.00000000
vn 1.00000000 0.0000000e+0 0.0000000e+0
vn 0.0000000e+0 0.0000000e+0 -1.00000000
vn -1.00000000 0.0000000e+0 0.0000000e+0
vn 0.0000000e+0 0.0000000e+0 -1.00000000
vn -1.00000000 0.0000000e+0 0.0000000e+0
vn 0.0000000e+0 1.00000000 0.0000000e+0
vn -1.00000000 0.0000000e+0 0.0000000e+0
vn 0.0000000e+0 0.0000000e+0 -1.00000000
vn 1.00000000 0.0000000e+0 0.0000000e+0
vn 0.0000000e+0 1.00000000 0.0000000e+0
vn 0.0000000e+0 0.0000000e+0 -1.00000000
vn 1.00000000 0.0000000e+0 0.0000000e+0
vn 0.0000000e+0 0.0000000e+0 -1.00000000
vn 0.0000000e+0 1.00000000 0.0000000e+0
vn 1.00000000 0.0000000e+0 0.0000000e+0
vn 0.0000000e+0 0.0000000e+0 -1.00000000
vn -1.00000000 0.0000000e+0 0.0000000e+0
vn 0.0000000e+0 0.0000000e+0 -1.00000000
vn 0.0000000e+0 0.0000000e+0 -1.00000000
vn 1.00000000 0.0000000e+0 0.0000000e+0
vn 1.00000000 0.0000000e+0 0.0000000e+0
vn 0.0000000e+0 0.0000000e+0 -1.00000000
vn 1.00000000 0.0000000e+0 0.0000000e+0
vn 0.0000000e+0 0.0000000e+0 1.00000000
vn 0.0000000e+0 0.0000000e+0 1.00000000
vn -1.00000000 0.0000000e+0 0.0000000e+0
vn -1.00000000 0.0000000e+0 0.0000000e+0
vn 0.0000000e+0 0.0000000e+0 1.00000000
vn 0.0000000e+0 -1.00000000 0.0000000e+0
vn 0.0000000e+0 0.0000000e+0 -1.00000000
vn -1.00000000 0.0000000e+0 0.0000000e+0
vn -1.00000000 0.0000000e+0 0.0000000e+0
vn 0.0000000e+0 -1.00000000 0.0000000e+0
vn 0.0000000e+0 0.0000000e+0 -1.00000000
vn 0.0000000e+0 0.0000000e+0 -1.00000000
vn 1.00000000 0.0000000e+0 0.0000000e+0
vn 0.0000000e+0 -1.00000000 0.0000000e+0
vn 0.0000000e+0 -1.00000000 0.0000000e+0
vn 1.00000000 0.0000000e+0 0.0000000e+0
vn 0.0000000e+0 0.0000000e+0 1.00000000
vn 0.0000000e+0 -1.00000000 0.0000000e+0
vn 1.00000000 0.0000000e+0 0.0000000e+0
vn 0.0000000e+0 0.0000000e+0 1.00000000
vn 0.0000000e+0 -1.00000000 0.0000000e+0
vn 0.0000000e+0 0.0000000e+0 1.00000000
vn -1.00000000 0.0000000e+0 0.0000000e+0
g cube2_sep95_cube2_copy27_auv
usemtl cube2_copy27_auv
f 17/33/61 20/42/74 18/34/66
f 18/34/63 20/42/72 19/44/69
f 18/44/68 21/33/79 17/43/62
f 18/39/64 23/47/84 22/27/80
f 19/49/71 23/47/88 18/39/67
f 20/30/75 23/44/86 19/31/70
f 21/43/76 23/34/85 24/33/90
f 22/31/81 21/33/77 18/44/65
f 22/44/82 23/34/87 21/43/78
f 24/42/89 23/44/83 20/30/73
f 25/40/91 29/46/106 28/28/101
f 26/41/96 29/35/108 25/37/92
f 27/41/97 31/46/116 26/29/95
f 28/41/102 31/35/117 27/32/98
f 29/35/104 26/41/93 30/45/109
f 30/35/110 26/29/94 31/46/113
f 30/50/111 31/48/115 29/38/107
f 31/35/114 28/41/99 32/45/119
f 32/36/120 28/28/100 29/46/105
f 32/26/118 29/38/103 31/48/112
