# Exported from Wings 3D 1.0.2
mtllib radarturm2.mtl
o cube2_copy27
#46 vertices, 38 faces
v -0.97344000 0.66060351 0.51791866
v -0.97344000 -0.42847373 0.86926125
v -0.97344000 -1.09916377 -5.7941925e-2
v -0.97344000 -0.42459577 -0.98232760
v -0.97344000 0.66300022 -0.62642618
v 0.97344000 0.66060351 0.51791866
v 0.97344000 -0.42847373 0.86926125
v 0.97344000 -1.09916377 -5.7941925e-2
v 0.97344000 -0.42459577 -0.98232760
v 0.97344000 0.66300022 -0.62642618
v -0.97344000 0.96986873 -0.62578348
v 0.97344000 0.96986873 -0.62578348
v 0.97344000 0.96093571 3.63941408
v -0.97344000 0.96093571 3.63941408
v -0.97344000 0.65406720 3.63877138
v 0.97344000 0.65406720 3.63877138
v 6.14424846 3.11355468 3.19798541
v 6.14424846 2.80668618 3.19750081
v 6.14424846 2.81561920 -1.8458148e-2
v 6.14424846 3.12248770 -1.7973548e-2
v -6.14424846 3.12248770 -1.7973548e-2
v -6.14424846 2.81561920 -1.8458148e-2
v -6.14424846 2.80668618 3.19750081
v -6.14424846 3.11355468 3.19798541
v -3.55884423 1.65027473 3.41869975
v -3.55884423 1.34340623 3.41813609
v -3.55884423 1.35233925 -0.32244217
v -3.55884423 1.65920776 -0.32187851
v 3.55884423 1.65920776 -0.32187851
v 3.55884423 1.35233925 -0.32244217
v 3.55884423 1.34340623 3.41813609
v 3.55884423 1.65027473 3.41869975
v -0.23874147 -0.28804989 -0.98232760
v -0.23874147 -0.28804989 -0.37604731
v 0.23874147 -0.28804989 -0.98232760
v 0.23874147 -0.28804989 -0.37604731
v -0.23874147 4.95650128 -0.64294398
v -0.23874147 5.15786338 -0.37604731
v 0.23874147 5.15786338 -0.37604731
v 0.23874147 4.95650128 -0.64294398
v 0.23874147 4.51265337 -0.37604731
v -0.23874147 4.51265337 -0.37604731
v -0.23874147 4.51265337 0.27889457
v 0.23874147 4.51265337 0.27889457
v 0.23874147 5.15786338 0.27889457
v -0.23874147 5.15786338 0.27889457
vt 0.15070856 0.94881597
vt 0.15100694 0.91874282
vt 0.17846488 0.95189549
vt 0.17880522 0.91691647
vt 0.20216260 0.91250579
vt 0.20218052 0.91195207
vt 0.20219223 0.91250448
vt 0.20221034 0.91195054
vt 0.20346037 0.95496543
vt 0.20384542 0.91508058
vt 0.20694334 0.91001499
vt 0.20696034 0.90946598
vt 0.20696132 0.91001527
vt 0.20697846 0.90946607
vt 0.21159823 0.90891771
vt 0.21160338 0.90892005
vt 0.21161310 0.90838697
vt 0.21161835 0.90838923
vt 0.21483820 0.90898254
vt 0.21484344 0.90898537
vt 0.21485366 0.90849477
vt 0.21485900 0.90849767
vt 0.21878609 0.91016678
vt 0.21879511 0.91016570
vt 0.21880328 0.90970294
vt 0.21881221 0.90970161
vt 0.22166606 0.95514119
vt 0.22205111 0.91525634
vt 0.22258190 0.91250448
vt 0.22259978 0.91204520
vt 0.22260541 0.91250579
vt 0.22262322 0.91204624
vt 0.24671616 0.95255439
vt 0.24705120 0.91757533
vt 0.26027864 0.88569219
vt 0.26046768 0.86663443
vt 0.27452676 0.95001132
vt 0.27480904 0.91993801
vt 0.27627333 2.5163319e-2
vt 0.27627333 0.12483078
vt 0.27786819 0.88764415
vt 0.27808382 0.86547748
vt 0.28618636 2.5163319e-2
vt 0.28618636 0.12483078
vt 0.29370818 0.88959004
vt 0.29377363 0.88280865
vt 0.29395213 0.86431447
vt 0.30524537 0.88970140
vt 0.30531082 0.88292001
vt 0.30548932 0.86442583
vt 0.32111996 0.88806160
vt 0.32133223 0.86589489
vt 0.33874391 0.88644951
vt 0.33892275 0.86739165
vt 0.36655332 0.37406512
vt 0.36656059 0.37401976
vt 0.37067075 0.38676027
vt 0.37071681 0.38678831
vt 0.37736719 0.36617372
vt 0.37740743 0.36617372
vt 0.38405781 0.38678831
vt 0.38410387 0.38676027
vt 0.38821403 0.37401976
vt 0.38822131 0.37406512
vt 0.44049905 0.45552137
vt 0.44049905 0.46230308
vt 0.44049905 0.45213052
vt 0.44049905 0.45552137
vt 0.44049905 0.45891223
vt 0.44049905 0.46569393
vt 0.44049905 0.46230308
vt 0.45203677 0.45552137
vt 0.45203677 0.45213052
vt 0.45203677 0.45891223
vt 0.45203677 0.46230308
vt 0.45203677 0.46569393
vt 0.45203677 0.45552137
vt 0.45203677 0.46230308
vt 0.56797867 0.77003088
vt 0.56797867 0.84933998
vt 0.56797867 0.85438531
vt 0.56797867 0.86426880
vt 0.58064597 0.77003088
vt 0.58064597 0.84933998
vt 0.58064597 0.85438531
vt 0.58064597 0.86426880
vt 0.58859883 0.78260016
vt 0.58859883 0.78360658
vt 0.58860046 0.78256999
vt 0.58860046 0.78363676
vt 0.59322489 0.78201362
vt 0.59322489 0.78419312
vt 0.59322489 0.78199718
vt 0.59322489 0.78420956
vt 0.59483782 0.78199718
vt 0.59483782 0.78420956
vt 0.59483782 0.78201362
vt 0.59483782 0.78419312
vt 0.59946224 0.78256999
vt 0.59946224 0.78363676
vt 0.59946388 0.78260016
vt 0.59946388 0.78360658
vt 0.97626454 0.98705129
vt 0.97626454 0.99723803
vt 0.97626454 0.98705129
vt 0.97626454 0.99723803
vt 0.98660494 0.98705129
vt 0.98660494 0.99723803
vt 0.98660494 0.91125654
vt 0.98660494 0.98705129
vt 0.98660494 0.99723803
vt 0.98660494 0.91125654
vt 0.99081877 0.99405888
vt 0.99081877 0.99405888
vt 0.99617705 0.91125654
vt 0.99617705 0.91125654
vn -1.00000000 2.4638571e-17 0.0000000e+0
vn 0.0000000e+0 0.30702443 0.95170163
vn -0.12993085 -0.99152074 -2.1435120e-3
vn -0.12993085 -0.99152074 -2.1435120e-3
vn -1.00000000 2.4638571e-17 0.0000000e+0
vn 0.0000000e+0 -0.81024627 0.58608956
vn 0.0000000e+0 0.30702443 0.95170163
vn -1.00000000 2.4638571e-17 0.0000000e+0
vn 1.2458139e-17 -0.80778417 -0.58947836
vn 0.0000000e+0 -0.81024627 0.58608956
vn -1.00000000 2.4638571e-17 0.0000000e+0
vn 0.0000000e+0 0.31100820 -0.95040723
vn 1.2458139e-17 -0.80778417 -0.58947836
vn -1.00000000 2.4638571e-17 0.0000000e+0
vn 0.0000000e+0 0.31100820 -0.95040723
vn 0.0000000e+0 2.0943936e-3 -0.99999781
vn -0.11624395 1.9522635e-3 -0.99321877
vn -0.25765888 -0.96623354 -2.1562896e-3
vn 1.00000000 -4.9277143e-17 0.0000000e+0
vn 0.0000000e+0 0.30702443 0.95170163
vn 0.12993085 -0.99152074 -2.1435120e-3
vn 0.12993085 -0.99152074 -2.1435120e-3
vn 1.00000000 -4.9277143e-17 0.0000000e+0
vn 0.0000000e+0 -0.81024627 0.58608956
vn 0.0000000e+0 0.30702443 0.95170163
vn 1.00000000 -4.9277143e-17 0.0000000e+0
vn 1.2458139e-17 -0.80778417 -0.58947836
vn 0.0000000e+0 -0.81024627 0.58608956
vn 1.00000000 -4.9277143e-17 0.0000000e+0
vn 0.0000000e+0 0.31100820 -0.95040723
vn 1.2458139e-17 -0.80778417 -0.58947836
vn 1.00000000 -4.9277143e-17 0.0000000e+0
vn 0.0000000e+0 0.31100820 -0.95040723
vn 0.0000000e+0 2.0943936e-3 -0.99999781
vn 0.11624395 1.9522635e-3 -0.99321877
vn 0.25765888 -0.96623354 -2.1562896e-3
vn 0.0000000e+0 2.0943936e-3 -0.99999781
vn 0.12993082 0.99152074 2.1435120e-3
vn -0.11624395 1.9522635e-3 -0.99321877
vn 0.12993082 0.99152074 2.1435120e-3
vn 0.0000000e+0 2.0943936e-3 -0.99999781
vn -0.12993082 0.99152074 2.1435120e-3
vn 0.11624395 1.9522635e-3 -0.99321877
vn -0.12993082 0.99152074 2.1435120e-3
vn 0.0000000e+0 -2.0943936e-3 0.99999781
vn -0.12993082 0.99152074 2.1435120e-3
vn 8.5563062e-2 -1.9583806e-3 0.99633083
vn -0.12993082 0.99152074 2.1435120e-3
vn 0.0000000e+0 -2.0943936e-3 0.99999781
vn 0.12993082 0.99152074 2.1435120e-3
vn -8.5563062e-2 -1.9583806e-3 0.99633083
vn 0.12993082 0.99152074 2.1435120e-3
vn 0.0000000e+0 -2.0943936e-3 0.99999781
vn -0.12993085 -0.99152074 -2.1435120e-3
vn -8.5563062e-2 -1.9583806e-3 0.99633083
vn -0.12993085 -0.99152074 -2.1435120e-3
vn 0.0000000e+0 -2.0943936e-3 0.99999781
vn 0.12993085 -0.99152074 -2.1435120e-3
vn 8.5563062e-2 -1.9583806e-3 0.99633083
vn 0.12993085 -0.99152074 -2.1435120e-3
vn 1.00000000 0.0000000e+0 1.1249818e-16
vn 8.6000824e-2 -1.7016513e-3 0.99629361
vn -0.49258435 0.87026184 2.2350396e-3
vn 1.00000000 0.0000000e+0 1.1249818e-16
vn 8.6000824e-2 -1.7016513e-3 0.99629361
vn 0.49258440 -0.87026181 -2.2350395e-3
vn 1.00000000 0.0000000e+0 1.1249818e-16
vn 0.11581032 1.6964868e-3 -0.99326990
vn 0.49258440 -0.87026181 -2.2350395e-3
vn 1.00000000 0.0000000e+0 1.1249818e-16
vn 0.11581032 1.6964868e-3 -0.99326990
vn -0.49258435 0.87026184 2.2350396e-3
vn -1.00000000 3.4890597e-18 -2.2499637e-15
vn -0.11581032 1.6964868e-3 -0.99326990
vn 0.49258435 0.87026184 2.2350396e-3
vn -1.00000000 3.4890597e-18 -2.2499637e-15
vn -0.11581032 1.6964868e-3 -0.99326990
vn -0.49258440 -0.87026181 -2.2350395e-3
vn -1.00000000 3.4890597e-18 -2.2499637e-15
vn -8.6000824e-2 -1.7016513e-3 0.99629361
vn -0.49258440 -0.87026181 -2.2350395e-3
vn -1.00000000 3.4890597e-18 -2.2499637e-15
vn -8.6000824e-2 -1.7016513e-3 0.99629361
vn 0.49258435 0.87026184 2.2350396e-3
vn -8.5563062e-2 -1.9583806e-3 0.99633083
vn 0.37817830 0.92573013 2.2135562e-3
vn -8.6000824e-2 -1.7016513e-3 0.99629361
vn 0.37817830 0.92573013 2.2135562e-3
vn -8.5563062e-2 -1.9583806e-3 0.99633083
vn -0.37817836 -0.92573011 -2.2135561e-3
vn -8.6000824e-2 -1.7016513e-3 0.99629361
vn -0.37817836 -0.92573011 -2.2135561e-3
vn -0.11624395 1.9522635e-3 -0.99321877
vn -0.37817836 -0.92573011 -2.2135561e-3
vn -0.11581032 1.6964868e-3 -0.99326990
vn -0.37817836 -0.92573011 -2.2135561e-3
vn -0.11624395 1.9522635e-3 -0.99321877
vn 0.37817830 0.92573013 2.2135562e-3
vn -0.11581032 1.6964868e-3 -0.99326990
vn 0.37817830 0.92573013 2.2135562e-3
vn 0.11624395 1.9522635e-3 -0.99321877
vn -0.37817830 0.92573013 2.2135562e-3
vn 0.11581032 1.6964868e-3 -0.99326990
vn -0.37817830 0.92573013 2.2135562e-3
vn 0.11624395 1.9522635e-3 -0.99321877
vn 0.37817836 -0.92573011 -2.2135561e-3
vn 0.11581032 1.6964868e-3 -0.99326990
vn 0.37817836 -0.92573011 -2.2135561e-3
vn 8.5563062e-2 -1.9583806e-3 0.99633083
vn 0.37817836 -0.92573011 -2.2135561e-3
vn 8.6000824e-2 -1.7016513e-3 0.99629361
vn 0.37817836 -0.92573011 -2.2135561e-3
vn 8.5563062e-2 -1.9583806e-3 0.99633083
vn -0.37817830 0.92573013 2.2135562e-3
vn 8.6000824e-2 -1.7016513e-3 0.99629361
vn -0.37817830 0.92573013 2.2135562e-3
vn -1.00000000 0.0000000e+0 0.0000000e+0
vn 0.0000000e+0 6.4576592e-2 -0.99791275
vn -1.00000000 0.0000000e+0 0.0000000e+0
vn 0.0000000e+0 0.0000000e+0 1.00000000
vn 1.00000000 0.0000000e+0 0.0000000e+0
vn 0.0000000e+0 6.4576592e-2 -0.99791275
vn 1.00000000 0.0000000e+0 0.0000000e+0
vn 0.0000000e+0 0.0000000e+0 1.00000000
vn 0.0000000e+0 0.79828888 -0.60227475
vn -1.00000000 0.0000000e+0 0.0000000e+0
vn 0.0000000e+0 6.4576592e-2 -0.99791275
vn 0.0000000e+0 0.79828888 -0.60227475
vn -1.00000000 0.0000000e+0 0.0000000e+0
vn 0.0000000e+0 1.00000000 0.0000000e+0
vn -1.00000000 0.0000000e+0 0.0000000e+0
vn 0.0000000e+0 0.79828888 -0.60227475
vn 1.00000000 0.0000000e+0 0.0000000e+0
vn 1.00000000 0.0000000e+0 0.0000000e+0
vn 0.0000000e+0 1.00000000 0.0000000e+0
vn 0.0000000e+0 0.79828888 -0.60227475
vn 1.00000000 0.0000000e+0 0.0000000e+0
vn 0.0000000e+0 6.4576592e-2 -0.99791275
vn 1.00000000 0.0000000e+0 0.0000000e+0
vn 0.0000000e+0 0.0000000e+0 1.00000000
vn 0.0000000e+0 -1.00000000 0.0000000e+0
vn 1.00000000 0.0000000e+0 0.0000000e+0
vn -1.00000000 0.0000000e+0 0.0000000e+0
vn 0.0000000e+0 0.0000000e+0 1.00000000
vn 0.0000000e+0 -1.00000000 0.0000000e+0
vn -1.00000000 0.0000000e+0 0.0000000e+0
vn 0.0000000e+0 0.0000000e+0 1.00000000
vn 0.0000000e+0 -1.00000000 0.0000000e+0
vn -1.00000000 0.0000000e+0 0.0000000e+0
vn 0.70710678 0.0000000e+0 0.70710678
vn 0.0000000e+0 -1.00000000 0.0000000e+0
vn 0.70710678 0.0000000e+0 0.70710678
vn 0.70710678 0.0000000e+0 0.70710678
vn 0.70710678 0.0000000e+0 0.70710678
vn 0.0000000e+0 1.00000000 0.0000000e+0
vn 0.0000000e+0 0.0000000e+0 1.00000000
vn 0.0000000e+0 1.00000000 0.0000000e+0
vn -1.00000000 0.0000000e+0 0.0000000e+0
g cube2_copy27_cube2_copy27_auv
usemtl cube2_copy27_auv
f 1/62/1 5/58/14 4/55/11 3/59/8 2/63/5
f 1/49/4 15/50/56 26/52/90 27/51/94 5/48/18
f 2/68/7 7/72/25 6/75/20 1/71/2
f 3/74/10 8/69/28 7/67/24 2/73/6
f 4/76/13 9/70/31 8/69/27 3/74/9
f 5/78/15 10/66/33 9/65/30 4/77/12
f 5/21/16 11/19/37 12/15/41 10/17/34
f 5/21/17 27/26/93 28/24/97 11/19/39
f 6/46/21 16/47/58 15/50/54 1/49/3
f 7/56/23 8/60/26 9/64/29 10/61/32 6/57/19
f 10/45/36 30/41/106 31/42/110 16/47/60 6/46/22
f 11/9/38 14/10/50 13/28/46 12/27/42
f 11/9/40 28/3/98 25/4/86 14/10/52
f 12/15/43 29/11/101 30/12/105 10/17/35
f 13/28/48 32/34/114 29/33/102 12/27/44
f 14/16/49 15/18/53 16/22/57 13/20/45
f 14/16/51 25/13/85 26/14/89 15/18/55
f 16/22/59 31/25/109 32/23/113 13/20/47
f 17/29/62 32/23/115 31/25/111 18/30/65
f 18/89/64 19/101/67 20/100/70 17/88/61
f 18/36/66 31/42/112 30/41/108 19/35/69
f 19/6/68 30/12/107 29/11/103 20/5/71
f 20/37/72 29/33/104 32/34/116 17/38/63
f 21/31/74 28/24/99 27/26/95 22/32/77
f 22/87/76 23/99/79 24/102/82 21/90/73
f 22/53/78 27/51/96 26/52/92 23/54/81
f 23/8/80 26/14/91 25/13/87 24/7/83
f 24/2/84 25/4/88 28/3/100 21/1/75
f 33/83/118 37/84/127 40/80/138 35/79/122
f 34/109/119 42/110/143 38/111/129 37/114/126 33/116/117
f 35/115/121 40/113/137 39/108/133 41/107/139 36/112/123
f 36/43/124 41/44/140 42/40/144 34/39/120
f 38/85/128 39/81/132 40/80/136 37/84/125
f 38/85/130 46/86/157 45/82/155 39/81/135
f 39/108/134 45/104/154 44/103/152 41/107/142
f 41/94/141 44/93/151 43/95/148 42/96/145
f 42/110/146 43/105/149 46/106/158 38/111/131
f 44/97/150 45/98/153 46/92/156 43/91/147
