# Exported from Wings 3D 1.0.2
mtllib radarst.mtl
o cube2_sep91
#82 vertices, 69 faces
v -15.91095448 21.89744552 36.16587001
v -16.37380985 21.89075477 36.04176452
v -16.03505996 21.90413626 35.70301464
v -13.87539002 18.22079089 34.13030555
v -14.30228247 18.07306488 33.97023715
v -14.03545843 18.36851690 33.70341311
v -16.28135804 33.27135455 36.01700887
v -15.97865063 33.27573030 36.09817386
v -16.05981562 33.28010605 35.79546645
v -5.17403532 7.80627071 34.50633786
v -5.17403532 6.2618256e-3 34.50633786
v -15.25403532 6.2618256e-3 24.42633786
v -15.25403532 7.80627071 24.42633786
v -5.17403532 7.80627071 24.42633786
v -5.17403532 6.2618256e-3 24.42633786
v -15.25403532 7.80627071 29.46633786
v -10.21403532 7.80627071 34.50633786
v -15.25403532 6.2618256e-3 29.46633786
v -10.21403532 6.2618256e-3 34.50633786
v -5.17403532 7.80627071 31.14633786
v -5.17403532 7.80627071 27.78633786
v -5.17403532 6.2618256e-3 31.14633786
v -5.17403532 6.2618256e-3 27.78633786
v -11.89403532 6.2618256e-3 24.42633786
v -8.53403532 6.2618256e-3 24.42633786
v -11.89403532 7.80627071 24.42633786
v -8.53403532 7.80627071 24.42633786
v -11.46883415 6.2618256e-3 33.25153903
v -13.99923649 6.2618256e-3 30.72113669
v -11.46883415 7.80627071 33.25153903
v -13.99923649 7.80627071 30.72113669
v -8.53403532 6.83564047 22.28673869
v -8.53403532 6.2618256e-3 20.97444527
v -11.89403532 6.2618256e-3 20.97444527
v -11.89403532 6.83564047 22.28673869
v -15.51216157 6.83564047 32.23406178
v -16.44009315 6.2618256e-3 33.16199335
v -13.90969081 6.2618256e-3 35.69239569
v -12.98175924 6.83564047 34.76446411
v -1.72214273 6.2618256e-3 27.78633786
v -3.03443615 6.83564047 27.78633786
v -3.03443615 6.83564047 31.14633786
v -1.72214273 6.2618256e-3 31.14633786
v -6.02625350 8.12423579 33.48367604
v -6.02625350 8.12423579 25.27855604
v -14.23137350 8.12423579 25.27855604
v -14.23137350 8.12423579 29.38111604
v -10.12881350 8.12423579 33.48367604
v -11.46883415 23.34520684 33.25153903
v -13.99923649 23.34520684 30.72113669
v -15.51216157 22.37457659 32.23406178
v -12.98175924 22.37457659 34.76446411
v -6.02625350 23.66317192 33.48367604
v -6.02625350 24.85259212 30.74863604
v -6.02625350 24.85259212 28.01359604
v -6.02625350 23.66317192 25.27855604
v -8.76129350 24.85259212 25.27855604
v -11.49633350 24.85259212 25.27855604
v -14.23137350 23.66317192 25.27855604
v -14.23137350 24.85259212 29.38111604
v -10.12881350 24.85259212 33.48367604
v -13.43132688 23.34520684 31.28904630
v -12.03674376 23.34520684 32.68362942
v -13.54966885 22.37457659 34.19655450
v -14.94425196 22.37457659 32.80197139
v -14.94425196 14.60510853 32.80197139
v -13.54966885 14.60510853 34.19655450
v -14.31933039 23.07602552 34.96621604
v -15.71391350 23.07602552 33.57163293
v -15.71391350 14.60510853 33.57163293
v -14.31933039 14.60510853 34.96621604
v -12.35471202 24.33644352 33.00159767
v -13.74929513 24.33644352 31.60701456
v -16.62646043 21.89744552 35.43535345
v -17.08931579 21.89075477 35.31124796
v -16.75056591 21.90413626 34.97249808
v -14.59089597 18.22079089 33.39978899
v -15.01778841 18.07306488 33.23972058
v -14.75096438 18.36851690 32.97289655
v -16.99686399 33.27135455 35.28649231
v -16.69415658 33.27573030 35.36765730
v -16.77532156 33.28010605 35.06494989
vt 0.14268505 0.23857400
vt 0.14268505 0.23857400
vt 0.14269689 0.25425360
vt 0.14269689 0.25425360
vt 0.18855315 0.23853934
vt 0.18855315 0.23853934
vt 0.18856500 0.25421895
vt 0.18856500 0.25421895
vt 0.19191950 0.69576870
vt 0.19191950 0.76054055
vt 0.19191950 0.69576870
vt 0.19191950 0.76054055
vt 0.19191950 0.69576870
vt 0.19191950 0.76054055
vt 0.24547391 0.17173516
vt 0.24547391 0.17173516
vt 0.24547391 0.17173516
vt 0.26120600 0.25360741
vt 0.26120600 0.25360741
vt 0.28685603 0.26524356
vt 0.28685603 0.17173516
vt 0.28685603 0.17173516
vt 0.28685603 0.17173516
vt 0.28685603 0.26524356
vt 0.34228289 0.69576870
vt 0.34228289 0.76054055
vt 0.34228289 0.76054055
vt 0.34228289 0.69576870
vt 0.34228289 0.76054055
vt 0.34228289 0.69576870
vt 0.42342873 0.44194441
vt 0.42342873 0.44839494
vt 0.42342873 0.44194441
vt 0.42342873 0.44839494
vt 0.43088333 0.32224666
vt 0.43254921 0.29698749
vt 0.44854004 0.32144411
vt 0.45415706 0.56226634
vt 0.45415706 0.63669725
vt 0.45707820 0.27289270
vt 0.46474797 0.32158884
vt 0.46947266 0.44839494
vt 0.46947266 0.44839494
vt 0.47362963 0.44194441
vt 0.47362963 0.44194441
vt 0.47522487 0.46107478
vt 0.47522487 0.46107478
vt 0.48109920 0.45840988
vt 0.48109920 0.45840988
vt 0.48110063 0.30552565
vt 0.48124536 0.28931772
vt 0.48235329 0.32315615
vt 0.48236310 0.27167815
vt 0.48592211 0.37815262
vt 0.48607582 0.47024035
vt 0.48899155 0.29914838
vt 0.48899155 0.37635737
vt 0.49011858 0.56226634
vt 0.49011858 0.63669725
vt 0.49083547 0.47023241
vt 0.49084623 0.47668293
vt 0.50252346 0.47021290
vt 0.50253423 0.47666342
vt 0.50696771 0.29914838
vt 0.50696771 0.37635737
vt 0.50712940 0.37811722
vt 0.50728311 0.47020495
vt 0.52563033 0.45206566
vt 0.52563033 0.47978351
vt 0.52563033 0.45206566
vt 0.52563033 0.47978351
vt 0.54501196 0.45206566
vt 0.54501196 0.47978351
vt 0.54501196 0.45206566
vt 0.54501196 0.47978351
vt 0.55783372 0.99763270
vt 0.55786713 0.79659464
vt 0.55787642 0.93582933
vt 0.56505420 0.79659961
vt 0.56511141 0.86649027
vt 0.56657616 3.1161742e-2
vt 0.56687488 6.7122532e-3
vt 0.57857002 0.42687018
vt 0.57860261 0.44495071
vt 0.57885000 0.63049079
vt 0.57885000 0.76217643
vt 0.57902058 0.76219040
vt 0.57902058 0.63050475
vt 0.58006968 3.1326604e-2
vt 0.58036840 6.8771158e-3
vt 0.58276030 0.86650246
vt 0.58278719 0.79665385
vt 0.58985675 0.99765482
vt 0.58989946 0.93585146
vt 0.58997426 0.79665882
vt 0.58998541 0.99782959
vt 0.58998541 0.99782959
vt 0.59000465 0.79651051
vt 0.59000465 0.79651051
vt 0.59000465 0.93556319
vt 0.59025800 0.42684911
vt 0.59029060 0.44492964
vt 0.60915120 0.80519635
vt 0.60915120 0.94424903
vt 0.60915120 0.94424903
vt 0.60915120 0.80519635
vt 0.61081133 0.33739634
vt 0.61081133 0.55086079
vt 0.61361739 0.63049079
vt 0.61361739 0.77225624
vt 0.61378797 0.77227021
vt 0.61378797 0.63050475
vt 0.62087522 0.99782959
vt 0.64838365 0.56720032
vt 0.66278591 0.63049079
vt 0.66278591 0.77225624
vt 0.68595596 0.56720032
vt 0.72352828 0.33739634
vt 0.72352828 0.55086079
vt 0.73146717 0.39161177
vt 0.73146717 0.39161177
vt 0.73146717 0.46076426
vt 0.73146717 0.46076426
vt 0.74719982 0.39161177
vt 0.74719982 0.39161177
vt 0.74719982 0.46076426
vt 0.74719982 0.46076426
vt 0.79188291 0.39161177
vt 0.79188291 0.39161177
vt 0.79188291 0.46076426
vt 0.79188291 0.46076426
vt 0.79537858 2.0062973e-2
vt 0.79547933 2.4383029e-2
vt 0.79629688 2.0126245e-2
vt 0.79637002 2.3628810e-2
vt 0.79645196 1.8929325e-2
vt 0.79834912 2.4405906e-2
vt 0.79864263 1.6736238e-2
vt 0.79977646 1.5659055e-2
vt 0.79983979 1.6580039e-2
vt 0.80119676 2.4408467e-2
vt 0.80332035 2.3634695e-2
vt 0.80334398 1.6664517e-2
vt 0.80406629 2.4383636e-2
vt 0.80410494 1.5776150e-2
vt 0.80410494 2.1508589e-2
vt 0.80411456 1.8652704e-2
vt 0.85713360 1.9567089e-2
vt 0.85737981 3.1319945e-2
vt 0.85741918 3.1095674e-2
vt 0.85774801 1.1362163e-2
vt 0.85778211 1.9032117e-2
vt 0.85780934 1.1142500e-2
vt 0.85792910 3.1341759e-2
vt 0.85796844 3.1118096e-2
vt 0.85858791 1.1395517e-2
vt 0.85864919 1.1176785e-2
vt 0.85964040 1.2087978e-2
vt 0.86004487 2.1827805e-2
vt 0.86037743 3.2035405e-2
vt 0.86044335 2.2206626e-2
vt 0.86047941 1.2044497e-2
vt 0.86054087 3.3975157e-3
vt 0.86055975 3.4282362e-3
vt 0.86057218 2.1672121e-2
vt 0.86092662 3.2000543e-2
vt 0.86133281 3.6792338e-3
vt 0.86135160 3.7102038e-3
vt 0.86225058 2.5640778e-2
vt 0.86309007 2.5595901e-2
vn 0.81819650 0.55051989 -0.16577797
vn -0.16846339 -0.54311854 0.82258273
vn -0.25903655 4.2053014e-3 0.96585836
vn 0.96588878 4.2061572e-3 -0.25892312
vn -0.70710678 0.0000000e+0 -0.70710678
vn -0.16846339 -0.54311854 0.82258273
vn -0.25903655 4.2053014e-3 0.96585836
vn -0.70718361 4.2069596e-3 -0.70701743
vn 0.81819650 0.55051989 -0.16577797
vn -0.70710678 0.0000000e+0 -0.70710678
vn 0.96588878 4.2061572e-3 -0.25892312
vn -0.70718361 4.2069596e-3 -0.70701743
vn 0.43592167 -0.78736560 -0.43592167
vn 0.81819650 0.55051989 -0.16577797
vn -0.16846339 -0.54311854 0.82258273
vn 0.43592167 -0.78736560 -0.43592167
vn -0.70710678 0.0000000e+0 -0.70710678
vn -0.16846339 -0.54311854 0.82258273
vn 0.43592167 -0.78736560 -0.43592167
vn 0.81819650 0.55051989 -0.16577797
vn -0.70710678 0.0000000e+0 -0.70710678
vn -1.9743580e-2 0.99961012 1.9743580e-2
vn -0.25903655 4.2053014e-3 0.96585836
vn -0.70718361 4.2069596e-3 -0.70701743
vn -1.9743580e-2 0.99961012 1.9743580e-2
vn -0.25903655 4.2053014e-3 0.96585836
vn 0.96588878 4.2061572e-3 -0.25892312
vn -1.9743580e-2 0.99961012 1.9743580e-2
vn 0.96588878 4.2061572e-3 -0.25892312
vn -0.70718361 4.2069596e-3 -0.70701743
vn 1.00000000 0.0000000e+0 0.0000000e+0
vn 0.0000000e+0 0.0000000e+0 1.00000000
vn 0.0000000e+0 0.95490877 0.29689937
vn 0.34956468 0.93691224 0.0000000e+0
vn 1.00000000 0.0000000e+0 0.0000000e+0
vn 0.0000000e+0 0.0000000e+0 1.00000000
vn -1.00000000 0.0000000e+0 0.0000000e+0
vn 0.0000000e+0 0.0000000e+0 -1.00000000
vn -1.00000000 0.0000000e+0 0.0000000e+0
vn 0.0000000e+0 0.0000000e+0 -1.00000000
vn 0.0000000e+0 0.93691224 -0.34956468
vn -0.29689937 0.95490877 0.0000000e+0
vn 1.00000000 0.0000000e+0 0.0000000e+0
vn 0.0000000e+0 0.0000000e+0 -1.00000000
vn 0.34956468 0.93691224 0.0000000e+0
vn 0.0000000e+0 0.93691224 -0.34956468
vn 1.00000000 0.0000000e+0 0.0000000e+0
vn 0.0000000e+0 0.0000000e+0 -1.00000000
vn -1.00000000 0.0000000e+0 0.0000000e+0
vn -0.70710678 0.0000000e+0 0.70710678
vn -0.29689937 0.95490877 0.0000000e+0
vn -0.26593205 0.92658529 0.26593205
vn -0.70710678 0.0000000e+0 0.70710678
vn 0.0000000e+0 0.0000000e+0 1.00000000
vn -0.26593205 0.92658529 0.26593205
vn 0.0000000e+0 0.95490877 0.29689937
vn -1.00000000 0.0000000e+0 0.0000000e+0
vn -0.70710678 0.0000000e+0 0.70710678
vn -0.70710678 0.0000000e+0 0.70710678
vn 0.0000000e+0 0.0000000e+0 1.00000000
vn 1.00000000 0.0000000e+0 0.0000000e+0
vn 0.41312738 0.91067325 0.0000000e+0
vn 0.0000000e+0 0.0000000e+0 1.00000000
vn 0.34956468 0.93691224 0.0000000e+0
vn 0.34956468 0.93691224 0.0000000e+0
vn 1.00000000 0.0000000e+0 0.0000000e+0
vn 0.0000000e+0 0.0000000e+0 -1.00000000
vn 0.41312738 0.91067325 0.0000000e+0
vn 0.34956468 0.93691224 0.0000000e+0
vn 0.34956468 0.93691224 0.0000000e+0
vn 1.00000000 0.0000000e+0 0.0000000e+0
vn 0.0000000e+0 0.0000000e+0 1.00000000
vn 1.00000000 0.0000000e+0 0.0000000e+0
vn 0.0000000e+0 0.0000000e+0 -1.00000000
vn 0.0000000e+0 0.0000000e+0 -1.00000000
vn -1.00000000 0.0000000e+0 0.0000000e+0
vn 0.0000000e+0 0.0000000e+0 -1.00000000
vn 1.00000000 0.0000000e+0 0.0000000e+0
vn 0.0000000e+0 0.0000000e+0 -1.00000000
vn -1.00000000 0.0000000e+0 0.0000000e+0
vn 0.0000000e+0 0.91067325 -0.41312738
vn 0.0000000e+0 0.93691224 -0.34956468
vn 0.0000000e+0 0.93691224 -0.34956468
vn 0.0000000e+0 0.0000000e+0 -1.00000000
vn 1.00000000 0.0000000e+0 0.0000000e+0
vn 0.0000000e+0 0.91067325 -0.41312738
vn 0.0000000e+0 0.93691224 -0.34956468
vn 0.0000000e+0 0.93691224 -0.34956468
vn -0.70710678 0.0000000e+0 0.70710678
vn 0.70710678 0.0000000e+0 0.70710678
vn -0.70710678 0.0000000e+0 0.70710678
vn -0.70710678 -1.7647460e-15 -0.70710678
vn -0.70710678 0.0000000e+0 0.70710678
vn 0.70710678 0.0000000e+0 0.70710678
vn -0.26593205 0.92658529 0.26593205
vn 0.70710678 0.0000000e+0 -0.70710678
vn 0.70710678 1.0685787e-16 0.70710678
vn -0.26593205 0.92658529 0.26593205
vn -0.70710678 0.0000000e+0 0.70710678
vn -0.70710678 -1.7647460e-15 -0.70710678
vn 0.70710678 0.0000000e+0 -0.70710678
vn -0.26593205 0.92658529 0.26593205
vn -0.26593205 0.92658529 0.26593205
vn -0.70710678 1.0685787e-16 -0.70710678
vn 1.2360918e-17 0.18870198 -0.98203440
vn 1.00000000 0.0000000e+0 0.0000000e+0
vn 0.0000000e+0 0.91067325 -0.41312738
vn 1.2360918e-17 0.18870198 -0.98203440
vn 1.00000000 0.0000000e+0 0.0000000e+0
vn 1.2360918e-17 0.18870198 -0.98203440
vn -1.00000000 0.0000000e+0 0.0000000e+0
vn 1.2360918e-17 0.18870198 -0.98203440
vn -1.00000000 0.0000000e+0 0.0000000e+0
vn 0.0000000e+0 0.91067325 -0.41312738
vn -0.69440318 0.18870198 0.69440318
vn -0.70710678 -1.7647460e-15 -0.70710678
vn -0.70710678 1.0685787e-16 -0.70710678
vn -0.70710678 -1.7638645e-16 0.70710678
vn -0.69440318 0.18870198 0.69440318
vn -0.70710678 -1.7647460e-15 -0.70710678
vn -0.69440318 0.18870198 0.69440318
vn 0.70710678 0.0000000e+0 0.70710678
vn -0.69440318 0.18870198 0.69440318
vn 0.70710678 0.0000000e+0 0.70710678
vn 0.70710678 1.0685787e-16 0.70710678
vn -0.70710678 -1.7638645e-16 0.70710678
vn 0.98203440 0.18870198 0.0000000e+0
vn 0.0000000e+0 0.0000000e+0 -1.00000000
vn 0.98203440 0.18870198 0.0000000e+0
vn 0.0000000e+0 0.0000000e+0 -1.00000000
vn 0.41312738 0.91067325 0.0000000e+0
vn 0.98203440 0.18870198 0.0000000e+0
vn 0.41312738 0.91067325 0.0000000e+0
vn 0.0000000e+0 0.0000000e+0 1.00000000
vn 0.98203440 0.18870198 0.0000000e+0
vn 0.0000000e+0 0.0000000e+0 1.00000000
vn 0.34956468 0.93691224 0.0000000e+0
vn 0.0000000e+0 0.95490877 0.29689937
vn 0.0000000e+0 0.0000000e+0 1.00000000
vn 0.34956468 0.93691224 0.0000000e+0
vn 1.00000000 0.0000000e+0 0.0000000e+0
vn 0.34956468 0.93691224 0.0000000e+0
vn 0.34956468 0.93691224 0.0000000e+0
vn 1.00000000 0.0000000e+0 0.0000000e+0
vn 0.0000000e+0 0.93691224 -0.34956468
vn 0.0000000e+0 0.0000000e+0 -1.00000000
vn 0.0000000e+0 0.93691224 -0.34956468
vn 0.0000000e+0 0.93691224 -0.34956468
vn -0.29689937 0.95490877 0.0000000e+0
vn -1.00000000 0.0000000e+0 0.0000000e+0
vn 0.0000000e+0 0.0000000e+0 -1.00000000
vn 0.0000000e+0 0.93691224 -0.34956468
vn -0.29689937 0.95490877 0.0000000e+0
vn -1.00000000 0.0000000e+0 0.0000000e+0
vn -0.26593205 0.92658529 0.26593205
vn -0.26593205 0.92658529 0.26593205
vn -0.70710678 0.0000000e+0 0.70710678
vn -0.26593205 0.92658529 0.26593205
vn 0.0000000e+0 0.95490877 0.29689937
vn 0.0000000e+0 0.0000000e+0 1.00000000
vn -0.26593205 0.92658529 0.26593205
vn -0.70710678 0.0000000e+0 0.70710678
vn 0.70710678 0.0000000e+0 -0.70710678
vn 0.70710678 1.0685787e-16 0.70710678
vn -0.29212517 0.91067325 0.29212517
vn -0.29212517 0.91067325 0.29212517
vn 0.70710678 0.0000000e+0 -0.70710678
vn -0.70710678 1.0685787e-16 -0.70710678
vn -0.29212517 0.91067325 0.29212517
vn -0.70710678 1.0685787e-16 -0.70710678
vn -0.70710678 -1.7638645e-16 0.70710678
vn 0.70710678 1.0685787e-16 0.70710678
vn -0.29212517 0.91067325 0.29212517
vn -0.70710678 -1.7638645e-16 0.70710678
vn 0.0000000e+0 0.0000000e+0 1.00000000
vn 0.25694252 0.88624870 0.38541378
vn 1.00000000 0.0000000e+0 0.0000000e+0
vn 0.25694252 0.88624870 0.38541378
vn 0.0000000e+0 1.00000000 0.0000000e+0
vn 1.00000000 0.0000000e+0 0.0000000e+0
vn 0.37043193 0.85179832 -0.37043193
vn 0.0000000e+0 1.00000000 0.0000000e+0
vn 1.00000000 0.0000000e+0 0.0000000e+0
vn 0.37043193 0.85179832 -0.37043193
vn 1.00000000 0.0000000e+0 0.0000000e+0
vn 0.0000000e+0 0.0000000e+0 -1.00000000
vn 0.37043193 0.85179832 -0.37043193
vn 0.0000000e+0 1.00000000 0.0000000e+0
vn 0.0000000e+0 0.0000000e+0 -1.00000000
vn -0.38541378 0.88624870 -0.25694252
vn 0.0000000e+0 1.00000000 0.0000000e+0
vn 0.0000000e+0 0.0000000e+0 -1.00000000
vn -1.00000000 0.0000000e+0 0.0000000e+0
vn -0.38541378 0.88624870 -0.25694252
vn 0.0000000e+0 0.0000000e+0 -1.00000000
vn -1.00000000 0.0000000e+0 0.0000000e+0
vn -0.38541378 0.88624870 -0.25694252
vn 0.0000000e+0 1.00000000 0.0000000e+0
vn -0.70710678 0.0000000e+0 0.70710678
vn 0.0000000e+0 0.0000000e+0 1.00000000
vn 0.25694252 0.88624870 0.38541378
vn 0.0000000e+0 1.00000000 0.0000000e+0
vn -0.70710678 0.0000000e+0 0.70710678
vn -0.29212517 0.91067325 0.29212517
vn 0.70710678 0.0000000e+0 -0.70710678
vn 0.64394323 0.41312738 -0.64394323
vn -0.70710678 2.4175777e-15 -0.70710678
vn 0.70710678 0.0000000e+0 -0.70710678
vn -0.29212517 0.91067325 0.29212517
vn 0.70710678 0.0000000e+0 0.70710678
vn 0.64394323 0.41312738 -0.64394323
vn -0.29212517 0.91067325 0.29212517
vn 0.70710678 6.0293481e-16 0.70710678
vn 0.70710678 0.0000000e+0 0.70710678
vn -0.70710678 -1.7638645e-16 0.70710678
vn -0.29212517 0.91067325 0.29212517
vn -0.70710678 -4.0195654e-16 -0.70710678
vn -0.70710678 2.4175777e-15 -0.70710678
vn -0.70710678 -1.7638645e-16 0.70710678
vn -0.70710678 -4.0195654e-16 -0.70710678
vn -8.2747718e-16 -1.00000000 0.0000000e+0
vn -0.70710678 -1.7638645e-16 0.70710678
vn -8.2747718e-16 -1.00000000 0.0000000e+0
vn 0.70710678 6.0293481e-16 0.70710678
vn -0.70710678 -1.7638645e-16 0.70710678
vn -0.29212517 0.91067325 0.29212517
vn -0.70710678 -2.1265245e-16 0.70710678
vn 0.70710678 6.0293481e-16 0.70710678
vn 0.70710678 0.0000000e+0 0.70710678
vn -0.29212517 0.91067325 0.29212517
vn -0.70710678 -2.1265245e-16 0.70710678
vn -0.70710678 -4.0195654e-16 -0.70710678
vn -0.70710678 2.4175777e-15 -0.70710678
vn -0.70710678 -2.1265245e-16 0.70710678
vn -0.70710678 -4.0195654e-16 -0.70710678
vn -8.2747718e-16 -1.00000000 0.0000000e+0
vn -0.70710678 -2.1265245e-16 0.70710678
vn -8.2747718e-16 -1.00000000 0.0000000e+0
vn 0.70710678 6.0293481e-16 0.70710678
vn -0.29212517 0.91067325 0.29212517
vn 0.70710678 0.0000000e+0 0.70710678
vn 0.64394323 0.41312738 -0.64394323
vn -0.29212517 0.91067325 0.29212517
vn 0.64394323 0.41312738 -0.64394323
vn -0.70710678 2.4175777e-15 -0.70710678
vn 0.81819650 0.55051989 -0.16577797
vn -0.16846339 -0.54311854 0.82258273
vn -0.25903655 4.2053014e-3 0.96585836
vn 0.96588878 4.2061572e-3 -0.25892312
vn -0.70710678 0.0000000e+0 -0.70710678
vn -0.16846339 -0.54311854 0.82258273
vn -0.25903655 4.2053014e-3 0.96585836
vn -0.70718361 4.2069596e-3 -0.70701743
vn 0.81819650 0.55051989 -0.16577797
vn -0.70710678 0.0000000e+0 -0.70710678
vn 0.96588878 4.2061572e-3 -0.25892312
vn -0.70718361 4.2069596e-3 -0.70701743
vn 0.43592167 -0.78736560 -0.43592167
vn 0.81819650 0.55051989 -0.16577797
vn -0.16846339 -0.54311854 0.82258273
vn 0.43592167 -0.78736560 -0.43592167
vn -0.70710678 0.0000000e+0 -0.70710678
vn -0.16846339 -0.54311854 0.82258273
vn 0.43592167 -0.78736560 -0.43592167
vn 0.81819650 0.55051989 -0.16577797
vn -0.70710678 0.0000000e+0 -0.70710678
vn -1.9743580e-2 0.99961012 1.9743580e-2
vn -0.25903655 4.2053014e-3 0.96585836
vn -0.70718361 4.2069596e-3 -0.70701743
vn -1.9743580e-2 0.99961012 1.9743580e-2
vn -0.25903655 4.2053014e-3 0.96585836
vn 0.96588878 4.2061572e-3 -0.25892312
vn -1.9743580e-2 0.99961012 1.9743580e-2
vn 0.96588878 4.2061572e-3 -0.25892312
vn -0.70718361 4.2069596e-3 -0.70701743
g cube2_sep91_cube2_copy27_auv
usemtl cube2_copy27_auv
f 1/153/1 4/164/14 6/168/20 3/157/9
f 1/156/3 8/154/26 7/149/23 2/151/7
f 2/151/6 5/163/18 4/167/15 1/156/2
f 2/162/8 7/166/24 9/160/30 3/158/12
f 3/169/10 6/148/21 5/152/17 2/170/5
f 3/157/11 9/155/29 8/150/27 1/153/4
f 8/165/25 9/161/28 7/159/22
f 10/130/32 17/126/54 19/125/60 11/129/36
f 10/145/33 44/143/138 48/140/159 17/139/56
f 11/25/35 22/26/71 20/14/61 10/13/31
f 12/27/38 13/12/40 26/11/79 24/30/75
f 13/131/39 12/128/37 18/124/57 16/127/49
f 13/133/41 46/135/148 26/137/82
f 14/10/43 21/9/66 23/28/73 15/29/47
f 14/144/45 45/142/143 21/146/70
f 15/25/48 25/26/77 27/14/84 14/13/44
f 16/132/51 47/134/153 46/135/149 13/133/42
f 17/126/53 30/122/93 28/121/89 19/125/59
f 17/139/55 48/140/158 30/138/95
f 18/124/58 29/120/91 31/123/99 16/127/50
f 20/73/62 42/71/133 41/70/131 21/72/68
f 20/147/65 44/143/140 10/145/34
f 21/20/67 41/18/130 40/17/128 23/23/74
f 21/146/69 45/142/142 44/143/137 20/147/64
f 22/21/72 43/15/136 42/19/134 20/24/63
f 25/21/78 33/15/109 32/19/106 27/24/85
f 26/24/80 35/19/113 34/16/111 24/22/76
f 26/137/83 46/135/152 45/142/147 27/141/88
f 27/75/86 32/69/107 35/68/114 26/74/81
f 27/141/87 45/142/145 14/144/46
f 29/97/92 37/113/120 36/105/116 31/100/100
f 30/100/94 39/104/124 38/113/122 28/96/90
f 30/138/98 48/140/161 47/134/156 31/136/103
f 30/100/97 49/99/164 52/103/172 39/104/125
f 31/136/102 47/134/155 16/132/52
f 31/66/101 50/67/167 62/62/205 63/60/208 49/55/163 30/54/96
f 33/38/108 34/58/110 35/59/112 32/39/105
f 36/105/117 51/106/170 50/98/168 31/100/104
f 37/76/119 38/93/121 39/94/123 36/78/115
f 39/94/126 52/95/174 64/92/215 67/91/225 66/80/222 65/79/219 51/77/171 36/78/118
f 41/59/129 42/39/132 43/38/135 40/58/127
f 44/88/139 53/87/175 61/111/200 48/112/160
f 47/109/157 48/115/162 61/116/203 60/110/199
f 47/109/154 60/110/196 59/86/193 46/85/150
f 50/2/166 51/5/169 65/7/216 62/4/204
f 52/8/173 49/3/165 63/1/209 64/6/212
f 53/108/177 44/107/141 45/118/144 56/119/185 55/117/183 54/114/180
f 54/51/178 61/40/201 53/53/176
f 55/50/182 57/41/188 58/37/191 60/36/198 61/40/202 54/51/179
f 56/108/186 45/107/146 46/118/151 59/119/195 58/117/192 57/114/189
f 56/52/184 57/41/187 55/50/181
f 59/35/194 60/36/197 58/37/190
f 62/62/206 73/63/244 72/61/242 63/60/211
f 64/43/214 63/46/210 72/48/241 68/44/229
f 65/42/218 69/45/233 73/49/245 62/47/207
f 66/32/220 70/31/235 69/45/232 65/42/217
f 67/82/223 71/90/238 70/89/236 66/81/221
f 68/44/228 71/33/239 67/34/224 64/43/213
f 68/101/226 72/102/240 73/84/243 69/83/230
f 69/57/231 70/56/234 71/64/237 68/65/227
f 74/153/246 77/164/259 79/168/265 76/157/254
f 74/156/248 81/154/271 80/149/268 75/151/252
f 75/151/251 78/163/263 77/167/260 74/156/247
f 75/162/253 80/166/269 82/160/275 76/158/257
f 76/169/255 79/148/266 78/152/262 75/170/250
f 76/157/256 82/155/274 81/150/272 74/153/249
f 81/165/270 82/161/273 80/159/267
g cube2_sep91_default
usemtl default
f 5//16 6//19 4//13
f 78//261 79//264 77//258
