# Exported from Wings 3D 1.0.2
mtllib turmw1.mtl
o cube2_sep90
#36 vertices, 24 faces
v 2.17886499 0.50218028 -1.0658141e-14
v 1.10272707 0.50218028 -1.86392555
v -1.04954877 0.50218028 -1.86392555
v -2.12568669 0.50218028 -1.0658141e-14
v -1.04954877 0.50218028 1.86392555
v 1.10272707 0.50218028 1.86392555
v 1.10272707 1.3130487e-2 -1.86392555
v 2.17886499 1.3130487e-2 -1.0658141e-14
v 1.10272707 1.3130487e-2 1.86392555
v -1.04954877 1.3130487e-2 1.86392555
v -2.12568669 1.3130487e-2 -1.0658141e-14
v -1.04954877 1.3130487e-2 -1.86392555
v 4.7294942e-2 3.00000988 1.12646528
v -0.50924504 2.03605435 1.12646528
v -1.62232501 2.03605435 1.12646528
v -2.17886499 3.00000988 1.12646528
v -1.62232501 3.96396540 1.12646528
v -0.50924504 3.96396540 1.12646528
v 4.7294942e-2 3.00000988 -1.09969465
v -0.50924504 2.03605435 -1.09969465
v -1.62232501 2.03605435 -1.09969465
v -2.17886499 3.00000988 -1.09969465
v -1.62232501 3.96396540 -1.09969465
v -0.50924504 3.96396540 -1.09969465
v 4.7294942e-2 3.00000988 0.60628591
v 4.7294942e-2 3.00000988 -0.57951528
v -0.50924504 2.03605435 0.60628591
v -0.50924504 2.03605435 -0.57951528
v -1.62232501 2.03605435 0.60628591
v -1.62232501 2.03605435 -0.57951528
v 0.93208016 0.50218028 0.60628591
v 0.93208016 0.50218028 -0.57951528
v -0.72812326 0.50218028 0.60628591
v -0.72812326 0.50218028 -0.57951528
v 0.93208016 1.46613581 -0.57951528
v 0.93208016 1.46613581 0.60628591
vt 0.42455222 0.45157270
vt 0.42455222 0.45728536
vt 0.42979569 0.46637550
vt 0.43309390 0.46066284
vt 0.43439103 0.45157270
vt 0.43969030 0.46066284
vt 0.53717266 0.42516407
vt 0.54047086 0.41945142
vt 0.54047086 0.43087673
vt 0.54047086 0.41945142
vt 0.54047086 0.43087673
vt 0.54706727 0.41945142
vt 0.54706727 0.41945142
vt 0.54706727 0.43087673
vt 0.54928467 0.43503426
vt 0.55036547 0.42516407
vt 0.55036547 0.42516407
vt 0.55566215 0.42398814
vt 0.55566215 0.44608037
vt 0.56841710 0.42398814
vt 0.56841710 0.44608037
vt 0.57479458 0.43503426
vt 0.58676103 0.78227737
vt 0.58676103 0.78392937
vt 0.58676103 0.78227737
vt 0.58676103 0.78392937
vt 0.59039619 0.78227737
vt 0.59039619 0.78392937
vt 0.59202855 0.78010459
vt 0.59202855 0.78610215
vt 0.59202855 0.77814180
vt 0.59202855 0.78139801
vt 0.59202855 0.78737961
vt 0.59215138 0.78222480
vt 0.59215138 0.78398195
vt 0.59215138 0.78222480
vt 0.59215138 0.78398195
vt 0.59315278 0.78122340
vt 0.59315278 0.78498335
vt 0.59403135 0.78227737
vt 0.59403135 0.78392937
vt 0.59403135 0.78227737
vt 0.59403135 0.78392937
vt 0.59490993 0.78122340
vt 0.59490993 0.78498335
vt 0.59490993 0.78498335
vt 0.59591133 0.78222480
vt 0.59591133 0.78222480
vt 0.59591133 0.78398195
vt 0.59591133 0.78398195
vt 0.59603416 0.77814180
vt 0.59603416 0.78139801
vt 0.59603416 0.78737961
vt 0.59603416 0.78010459
vt 0.59603416 0.78610215
vt 0.59766652 0.78227737
vt 0.59766652 0.78392937
vt 0.60130168 0.78227737
vt 0.60130168 0.78392937
vt 0.60130168 0.78227737
vt 0.60130168 0.78392937
vt 0.61783430 0.59970983
vt 0.61783430 0.61129312
vt 0.61783430 0.59970983
vt 0.61783430 0.61129312
vt 0.61789766 0.59975345
vt 0.61789766 0.61133674
vt 0.61789766 0.59975345
vt 0.61789766 0.61133674
vt 0.62331092 0.59975345
vt 0.63565099 0.59975345
vt 0.64100088 0.59970983
vt 0.64100088 0.61129312
vt 0.64100088 0.59970983
vt 0.64100088 0.61129312
vt 0.64106424 0.59975345
vt 0.64106424 0.61133674
vt 0.64106424 0.59975345
vt 0.64106424 0.61133674
vn 0.86602540 -2.7755576e-17 0.50000000
vn 0.43301270 -0.75000000 0.50000000
vn -0.43301270 -0.75000000 0.50000000
vn -0.86602540 5.5511151e-17 0.50000000
vn -0.43301270 0.75000000 0.50000000
vn 0.43301270 0.75000000 0.50000000
vn 0.86602540 2.7755576e-17 -0.50000000
vn 0.43301270 -0.75000000 -0.50000000
vn -0.43301270 -0.75000000 -0.50000000
vn -0.86602540 5.5511151e-17 -0.50000000
vn -0.43301270 0.75000000 -0.50000000
vn 0.43301270 0.75000000 -0.50000000
vn 0.0000000e+0 1.00000000 0.0000000e+0
vn 1.00000000 2.1032727e-17 -2.4998515e-15
vn 1.00000000 2.1032727e-17 -2.4998515e-15
vn 0.0000000e+0 1.00000000 0.0000000e+0
vn 0.50000000 2.1032727e-17 -0.86602540
vn 0.50000000 2.1032727e-17 -0.86602540
vn 0.0000000e+0 1.00000000 0.0000000e+0
vn -0.50000000 0.0000000e+0 -0.86602540
vn -0.50000000 0.0000000e+0 -0.86602540
vn 0.0000000e+0 1.00000000 0.0000000e+0
vn -1.00000000 -2.1032727e-17 -2.4037034e-15
vn -1.00000000 -2.1032727e-17 -2.4037034e-15
vn 0.0000000e+0 1.00000000 0.0000000e+0
vn -0.50000000 -2.1032727e-17 0.86602540
vn -0.50000000 -2.1032727e-17 0.86602540
vn 0.0000000e+0 1.00000000 0.0000000e+0
vn 0.50000000 0.0000000e+0 0.86602540
vn 0.50000000 0.0000000e+0 0.86602540
vn 0.50000000 2.1032727e-17 -0.86602540
vn 0.50000000 2.1032727e-17 -0.86602540
vn 1.00000000 2.1032727e-17 -2.4998515e-15
vn 1.00000000 2.1032727e-17 -2.4998515e-15
vn 0.50000000 0.0000000e+0 0.86602540
vn 0.50000000 0.0000000e+0 0.86602540
vn -0.50000000 -2.1032727e-17 0.86602540
vn -0.50000000 -2.1032727e-17 0.86602540
vn -1.00000000 -2.1032727e-17 -2.4037034e-15
vn -1.00000000 -2.1032727e-17 -2.4037034e-15
vn -0.50000000 0.0000000e+0 -0.86602540
vn -0.50000000 0.0000000e+0 -0.86602540
vn 0.91858880 0.17664982 0.35353847
vn 0.91858880 0.17664982 0.35353847
vn 0.91858880 0.17664982 0.35353847
vn 0.91858880 0.17664982 0.35353847
vn 0.91858880 0.17664982 -0.35353847
vn 0.91858880 0.17664982 -0.35353847
vn 0.91858880 0.17664982 -0.35353847
vn 0.91858880 0.17664982 -0.35353847
vn 0.32732684 -0.56694671 0.75592895
vn 0.32732684 -0.56694671 0.75592895
vn 0.32732684 -0.56694671 0.75592895
vn 0.32732684 -0.56694671 0.75592895
vn 0.32732684 -0.56694671 -0.75592895
vn 0.32732684 -0.56694671 -0.75592895
vn 0.32732684 -0.56694671 -0.75592895
vn 0.32732684 -0.56694671 -0.75592895
vn -0.61134938 -0.70807146 0.35339318
vn -0.61134938 -0.70807146 0.35339318
vn -0.61134938 -0.70807146 0.35339318
vn -0.61134938 -0.70807146 0.35339318
vn -0.61134938 -0.70807146 -0.35339318
vn -0.61134938 -0.70807146 -0.35339318
vn -0.61134938 -0.70807146 -0.35339318
vn -0.61134938 -0.70807146 -0.35339318
vn 1.00000000 0.0000000e+0 0.0000000e+0
vn 0.0000000e+0 0.0000000e+0 1.00000000
vn 0.0000000e+0 -3.5860736e-17 1.00000000
vn 1.00000000 0.0000000e+0 0.0000000e+0
vn 0.0000000e+0 0.0000000e+0 -1.00000000
vn 0.0000000e+0 0.0000000e+0 -1.00000000
vn 0.0000000e+0 0.0000000e+0 1.00000000
vn -0.86391568 -0.50363647 0.0000000e+0
vn -0.86391568 -0.50363647 0.0000000e+0
vn 0.0000000e+0 0.0000000e+0 -1.00000000
vn 1.00000000 0.0000000e+0 0.0000000e+0
vn 0.0000000e+0 0.0000000e+0 -1.00000000
vn 0.86622033 0.49966223 0.0000000e+0
vn 1.00000000 0.0000000e+0 0.0000000e+0
vn 0.86622033 0.49966223 0.0000000e+0
vn 0.0000000e+0 -3.5860736e-17 1.00000000
g cube2_sep90_cube2_copy27_auv
usemtl cube2_copy27_auv
f 1/41/14 8/40/33 7/60/31 2/61/17
f 2/21/16 3/19/19 4/15/22 5/18/25 6/20/28 1/22/13
f 2/28/18 7/27/32 12/56/42 3/57/21
f 3/26/20 12/25/41 11/42/40 4/43/24
f 4/43/23 11/42/39 10/58/38 5/59/27
f 5/28/26 10/27/37 9/56/36 6/57/30
f 6/24/29 9/23/35 8/40/34 1/41/15
f 13/17/1 18/14/6 17/11/5 16/7/4 15/10/3 14/13/2
f 13/66/1 25/70/43 26/71/47 19/78/7 24/79/12 18/67/6
f 14/38/2 27/44/52 25/45/44 13/39/1
f 15/48/3 29/49/60 27/37/51 14/36/2
f 16/77/4 22/69/10 21/68/9 30/70/63 29/71/59 15/76/3
f 17/75/5 23/63/11 22/62/10 16/74/4
f 18/73/6 24/65/12 23/64/11 17/72/5
f 19/46/7 26/39/48 28/38/56 20/44/8
f 20/8/8 21/12/9 22/16/10 23/14/11 24/9/12 19/7/7
f 20/35/8 28/34/55 30/47/64 21/50/9
f 25/33/45 36/32/81 35/52/79 26/53/50
f 26/3/49 35/2/78 32/1/72 28/4/58
f 27/4/53 29/6/61 33/5/73 31/1/68
f 28/4/57 32/1/71 34/5/76 30/6/66
f 30/30/65 34/29/75 33/54/74 29/55/62
f 31/1/69 36/2/82 25/3/46 27/4/54
f 32/51/70 35/52/77 36/32/80 31/31/67
