# Blender3D v247 OBJ File: Marshycomplete.blend
# www.blender3d.org
mtllib boosters.mtl
o boosters_Sphere.006
v -0.562453 -1.546712 -0.848734
v 0.562453 -1.546712 -0.848734
v -0.489416 -0.245806 -0.923880
v 0.489416 -0.245806 -0.923880
v -0.489416 1.051255 -0.707107
v 0.489416 1.051255 -0.707107
v -0.489416 1.788158 -0.382684
v 0.489416 1.788158 -0.382684
v -0.760014 1.788158 -0.270598
v 0.760014 1.788158 -0.270598
v -0.989416 1.051255 -0.500000
v 0.989416 1.051255 -0.500000
v -1.142697 -0.245806 -0.653281
v 1.142697 -0.245806 -0.653281
v -1.162599 -1.546712 -0.600146
v 1.162599 -1.546712 -0.600146
v -1.411188 -1.546712 0.000000
v 1.411188 -1.546712 0.000000
v -1.413295 -0.245806 0.000000
v 1.413295 -0.245806 0.000000
v -1.196523 1.051255 0.000000
v 1.196523 1.051255 0.000000
v -0.872099 1.788158 -0.000000
v 0.872099 1.788158 -0.000000
v -0.489416 2.046925 0.000000
v 0.489416 2.046925 0.000000
v -0.760014 1.788158 0.270598
v 0.760014 1.788158 0.270598
v -0.989416 1.051255 0.500000
v 0.989416 1.051255 0.500000
v -1.142697 -0.245806 0.653282
v 1.142697 -0.245806 0.653282
v -1.162599 -1.546712 0.600146
v 1.162599 -1.546712 0.600146
v -0.562453 -1.546712 0.848735
v 0.562453 -1.546712 0.848735
v -0.489416 -0.245806 0.923880
v 0.489416 -0.245806 0.923880
v -0.489416 1.051255 0.707107
v 0.489416 1.051255 0.707107
v -0.489416 1.788158 0.382683
v 0.489416 1.788158 0.382683
vt 0.658582 0.934255 0.0
vt 0.683417 0.994212 0.0
vt 0.513832 0.994212 0.0
vt 0.513832 0.994212 0.0
vt 0.683417 0.994212 0.0
vt 0.658582 0.934255 0.0
vt 0.513832 0.994212 0.0
vt 0.598624 0.909419 0.0
vt 0.658582 0.934255 0.0
vt 0.658582 0.934255 0.0
vt 0.598624 0.909419 0.0
vt 0.513832 0.994212 0.0
vt 0.513832 0.994212 0.0
vt 0.538667 0.934255 0.0
vt 0.598624 0.909419 0.0
vt 0.598624 0.909419 0.0
vt 0.538667 0.934255 0.0
vt 0.513832 0.994212 0.0
vt 0.802573 0.976588 0.0
vt 0.763598 1.002949 0.0
vt 0.724617 0.976598 0.0
vt 0.724617 0.976598 0.0
vt 0.763598 1.002949 0.0
vt 0.802573 0.976588 0.0
vt 0.724617 0.976598 0.0
vt 0.691563 0.901545 0.0
vt 0.835607 0.901527 0.0
vt 0.802573 0.976588 0.0
vt 0.835607 0.901527 0.0
vt 0.691563 0.901545 0.0
vt 0.724617 0.976598 0.0
vt 0.802573 0.976588 0.0
vt 0.691563 0.901545 0.0
vt 0.669467 0.769437 0.0
vt 0.857670 0.769413 0.0
vt 0.835607 0.901527 0.0
vt 0.857670 0.769413 0.0
vt 0.669467 0.769437 0.0
vt 0.691563 0.901545 0.0
vt 0.835607 0.901527 0.0
vt 0.849999 0.636702 0.0
vt 0.857670 0.769413 0.0
vt 0.669467 0.769437 0.0
vt 0.677104 0.636724 0.0
vt 0.669467 0.769437 0.0
vt 0.857670 0.769413 0.0
vt 0.849999 0.636702 0.0
vt 0.677104 0.636724 0.0
vt 0.616057 0.772249 0.0
vt 0.580388 0.851989 0.0
vt 0.549299 0.812232 0.0
vt 0.549299 0.812232 0.0
vt 0.580388 0.851989 0.0
vt 0.616057 0.772249 0.0
vt 0.580388 0.851989 0.0
vt 0.465044 0.935296 0.0
vt 0.434884 0.851421 0.0
vt 0.549299 0.812232 0.0
vt 0.434884 0.851421 0.0
vt 0.465044 0.935296 0.0
vt 0.580388 0.851989 0.0
vt 0.549299 0.812232 0.0
vt 0.465044 0.935296 0.0
vt 0.248846 0.997552 0.0
vt 0.232737 0.881923 0.0
vt 0.434884 0.851421 0.0
vt 0.232737 0.881923 0.0
vt 0.248846 0.997552 0.0
vt 0.465044 0.935296 0.0
vt 0.434884 0.851421 0.0
vt 0.248846 0.997552 0.0
vt 0.019255 0.997388 0.0
vt 0.012895 0.882385 0.0
vt 0.232737 0.881923 0.0
vt 0.012895 0.882385 0.0
vt 0.019255 0.997388 0.0
vt 0.248846 0.997552 0.0
vt 0.232737 0.881923 0.0
vt 0.232737 0.881923 0.0
vt 0.012895 0.882385 0.0
vt 0.010681 0.767749 0.0
vt 0.226896 0.768690 0.0
vt 0.010681 0.767749 0.0
vt 0.012895 0.882385 0.0
vt 0.232737 0.881923 0.0
vt 0.226896 0.768690 0.0
vt 0.434884 0.851421 0.0
vt 0.232737 0.881923 0.0
vt 0.226896 0.768690 0.0
vt 0.425448 0.769159 0.0
vt 0.226896 0.768690 0.0
vt 0.232737 0.881923 0.0
vt 0.434884 0.851421 0.0
vt 0.425448 0.769159 0.0
vt 0.549299 0.812232 0.0
vt 0.434884 0.851421 0.0
vt 0.425448 0.769159 0.0
vt 0.539791 0.770692 0.0
vt 0.425448 0.769159 0.0
vt 0.434884 0.851421 0.0
vt 0.549299 0.812232 0.0
vt 0.539791 0.770692 0.0
vt 0.616057 0.772249 0.0
vt 0.549299 0.812232 0.0
vt 0.539791 0.770692 0.0
vt 0.539791 0.770692 0.0
vt 0.549299 0.812232 0.0
vt 0.616057 0.772249 0.0
vt 0.616057 0.772249 0.0
vt 0.539791 0.770692 0.0
vt 0.550962 0.729466 0.0
vt 0.550962 0.729466 0.0
vt 0.539791 0.770692 0.0
vt 0.616057 0.772249 0.0
vt 0.539791 0.770692 0.0
vt 0.425448 0.769159 0.0
vt 0.437927 0.688434 0.0
vt 0.550962 0.729466 0.0
vt 0.437927 0.688434 0.0
vt 0.425448 0.769159 0.0
vt 0.539791 0.770692 0.0
vt 0.550962 0.729466 0.0
vt 0.425448 0.769159 0.0
vt 0.226896 0.768690 0.0
vt 0.234267 0.654131 0.0
vt 0.437927 0.688434 0.0
vt 0.234267 0.654131 0.0
vt 0.226896 0.768690 0.0
vt 0.425448 0.769159 0.0
vt 0.437927 0.688434 0.0
vt 0.226896 0.768690 0.0
vt 0.010681 0.767749 0.0
vt 0.012941 0.652441 0.0
vt 0.234267 0.654131 0.0
vt 0.012941 0.652441 0.0
vt 0.010681 0.767749 0.0
vt 0.226896 0.768690 0.0
vt 0.234267 0.654131 0.0
vt 0.234267 0.654131 0.0
vt 0.012941 0.652441 0.0
vt 0.019478 0.536313 0.0
vt 0.251354 0.536313 0.0
vt 0.019478 0.536313 0.0
vt 0.012941 0.652441 0.0
vt 0.234267 0.654131 0.0
vt 0.251354 0.536313 0.0
vt 0.437927 0.688434 0.0
vt 0.234267 0.654131 0.0
vt 0.251354 0.536313 0.0
vt 0.473804 0.600714 0.0
vt 0.251354 0.536313 0.0
vt 0.234267 0.654131 0.0
vt 0.437927 0.688434 0.0
vt 0.473804 0.600714 0.0
vt 0.550962 0.729466 0.0
vt 0.437927 0.688434 0.0
vt 0.473804 0.600714 0.0
vt 0.583143 0.693306 0.0
vt 0.473804 0.600714 0.0
vt 0.437927 0.688434 0.0
vt 0.550962 0.729466 0.0
vt 0.583143 0.693306 0.0
vt 0.616057 0.772249 0.0
vt 0.550962 0.729466 0.0
vt 0.583143 0.693306 0.0
vt 0.583143 0.693306 0.0
vt 0.550962 0.729466 0.0
vt 0.616057 0.772249 0.0
vn 0.000000 -1.000000 0.000000
vn 1.000000 0.000000 0.000000
vn -1.000000 0.000000 0.000000
vn 0.998428 -0.056055 0.000000
vn -0.998428 -0.056055 0.000000
vn 0.295877 0.955199 0.000000
vn 0.466170 0.565416 -0.680380
vn -0.555376 0.618946 -0.555376
vn 0.555376 0.618946 -0.555376
vn -0.466170 0.565416 -0.680380
vn -0.295877 0.955199 0.000000
vn 0.498306 0.247932 -0.830744
vn -0.678060 0.283578 -0.678060
vn 0.678060 0.283578 -0.678060
vn -0.498306 0.247932 -0.830744
vn 0.519578 0.031556 -0.853816
vn -0.700552 0.073153 -0.709799
vn 0.700552 0.073153 -0.709799
vn -0.519578 0.031556 -0.853816
vn 0.415784 -0.655477 -0.630421
vn -0.569689 -0.595386 -0.566515
vn 0.569689 -0.595386 -0.566515
vn -0.415784 -0.655477 -0.630421
vn -0.808832 -0.588000 0.000000
vn -0.996643 0.081545 0.000000
vn 0.808832 -0.588000 0.000000
vn 0.996643 0.081545 0.000000
vn -0.958922 0.283578 0.000000
vn 0.958922 0.283578 0.000000
vn -0.785424 0.618946 0.000000
vn 0.785424 0.618946 0.000000
vn -0.555376 0.618946 0.555376
vn 0.555376 0.618946 0.555376
vn -0.678060 0.283578 0.678060
vn 0.678060 0.283578 0.678060
vn -0.700552 0.073153 0.709799
vn 0.700552 0.073153 0.709799
vn -0.570788 -0.593280 0.567614
vn 0.570788 -0.593280 0.567614
vn 0.413923 -0.659322 0.627613
vn 0.519578 0.031556 0.853816
vn -0.413923 -0.659322 0.627613
vn -0.519578 0.031556 0.853816
vn 0.498306 0.247932 0.830744
vn -0.498306 0.247932 0.830744
vn 0.466170 0.565416 0.680380
vn -0.466170 0.565416 0.680380
usemtl (null)
s off
f 15/1/1 1/2/1 35/3/1
f 36/4/1 2/5/1 16/6/1
f 35/7/1 17/8/1 15/9/1
f 16/10/1 18/11/1 36/12/1
f 35/13/1 33/14/1 17/15/1
f 18/16/1 34/17/1 36/18/1
f 7/19/2 25/20/2 41/21/2
f 42/22/3 26/23/3 8/24/3
f 41/25/2 39/26/2 5/27/2 7/28/2
f 6/29/3 40/30/3 42/31/3 8/32/3
f 39/33/2 37/34/2 3/35/2 5/36/2
f 4/37/3 38/38/3 40/39/3 6/40/3
f 1/41/4 3/42/4 37/43/4 35/44/4
f 38/45/5 4/46/5 2/47/5 36/48/5
s 1
f 25/49/6 7/50/7 9/51/8
f 10/52/9 8/53/10 26/54/11
f 7/55/7 5/56/12 11/57/13 9/58/8
f 12/59/14 6/60/15 8/61/10 10/62/9
f 5/63/12 3/64/16 13/65/17 11/66/13
f 14/67/18 4/68/19 6/69/15 12/70/14
f 3/71/16 1/72/20 15/73/21 13/74/17
f 16/75/22 2/76/23 4/77/19 14/78/18
f 13/79/17 15/80/21 17/81/24 19/82/25
f 18/83/26 16/84/22 14/85/18 20/86/27
f 11/87/13 13/88/17 19/89/25 21/90/28
f 20/91/27 14/92/18 12/93/14 22/94/29
f 9/95/8 11/96/13 21/97/28 23/98/30
f 22/99/29 12/100/14 10/101/9 24/102/31
f 25/103/6 9/104/8 23/105/30
f 24/106/31 10/107/9 26/108/11
f 25/109/6 23/110/30 27/111/32
f 28/112/33 24/113/31 26/114/11
f 23/115/30 21/116/28 29/117/34 27/118/32
f 30/119/35 22/120/29 24/121/31 28/122/33
f 21/123/28 19/124/25 31/125/36 29/126/34
f 32/127/37 20/128/27 22/129/29 30/130/35
f 19/131/25 17/132/24 33/133/38 31/134/36
f 34/135/39 18/136/26 20/137/27 32/138/37
f 31/139/36 33/140/38 35/141/40 37/142/41
f 36/143/42 34/144/39 32/145/37 38/146/43
f 29/147/34 31/148/36 37/149/41 39/150/44
f 38/151/43 32/152/37 30/153/35 40/154/45
f 27/155/32 29/156/34 39/157/44 41/158/46
f 40/159/45 30/160/35 28/161/33 42/162/47
f 25/163/6 27/164/32 41/165/46
f 42/166/47 28/167/33 26/168/11
