# Blender3D v247 OBJ File: Marshycomplete.blend
# www.blender3d.org
mtllib bottomcover.mtl
o cover.001_Sphere.015
v 0.000000 -0.094284 -1.127453
v 0.000000 0.727756 -0.873829
v 0.000000 1.757136 -0.046514
v 0.000000 1.564258 -0.494254
v 0.000000 -1.063947 -1.039533
v -0.405784 1.763440 -0.046514
v 0.405784 1.763440 -0.046514
v -0.405783 1.570562 -0.494254
v 0.405783 1.570562 -0.494254
v -0.405783 0.734061 -0.873829
v 0.405783 0.734061 -0.873829
v -0.405783 -0.087980 -1.127453
v 0.405783 -0.087980 -1.127453
v -0.471517 -1.057643 -1.039533
v 0.471517 -1.057643 -1.039533
v -0.471517 -1.057643 -0.046514
v 0.471517 -1.057643 -0.046514
v -0.405783 1.570562 -0.046514
v 0.405783 1.570562 -0.046514
v -0.405783 0.734061 -0.046514
v 0.405783 0.734061 -0.046514
v -0.405783 -0.087980 -0.046514
v 0.405783 -0.087980 -0.046514
v 0.000000 -1.063947 -0.046514
v 0.000000 -1.228413 0.000000
v 0.450870 -0.144005 0.000000
v -0.450870 -0.144005 0.000000
v 0.450870 0.769374 0.000000
v -0.450870 0.769374 0.000000
v 0.450870 1.698820 -0.000000
v -0.450870 1.698820 -0.000000
v 0.523908 -1.221408 0.000000
v -0.523908 -1.221408 0.000000
v 0.523908 -1.221408 -1.103355
v -0.523908 -1.221408 -1.103355
v 0.450871 -0.144005 -1.201043
v -0.450871 -0.144005 -1.201043
v 0.450871 0.769374 -0.919239
v -0.450871 0.769374 -0.919239
v 0.450870 1.698820 -0.497489
v -0.450870 1.698820 -0.497489
v 0.450871 1.913129 0.000000
v -0.450871 1.913129 0.000000
v 0.000000 -1.228413 -1.103355
v 0.000000 1.691815 -0.497489
v 0.000000 1.906124 -0.000000
v 0.000000 0.762369 -0.919239
v 0.000000 -0.151010 -1.201043
vt 0.529133 0.001067 0.0
vt 0.544441 0.029510 0.0
vt 0.544441 0.161712 0.0
vt 0.529133 0.147134 0.0
vt 0.529133 0.001067 0.0
vt 0.611951 0.001067 0.0
vt 0.611527 0.029510 0.0
vt 0.544441 0.029510 0.0
vt 0.690189 0.001067 0.0
vt 0.675662 0.029510 0.0
vt 0.611527 0.029510 0.0
vt 0.611951 0.001067 0.0
vt 0.690189 0.001067 0.0
vt 0.690189 0.149628 0.0
vt 0.675662 0.163716 0.0
vt 0.675662 0.029510 0.0
vt 0.690189 0.288987 0.0
vt 0.675662 0.280994 0.0
vt 0.675662 0.163716 0.0
vt 0.690189 0.149628 0.0
vt 0.690189 0.422175 0.0
vt 0.675662 0.398872 0.0
vt 0.675662 0.280994 0.0
vt 0.690189 0.288987 0.0
vt 0.690189 0.459231 0.0
vt 0.675662 0.432874 0.0
vt 0.675662 0.398872 0.0
vt 0.690189 0.422175 0.0
vt 0.529133 0.459231 0.0
vt 0.529133 0.422848 0.0
vt 0.544441 0.399612 0.0
vt 0.544441 0.432874 0.0
vt 0.529133 0.422848 0.0
vt 0.529133 0.287219 0.0
vt 0.544441 0.279487 0.0
vt 0.544441 0.399612 0.0
vt 0.529133 0.287219 0.0
vt 0.529133 0.147134 0.0
vt 0.544441 0.161712 0.0
vt 0.544441 0.279487 0.0
vt 0.608818 0.166039 0.0
vt 0.635277 0.166421 0.0
vt 0.639394 0.103055 0.0
vt 0.608819 0.102892 0.0
vt 0.608818 0.166039 0.0
vt 0.608819 0.102892 0.0
vt 0.578243 0.103055 0.0
vt 0.582360 0.166420 0.0
vt 0.635277 0.166421 0.0
vt 0.608818 0.166039 0.0
vt 0.608818 0.222155 0.0
vt 0.635293 0.222524 0.0
vt 0.608818 0.222155 0.0
vt 0.608818 0.166039 0.0
vt 0.582360 0.166420 0.0
vt 0.582343 0.222524 0.0
vt 0.635293 0.222524 0.0
vt 0.608818 0.222155 0.0
vt 0.608818 0.282286 0.0
vt 0.635384 0.282529 0.0
vt 0.608818 0.282286 0.0
vt 0.608818 0.222155 0.0
vt 0.582343 0.222524 0.0
vt 0.582251 0.282529 0.0
vt 0.635384 0.282529 0.0
vt 0.608818 0.282286 0.0
vt 0.608818 0.314205 0.0
vt 0.635347 0.314399 0.0
vt 0.608818 0.314205 0.0
vt 0.608818 0.282286 0.0
vt 0.582251 0.282529 0.0
vt 0.582288 0.314399 0.0
vt 0.201261 0.381496 0.0
vt 0.266175 0.381496 0.0
vt 0.201261 0.409460 0.0
vt 0.266175 0.381495 0.0
vt 0.201260 0.381495 0.0
vt 0.201260 0.409459 0.0
vt 0.201261 0.260217 0.0
vt 0.321207 0.260217 0.0
vt 0.266175 0.381496 0.0
vt 0.201261 0.381496 0.0
vt 0.201260 0.141035 0.0
vt 0.357978 0.141035 0.0
vt 0.321207 0.260217 0.0
vt 0.201261 0.260217 0.0
vt 0.201260 0.000128 0.0
vt 0.345231 0.000128 0.0
vt 0.357978 0.141035 0.0
vt 0.201260 0.141035 0.0
vt 0.201260 0.381495 0.0
vt 0.266175 0.381495 0.0
vt 0.321207 0.260217 0.0
vt 0.201260 0.260217 0.0
vt 0.201260 0.260217 0.0
vt 0.321207 0.260217 0.0
vt 0.357978 0.141035 0.0
vt 0.201260 0.141035 0.0
vt 0.201260 0.141035 0.0
vt 0.357978 0.141035 0.0
vt 0.345231 0.000128 0.0
vt 0.201260 0.000128 0.0
vt 0.639394 0.103055 0.0
vt 0.639440 0.038572 0.0
vt 0.608819 0.038550 0.0
vt 0.608819 0.102892 0.0
vt 0.578243 0.103055 0.0
vt 0.608819 0.102892 0.0
vt 0.608819 0.038550 0.0
vt 0.578198 0.038572 0.0
vt 0.660444 0.421065 0.0
vt 0.554234 0.421065 0.0
vt 0.554234 0.370628 0.0
vt 0.660444 0.370628 0.0
vt 0.660444 0.320192 0.0
vt 0.660444 0.370628 0.0
vt 0.554234 0.370628 0.0
vt 0.554234 0.320192 0.0
vt 0.201135 0.180844 0.0
vt 0.201135 0.000000 0.0
vt 0.016360 0.000000 0.0
vt 0.000000 0.180844 0.0
vt 0.201135 0.333805 0.0
vt 0.201135 0.180844 0.0
vt 0.000000 0.180844 0.0
vt 0.047193 0.333805 0.0
vt 0.201135 0.489456 0.0
vt 0.201135 0.333805 0.0
vt 0.047193 0.333805 0.0
vt 0.117822 0.489456 0.0
vt 0.201260 0.000128 0.0
vt 0.201135 0.180972 0.0
vt 0.000000 0.180832 0.0
vt 0.016485 0.000000 0.0
vt 0.201135 0.180972 0.0
vt 0.201029 0.333933 0.0
vt 0.047087 0.333826 0.0
vt 0.000000 0.180832 0.0
vt 0.201029 0.333933 0.0
vt 0.200922 0.489584 0.0
vt 0.117609 0.489527 0.0
vt 0.047087 0.333826 0.0
vt 0.117822 0.489456 0.0
vt 0.201135 0.525346 0.0
vt 0.201135 0.489456 0.0
vt 0.200922 0.489584 0.0
vt 0.200897 0.525474 0.0
vt 0.117609 0.489527 0.0
vt 0.436382 0.553069 0.0
vt 0.367068 0.553576 0.0
vt 0.366971 0.470308 0.0
vt 0.436382 0.469673 0.0
vt 0.505793 0.470308 0.0
vt 0.505696 0.553576 0.0
vt 0.436382 0.553069 0.0
vt 0.436382 0.469673 0.0
vt 0.436382 0.469673 0.0
vt 0.366971 0.470308 0.0
vt 0.367210 0.313532 0.0
vt 0.436382 0.312564 0.0
vt 0.505554 0.313532 0.0
vt 0.505793 0.470308 0.0
vt 0.436382 0.469673 0.0
vt 0.436382 0.312564 0.0
vt 0.367240 0.166950 0.0
vt 0.436382 0.165907 0.0
vt 0.436382 0.312564 0.0
vt 0.367210 0.313532 0.0
vt 0.436382 0.312564 0.0
vt 0.436382 0.165907 0.0
vt 0.505524 0.166950 0.0
vt 0.505554 0.313532 0.0
vt 0.436382 0.165907 0.0
vt 0.367240 0.166950 0.0
vt 0.356048 0.001066 0.0
vt 0.436382 0.000000 0.0
vt 0.436382 0.165907 0.0
vt 0.436382 0.000000 0.0
vt 0.516716 0.001067 0.0
vt 0.505524 0.166950 0.0
vn 0.746903 -0.050633 0.663002
vn 0.003639 0.272143 0.962250
vn -0.003639 0.272143 0.962250
vn -0.746903 -0.050633 0.663002
vn -0.718036 0.000000 0.696006
vn 0.718036 0.000000 0.696006
vn 0.001297 0.090256 0.995918
vn -0.001297 0.090256 0.995918
vn -0.004580 -0.294814 0.955544
vn 0.004580 -0.294814 0.955544
vn -0.006419 -0.413205 0.910615
vn 0.006419 -0.413205 0.910615
vn -0.014267 -0.918315 0.395593
vn 0.014267 -0.918315 0.395593
vn 1.000000 0.000001 0.000000
vn -1.000000 0.000001 0.000000
vn 1.000000 0.000000 0.000000
vn 0.997710 -0.067635 0.000000
vn -1.000000 0.000000 0.000000
vn -0.997710 -0.067635 0.000000
vn 0.013369 0.999911 0.000000
vn -0.013369 0.999911 0.000000
vn 0.013369 -0.999911 0.000000
vn -0.013369 -0.999911 0.000000
vn 0.365184 0.011750 0.930845
vn 0.279031 -0.457778 0.844111
vn 0.593616 -0.580004 -0.557817
vn 0.646199 0.101199 -0.756401
vn 0.375469 0.000000 0.926817
vn 0.679861 0.260140 -0.685629
vn 0.586383 0.578600 -0.566851
vn -0.279031 -0.457778 0.844111
vn -0.365184 0.011750 0.930845
vn -0.646199 0.101199 -0.756401
vn -0.593616 -0.580004 -0.557817
vn -0.375469 0.000000 0.926817
vn -0.679861 0.260140 -0.685629
vn -0.586383 0.578600 -0.566851
vn 0.777276 0.515610 0.360515
vn -0.777276 0.515610 0.360515
vn 0.000000 0.918393 -0.395611
vn 0.000000 0.716636 -0.697409
vn 0.000000 0.355510 -0.934660
vn 0.000000 0.105869 -0.994354
vn 0.000000 -0.743248 -0.668996
usemtl (null)
s off
f 33/1/1 16/2/1 22/3/1 27/4/1
f 33/5/2 25/6/2 24/7/2 16/8/2
f 32/9/3 17/10/3 24/11/3 25/12/3
f 32/13/4 26/14/4 23/15/4 17/16/4
f 28/17/5 21/18/5 23/19/5 26/20/5
f 30/21/5 19/22/5 21/23/5 28/24/5
f 42/25/5 7/26/5 19/27/5 30/28/5
f 43/29/6 31/30/6 18/31/6 6/32/6
f 31/33/6 29/34/6 20/35/6 18/36/6
f 29/37/6 27/38/6 22/39/6 20/40/6
f 1/41/7 12/42/7 14/43/7 5/44/7
f 1/45/8 5/46/8 15/47/8 13/48/8
f 12/49/9 1/50/9 2/51/9 10/52/9
f 2/53/10 1/54/10 13/55/10 11/56/10
f 10/57/11 2/58/11 4/59/11 8/60/11
f 4/61/12 2/62/12 11/63/12 9/64/12
f 8/65/13 4/66/13 3/67/13 6/68/13
f 3/69/14 4/70/14 9/71/14 7/72/14
f 18/73/15 8/74/15 6/75/15
f 9/76/16 19/77/16 7/78/16
f 20/79/17 10/80/17 8/81/17 18/82/17
f 22/83/17 12/84/17 10/85/17 20/86/17
f 16/87/18 14/88/18 12/89/18 22/90/18
f 19/91/19 9/92/19 11/93/19 21/94/19
f 21/95/19 11/96/19 13/97/19 23/98/19
f 23/99/20 13/100/20 15/101/20 17/102/20
f 14/103/21 16/104/21 24/105/21 5/106/21
f 15/107/22 5/108/22 24/109/22 17/110/22
f 34/111/23 32/112/23 25/113/23 44/114/23
f 35/115/24 44/116/24 25/117/24 33/118/24
s 1
f 26/119/25 32/120/26 34/121/27 36/122/28
f 28/123/29 26/124/25 36/125/28 38/126/30
f 30/127/29 28/128/29 38/129/30 40/130/31
f 33/131/32 27/132/33 37/133/34 35/134/35
f 27/135/33 29/136/36 39/137/37 37/138/34
f 29/139/36 31/140/36 41/141/38 39/142/37
f 40/143/31 42/144/39 30/145/29
f 31/146/36 43/147/40 41/148/38
f 46/149/41 42/150/39 40/151/31 45/152/42
f 41/153/38 43/154/40 46/155/41 45/156/42
f 45/157/42 40/158/31 38/159/30 47/160/43
f 39/161/37 41/162/38 45/163/42 47/164/43
f 36/165/28 48/166/44 47/167/43 38/168/30
f 47/169/43 48/170/44 37/171/34 39/172/37
f 48/173/44 36/174/28 34/175/27 44/176/45
f 48/177/44 44/178/45 35/179/35 37/180/34
