# Exported from Wings 3D 0.99.00b
mtllib seitenturm.mtl
o cube1
#80 vertices, 156 faces
v -0.11038699 6.1160376e-2 -1.1102230e-16
v -0.11038699 -6.1160376e-2 -1.1102230e-16
v 0.19989205 -6.1160376e-2 6.1243127e-2
v 0.19989205 6.1160376e-2 6.1243127e-2
v -0.11038699 6.1160376e-2 0.11142220
v -0.11038699 -6.1160376e-2 0.11142220
v -4.3218560e-2 6.1160376e-2 0.14391794
v 7.8336744e-2 6.1160376e-2 0.13544913
v 7.8336744e-2 -6.1160376e-2 0.13544913
v -4.3218560e-2 -6.1160376e-2 0.14391794
v -0.11038699 -6.1160376e-2 6.0422857e-2
v -0.11038699 6.1160376e-2 6.0422857e-2
v -0.16222050 -5.2353282e-2 5.9420307e-2
v -0.16222050 5.2353282e-2 5.9420307e-2
v -0.18913256 5.2353282e-2 -1.1102230e-16
v -0.18913256 -5.2353282e-2 -1.1102230e-16
v 0.22581049 2.0386792e-2 -1.1102230e-16
v 0.22581049 -2.0386792e-2 -1.1102230e-16
v 0.19989205 2.0386792e-2 8.6018105e-2
v 0.19989205 -2.0386792e-2 8.6018105e-2
v -0.11038699 -2.0386792e-2 0.13619718
v -0.11038699 2.0386792e-2 0.13619718
v 7.8336744e-2 -2.0386792e-2 0.16022410
v 7.8336744e-2 2.0386792e-2 0.16022410
v -4.3218560e-2 -2.0386792e-2 0.16869292
v -4.3218560e-2 2.0386792e-2 0.16869292
v -0.11038699 -2.0386792e-2 9.7301368e-2
v -0.11038699 2.0386792e-2 9.7301368e-2
v -0.15014839 2.0386792e-2 8.5999876e-2
v -0.15014839 -2.0386792e-2 8.5999876e-2
v 0.22581049 -2.0386792e-2 4.5439509e-2
v 0.22581049 2.0386792e-2 4.5439509e-2
v 0.19989205 -6.1160376e-2 4.4435140e-2
v 0.19989205 6.1160376e-2 4.4435140e-2
v 9.4826273e-2 6.1160376e-2 -1.1102230e-16
v 9.4826273e-2 -6.1160376e-2 4.8432070e-2
v 9.4826273e-2 6.1160376e-2 4.8432070e-2
v 9.4826273e-2 -6.1160376e-2 -1.1102230e-16
v 9.4826273e-2 5.1160376e-2 -1.1102230e-16
v 9.4826273e-2 5.1160376e-2 4.8432070e-2
v 0.19989205 5.1160376e-2 4.4435140e-2
v 0.19989205 5.1160376e-2 -1.1102230e-16
v 9.4826273e-2 -5.1160376e-2 -1.1102230e-16
v 0.19989205 -5.1160376e-2 -1.1102230e-16
v 0.19989205 -5.1160376e-2 4.4435140e-2
v 9.4826273e-2 -5.1160376e-2 4.8432070e-2
v 0.19989205 -6.1160376e-2 -6.1243127e-2
v 0.19989205 6.1160376e-2 -6.1243127e-2
v -0.11038699 6.1160376e-2 -0.11142220
v -0.11038699 -6.1160376e-2 -0.11142220
v -4.3218560e-2 6.1160376e-2 -0.14391794
v 7.8336744e-2 6.1160376e-2 -0.13544913
v 7.8336744e-2 -6.1160376e-2 -0.13544913
v -4.3218560e-2 -6.1160376e-2 -0.14391794
v -0.11038699 -6.1160376e-2 -6.0422857e-2
v -0.11038699 6.1160376e-2 -6.0422857e-2
v -0.16222050 -5.2353282e-2 -5.9420307e-2
v -0.16222050 5.2353282e-2 -5.9420307e-2
v 0.19989205 2.0386792e-2 -8.6018105e-2
v 0.19989205 -2.0386792e-2 -8.6018105e-2
v -0.11038699 -2.0386792e-2 -0.13619718
v -0.11038699 2.0386792e-2 -0.13619718
v 7.8336744e-2 -2.0386792e-2 -0.16022410
v 7.8336744e-2 2.0386792e-2 -0.16022410
v -4.3218560e-2 -2.0386792e-2 -0.16869292
v -4.3218560e-2 2.0386792e-2 -0.16869292
v -0.11038699 -2.0386792e-2 -9.7301368e-2
v -0.11038699 2.0386792e-2 -9.7301368e-2
v -0.15014839 2.0386792e-2 -8.5999876e-2
v -0.15014839 -2.0386792e-2 -8.5999876e-2
v 0.22581049 -2.0386792e-2 -4.5439509e-2
v 0.22581049 2.0386792e-2 -4.5439509e-2
v 0.19989205 -6.1160376e-2 -4.4435140e-2
v 0.19989205 6.1160376e-2 -4.4435140e-2
v 9.4826273e-2 -6.1160376e-2 -4.8432070e-2
v 9.4826273e-2 6.1160376e-2 -4.8432070e-2
v 9.4826273e-2 5.1160376e-2 -4.8432070e-2
v 0.19989205 5.1160376e-2 -4.4435140e-2
v 0.19989205 -5.1160376e-2 -4.4435140e-2
v 9.4826273e-2 -5.1160376e-2 -4.8432070e-2
vt 0.14575628 0.26115117
vt 0.14583600 0.26122329
vt 0.16171472 0.31729068
vt 0.16178305 0.31719871
vt 0.21610055 0.25303428
vt 0.21614062 0.25299078
vt 0.21650422 0.32699389
vt 0.21656438 0.32706405
vt 0.51557790 5.8539590e-2
vt 0.51569369 3.2578814e-2
vt 0.53007158 0.40595297
vt 0.53031213 0.44417817
vt 0.53066244 0.44461453
vt 0.53072982 0.40627391
vt 0.54623505 5.8676327e-2
vt 0.54635084 3.2715551e-2
vt 0.61894021 0.44421401
vt 0.61917567 0.40583136
vt 0.61952141 0.44476070
vt 0.61958323 0.40614749
vt 0.63675073 8.9310062e-2
vt 0.63691193 5.9080765e-2
vt 0.63702772 3.3119989e-2
vt 0.63713732 2.6338613e-3
vt 0.65285283 0.44460528
vt 0.65300529 0.40617525
vt 0.65354920 0.44481668
vt 0.65361242 0.40638639
vt 0.68796987 0.44448581
vt 0.68812233 0.40605577
vt 0.71425095 8.9656096e-2
vt 0.71449450 5.9426799e-2
vt 0.71461029 3.3466023e-2
vt 0.71463755 2.9798956e-3
vt 0.76200304 5.9638697e-2
vt 0.76211883 3.3677921e-2
vt 0.78676822 5.9749155e-2
vt 0.78688401 3.3788379e-2
vt 0.81308731 5.9866544e-2
vt 0.81320310 3.3905768e-2
vt 0.94033573 7.5487987e-2
vt 0.94033574 1.8755209e-2
vt 0.95414296 0.87211316
vt 0.95547999 0.87011500
vt 0.95586019 0.87299867
vt 0.95606716 0.87269440
vt 0.95622697 0.87204438
vt 0.96048344 0.87290676
vt 0.96048640 0.87533598
vt 0.96094779 0.87339003
vt 0.96098501 0.87290615
vt 0.96098797 0.87533537
vt 0.96117727 0.86650614
vt 0.96182475 0.86867071
vt 0.96790981 0.86820846
vt 0.96870428 0.86598929
vt 0.97018734 0.87326827
vt 0.97100821 0.86991692
vt 0.97127718 0.87229217
vt 0.97128088 0.87532281
vt 0.97187810 0.86791803
vt 0.97215730 0.87086176
vt 0.97293937 0.86983095
vt 0.97367353 0.86880153
vt 0.97383468 0.87425228
vt 0.97391432 0.87233924
vt 0.97458903 0.87147202
vt 0.97512143 0.86730904
vt 0.97525516 0.87532365
vt 0.97542442 0.86935895
vt 0.97567939 7.5487993e-2
vt 0.97567940 1.8755215e-2
vt 0.97851192 0.86632550
vt 0.97869111 0.86855886
vt 0.98327721 0.87681426
vt 0.98373735 0.87693910
vt 0.98379612 0.87503901
vt 0.98388186 0.87458574
vt 0.98416074 0.87049086
vt 0.98434200 0.87471059
vt 0.98529127 0.86866491
vt 0.98844737 0.87561000
vt 0.98846178 0.87497389
vt 0.98856190 0.87594051
vt 0.98962535 0.87338842
vt 0.99035720 0.87555340
vt 0.99149673 5.8167708e-2
vt 0.99149673 3.6075505e-2
vn -6.9836618e-2 0.99755844 -1.9138635e-17
vn -5.5660985e-2 -0.99844973 0.0000000e+0
vn 0.49396135 -0.83097309 0.25590213
vn 0.49396135 0.83097309 0.25590213
vn -0.73938400 0.52421345 0.42250627
vn -0.63589128 -0.68088648 0.36336742
vn -7.4435095e-2 0.92239490 0.37900800
vn 0.20042867 0.75979196 0.61850183
vn 0.22947827 -0.80160889 0.55205336
vn -0.10728586 -0.83070508 0.54627723
vn -0.33147042 -0.92158963 0.20198989
vn -0.26511962 0.95237819 0.15062329
vn -0.75334757 -0.39696901 0.52429290
vn -0.61843021 0.59136372 0.51752588
vn -0.71734624 0.69671685 -5.2604064e-16
vn -0.72842282 -0.68512787 -5.0990431e-16
vn 0.93937856 0.34288180 0.0000000e+0
vn 0.93937856 -0.34288180 0.0000000e+0
vn 0.76033380 0.21887067 0.61154570
vn 0.71413483 -0.22011083 0.66450182
vn -0.84857040 -0.14452471 0.50896058
vn -0.84857040 0.14452471 0.50896058
vn 0.21944329 -0.26462944 0.93905053
vn 0.34632509 0.20749740 0.91487910
vn -0.18400555 -0.26672627 0.94604390
vn -0.18400555 0.26672627 0.94604390
vn -0.80759611 -0.21377108 0.54962755
vn -0.80078487 0.20220608 0.56378745
vn -0.65978942 0.16263699 0.73363965
vn -0.40270967 -0.28572377 0.86959005
vn 0.95537682 -0.28211618 8.7553397e-2
vn 0.94892653 0.31548234 3.0558542e-3
vn 0.50240052 -0.43737346 -0.74585399
vn 0.63303624 0.53905678 -0.55559239
vn 0.70710678 0.70710678 0.0000000e+0
vn 0.18539538 -0.96360812 -0.19258232
vn 0.29105709 0.90767629 -0.30234007
vn 0.70710678 -0.70710678 0.0000000e+0
vn 0.70710678 0.70710678 0.0000000e+0
vn 0.56257696 0.58480825 -0.58438554
vn 0.31798571 0.70064605 -0.63873328
vn 0.42178690 0.90669499 0.0000000e+0
vn 0.70710678 -0.70710678 0.0000000e+0
vn 0.42178690 -0.90669499 0.0000000e+0
vn 0.28367001 -0.60922831 -0.74052157
vn 0.56257696 -0.58480825 -0.58438554
vn 0.51490818 -0.75494571 -0.40611150
vn 0.49396135 0.83097309 -0.25590213
vn -0.73938400 0.52421345 -0.42250627
vn -0.63589128 -0.68088648 -0.36336742
vn -7.4435095e-2 0.92239490 -0.37900800
vn 0.20042867 0.75979196 -0.61850183
vn 0.15234255 -0.86935919 -0.47011312
vn -0.10728586 -0.83070508 -0.54627723
vn -0.33147042 -0.92158963 -0.20198989
vn -0.26511962 0.95237819 -0.15062329
vn -0.67269786 -0.50754873 -0.53839751
vn -0.68411275 0.51478000 -0.51671200
vn 0.73508499 0.19115247 -0.65046968
vn 0.68809682 -0.20199033 -0.69693807
vn -0.84857040 -0.14452471 -0.50896058
vn -0.84857040 0.14452471 -0.50896058
vn 0.29544087 -0.25991282 -0.91932585
vn 0.29544087 0.25991282 -0.91932585
vn -0.18400555 -0.26672627 -0.94604390
vn -0.18400555 0.26672627 -0.94604390
vn -0.80759611 -0.21377108 -0.54962755
vn -0.80078487 0.20220608 -0.56378745
vn -0.53242078 0.21609406 -0.81843232
vn -0.51808706 -0.24328487 -0.81999894
vn 0.95211198 -0.29474790 -8.1280102e-2
vn 0.94892653 0.31548234 -3.0558542e-3
vn 0.23286898 -0.44357085 0.86545765
vn 0.63303624 0.53905678 0.55559239
vn 0.18539538 -0.96360812 0.19258232
vn 0.29105709 0.90767629 0.30234007
vn 0.56257696 0.58480825 0.58438554
vn 0.31798571 0.70064605 0.63873328
vn 0.28367001 -0.60922831 0.74052157
vn 0.56257696 -0.58480825 0.58438554
g cube1_cube1_auv
usemtl cube1_auv
f 1/65/1 14/62/14 12/67/12
f 1/65/1 58/62/58 15/57/15
f 1/65/1 76/78/76 56/67/56
f 2/60/2 38/52/38 11/59/11
f 2/60/2 55/59/55 38/52/38
f 3/47/3 20/44/20 9/54/9
f 3/47/3 33/46/33 20/44/20
f 3/47/3 36/51/36 33/46/33
f 4/83/4 8/79/8 19/85/19
f 4/83/4 37/78/37 8/79/8
f 5/70/5 26/73/26 7/74/7
f 5/70/5 28/64/28 22/68/22
f 6/58/6 10/55/10 21/61/21
f 6/58/6 11/59/11 10/55/10
f 7/74/7 12/67/12 5/70/5
f 7/31/7 26/32/26 8/21/8
f 8/21/8 26/32/26 24/22/24
f 8/79/8 37/78/37 7/74/7
f 9/54/9 20/44/20 23/53/23
f 9/24/9 23/23/23 10/34/10
f 9/54/9 36/51/36 3/47/3
f 10/34/10 23/23/23 25/33/25
f 10/55/10 36/51/36 9/54/9
f 11/59/11 16/69/16 2/60/2
f 11/59/11 21/61/21 27/63/27
f 11/5/11 30/4/30 13/1/13
f 12/67/12 7/74/7 37/78/37
f 12/67/12 28/64/28 5/70/5
f 12/67/12 37/78/37 1/65/1
f 13/72/13 14/71/14 16/42/16
f 13/66/13 16/69/16 11/59/11
f 14/62/14 1/65/1 15/57/15
f 14/71/14 13/72/13 29/87/29
f 14/2/14 28/7/28 12/6/12
f 15/41/15 16/42/16 14/71/14
f 15/41/15 58/71/58 16/42/16
f 16/69/16 55/59/55 2/60/2
f 16/42/16 58/71/58 57/72/57
f 17/25/17 31/30/31 18/29/18
f 17/25/17 41/18/41 32/26/32
f 17/25/17 71/30/71 72/26/72
f 17/25/17 78/18/78 42/17/42
f 18/29/18 71/30/71 17/25/17
f 19/15/19 24/22/24 20/16/20
f 19/15/19 31/10/31 32/9/32
f 19/85/19 34/82/34 4/83/4
f 20/16/20 31/10/31 19/15/19
f 20/44/20 33/46/33 31/43/31
f 21/61/21 11/59/11 6/58/6
f 21/36/21 26/32/26 22/35/22
f 22/68/22 26/73/26 5/70/5
f 22/35/22 28/37/28 21/36/21
f 23/23/23 20/16/20 24/22/24
f 24/81/24 19/85/19 8/79/8
f 24/22/24 26/32/26 23/23/23
f 25/56/25 21/61/21 10/55/10
f 25/33/25 23/23/23 26/32/26
f 26/32/26 21/36/21 25/33/25
f 27/38/27 21/36/21 28/37/28
f 27/8/27 30/4/30 11/5/11
f 28/37/28 30/40/30 27/38/27
f 29/87/29 13/72/13 30/88/30
f 29/3/29 28/7/28 14/2/14
f 30/40/30 28/37/28 29/39/29
f 31/28/31 44/19/44 18/27/18
f 32/26/32 31/30/31 17/25/17
f 32/86/32 34/82/34 19/85/19
f 32/86/32 41/84/41 34/82/34
f 33/46/33 45/45/45 31/43/31
f 34/82/34 37/78/37 4/83/4
f 34/82/34 41/84/41 37/78/37
f 35/75/35 1/65/1 37/78/37
f 35/75/35 76/78/76 1/65/1
f 36/51/36 10/55/10 11/59/11
f 36/51/36 11/59/11 38/52/38
f 36/51/36 46/50/46 33/46/33
f 37/78/37 39/76/39 35/75/35
f 38/52/38 46/48/46 36/51/36
f 38/52/38 55/59/55 75/51/75
f 38/52/38 80/48/80 43/49/43
f 39/76/39 37/78/37 40/80/40
f 39/76/39 76/78/76 35/75/35
f 39/12/39 78/18/78 77/11/77
f 40/77/40 37/78/37 41/84/41
f 40/11/40 41/18/41 39/12/39
f 41/18/41 17/25/17 42/17/42
f 42/17/42 39/12/39 41/18/41
f 42/17/42 78/18/78 39/12/39
f 43/49/43 46/48/46 38/52/38
f 43/13/43 80/14/80 44/19/44
f 44/19/44 31/28/31 45/20/45
f 44/19/44 46/14/46 43/13/43
f 44/19/44 71/28/71 18/27/18
f 44/19/44 80/14/80 79/20/79
f 45/45/45 33/46/33 46/50/46
f 45/20/45 46/14/46 44/19/44
f 47/47/47 63/53/63 60/44/60
f 47/47/47 71/43/71 73/46/73
f 47/47/47 75/51/75 53/54/53
f 48/83/48 74/82/74 59/85/59
f 48/83/48 76/78/76 74/82/74
f 49/70/49 56/67/56 51/74/51
f 49/70/49 66/73/66 62/68/62
f 49/70/49 68/64/68 56/67/56
f 50/58/50 55/59/55 61/61/61
f 51/74/51 66/73/66 49/70/49
f 51/74/51 76/78/76 52/79/52
f 52/79/52 59/85/59 64/81/64
f 52/21/52 66/32/66 51/31/51
f 52/79/52 76/78/76 48/83/48
f 53/54/53 63/53/63 47/47/47
f 53/54/53 75/51/75 54/55/54
f 54/55/54 55/59/55 50/58/50
f 54/55/54 61/61/61 65/56/65
f 54/34/54 63/23/63 53/24/53
f 55/59/55 16/69/16 57/66/57
f 55/59/55 54/55/54 75/51/75
f 55/5/55 70/4/70 67/8/67
f 56/67/56 58/62/58 1/65/1
f 56/6/56 68/7/68 58/2/58
f 57/72/57 58/71/58 70/88/70
f 57/1/57 70/4/70 55/5/55
f 58/2/58 68/7/68 69/3/69
f 59/85/59 52/79/52 48/83/48
f 59/15/59 71/10/71 60/16/60
f 59/85/59 74/82/74 72/86/72
f 60/16/60 63/23/63 59/15/59
f 60/44/60 71/43/71 47/47/47
f 61/61/61 54/55/54 50/58/50
f 61/36/61 68/37/68 62/35/62
f 62/35/62 66/32/66 61/36/61
f 62/68/62 68/64/68 49/70/49
f 63/23/63 66/32/66 64/22/64
f 64/22/64 59/15/59 63/23/63
f 64/22/64 66/32/66 52/21/52
f 65/33/65 61/36/61 66/32/66
f 65/33/65 63/23/63 54/34/54
f 66/32/66 63/23/63 65/33/65
f 67/63/67 61/61/61 55/59/55
f 67/38/67 70/40/70 68/37/68
f 68/37/68 61/36/61 67/38/67
f 69/39/69 68/37/68 70/40/70
f 69/87/69 70/88/70 58/71/58
f 71/43/71 79/45/79 73/46/73
f 72/9/72 71/10/71 59/15/59
f 72/26/72 78/18/78 17/25/17
f 73/46/73 75/51/75 47/47/47
f 73/46/73 80/50/80 75/51/75
f 74/82/74 78/84/78 72/86/72
f 75/51/75 80/48/80 38/52/38
f 76/78/76 51/74/51 56/67/56
f 76/78/76 78/84/78 74/82/74
f 77/80/77 76/78/76 39/76/39
f 78/84/78 76/78/76 77/77/77
f 79/20/79 71/28/71 44/19/44
f 80/50/80 73/46/73 79/45/79
