# Exported from Wings 3D 0.99.00b
mtllib turmoben.mtl
o cube1_sep10
#81 vertices, 158 faces
v -6.1448105e-2 0.49712070 0.10985287
v -0.11653101 0.53434082 0.10985287
v 0.10135496 0.49712070 0.10985287
v -8.9045801e-2 0.49712070 1.6386309e-6
v -0.14412870 0.53434082 1.6386309e-6
v 0.21686343 0.54495868 1.8226454e-6
v 0.12295509 0.49709698 1.5404260e-6
v -0.14412870 0.53434082 5.8480192e-2
v -8.9045801e-2 0.49712070 5.8480192e-2
v 4.7776757e-2 0.53508638 0.10985287
v 6.0578098e-2 0.53508638 4.4508575e-2
v 0.19833593 0.53533158 4.4508679e-2
v 4.8026133e-2 0.53508638 5.9558097e-2
v 0.12337886 0.49712866 4.4508608e-2
v 5.2768094e-2 0.60559991 -1.2957101e-5
v 4.8671904e-2 0.60679395 4.4525030e-2
v 0.19827939 0.58622672 4.4495452e-2
v 0.21696829 0.58481402 1.7189416e-5
v -0.10068338 0.60616118 5.8480192e-2
v 3.5783570e-2 0.59030105 0.10985287
v 3.6032946e-2 0.60616118 5.9558097e-2
v 0.13439690 0.53508638 4.4508575e-2
v 0.11236894 0.53508638 0.10985287
v -0.11653101 0.56232094 0.10985287
v -0.14412870 0.57025100 5.8480192e-2
v -7.0555407e-2 0.53458934 0.10985287
v 1.2614927e-2 0.53483786 0.10985287
v 1.2614927e-2 0.59030105 0.10985287
v -7.0555407e-2 0.59030105 0.10985287
v 1.2614927e-2 0.60616118 5.9198796e-2
v -7.0555407e-2 0.60616118 5.8839494e-2
v 1.4917447e-3 0.59030105 0.14227260
v -5.9606155e-2 0.59030105 0.14227260
v -5.9606155e-2 0.53458934 0.14227260
v 1.4917447e-3 0.53483786 0.14227260
v 1.4917447e-3 0.60616118 9.1618529e-2
v -5.9606155e-2 0.60616118 9.1259227e-2
v 0.21686341 0.58405115 2.9907537e-2
v 0.21691354 0.54486037 2.9911602e-2
v -0.17109170 0.57025100 5.8480192e-2
v -0.17109170 0.57025100 1.6386309e-6
v -0.12764638 0.60616118 5.8480192e-2
v -0.12764638 0.60616118 1.6386309e-6
v -0.17109170 0.53434082 1.6386309e-6
v -0.17109170 0.53434082 5.8480192e-2
v -6.1446110e-2 0.49711305 -0.10984642
v -0.11652901 0.53433317 -0.10985001
v 0.10135695 0.49711305 -0.10984346
v -0.14412764 0.53433675 -5.8477831e-2
v -8.9044739e-2 0.49711663 -5.8474239e-2
v 4.7778751e-2 0.53507874 -0.10984708
v 6.0578906e-2 0.53508329 -4.4502548e-2
v 0.19833673 0.53532848 -4.4500168e-2
v 4.8027215e-2 0.53508224 -5.9552299e-2
v 0.12337967 0.49712557 -4.4498798e-2
v 4.8672712e-2 0.60679085 -4.4524212e-2
v 0.19828020 0.58622362 -4.4490486e-2
v -0.10068232 0.60615711 -5.8482043e-2
v 3.5785564e-2 0.59029340 -0.10985114
v 3.6034028e-2 0.60615703 -5.9557465e-2
v 0.13439771 0.53508329 -4.4501208e-2
v 0.11237093 0.53507874 -0.10984590
v -0.11652901 0.56231329 -0.10985196
v -0.14412764 0.57024693 -5.8480331e-2
v -7.0553412e-2 0.53458169 -0.10984919
v 1.2616922e-2 0.53483022 -0.10984770
v 1.2616922e-2 0.59029340 -0.10985156
v -7.0553412e-2 0.59029340 -0.10985307
v 1.2616002e-2 0.60615706 -5.9198589e-2
v -7.0554339e-2 0.60615708 -5.8840797e-2
v 1.4943280e-3 0.59029114 -0.14227149
v -5.9603571e-2 0.59029114 -0.14227260
v -5.9603571e-2 0.53457944 -0.14226872
v 1.4943280e-3 0.53482796 -0.14226763
v 1.4934083e-3 0.60615480 -9.1618524e-2
v -5.9604498e-2 0.60615482 -9.1260332e-2
v 0.21686396 0.58404906 -2.9902083e-2
v 0.21691408 0.54485828 -2.9903417e-2
v -0.17109064 0.57024693 -5.8480821e-2
v -0.12764532 0.60615711 -5.8482532e-2
v -0.17109064 0.53433675 -5.8478320e-2
vt 0.25823180 0.31587081
vt 0.27009765 0.23992075
vt 0.27128997 0.21269668
vt 0.27142093 0.22791633
vt 0.29136745 0.22825588
vt 0.29157494 0.21303213
vt 0.29483842 0.31048136
vt 0.29552833 0.27291150
vt 0.29600110 0.24036763
vt 0.40557163 0.52679374
vt 0.40559337 0.57789013
vt 0.42913090 0.52678371
vt 0.45545547 0.52645818
vt 0.46501005 0.49812681
vt 0.51839500 0.49778936
vt 0.52812650 0.52611224
vt 0.54545342 0.30963252
vt 0.54575337 0.34329000
vt 0.54622418 0.39611934
vt 0.54858790 0.52577367
vt 0.55964736 0.53890718
vt 0.56323364 0.57783616
vt 0.60026353 0.30914406
vt 0.60056348 0.34280154
vt 0.60103429 0.39563088
vt 0.62553510 0.30891884
vt 0.62583505 0.34257632
vt 0.68019309 0.30843174
vt 0.68042680 0.33465662
vt 0.69159783 0.53927731
vt 0.69528333 0.38011308
vt 0.69541604 0.41837385
vt 0.69544322 0.33903667
vt 0.70785026 0.57819272
vt 0.70791286 0.55206705
vt 0.71517729 0.41821457
vt 0.71518160 0.30909331
vt 0.71523784 0.33894672
vt 0.71532925 0.38044807
vt 0.77155427 0.33805185
vt 0.77183716 0.30902544
vt 0.77187411 0.38005027
vt 0.77196035 0.41861100
vt 0.79126156 0.33801129
vt 0.79128358 0.41843067
vt 0.79135774 0.38005578
vt 0.96558188 0.85618736
vt 0.96558188 0.85991239
vt 0.96685123 0.86438168
vt 0.96799032 0.85541797
vt 0.96946655 0.86906274
vt 0.96950367 0.87296159
vt 0.97010527 0.86450337
vt 0.97030806 0.86568817
vt 0.97083480 0.86187158
vt 0.97139586 0.86333854
vt 0.97170269 0.85622044
vt 0.97170269 0.86363743
vt 0.97170479 0.86223548
vt 0.97177760 0.86020143
vt 0.97179685 0.86772148
vt 0.97181283 0.86350385
vt 0.97182032 0.86748581
vt 0.97245060 0.86998502
vt 0.97299988 0.85742547
vt 0.97303308 0.86412130
vt 0.97381548 0.86494047
vt 0.97458880 0.86155528
vt 0.97470414 0.86612487
vt 0.97599232 0.86470926
vt 0.97680009 0.85457013
vt 0.97695535 0.86915470
vt 0.97847150 0.86016679
vt 0.97848086 0.86480646
vt 0.97851323 0.86976003
vt 0.97888925 0.87189681
vt 0.97907468 0.86483275
vt 0.97920765 0.85926610
vt 0.97926840 0.85745139
vt 0.98046277 0.86840700
vt 0.98051456 0.86138763
vt 0.98086115 0.86240013
vt 0.98086115 0.87018548
vt 0.98106364 0.85987755
vt 0.98112027 0.86955187
vt 0.98126036 0.86913718
vt 0.98159914 0.85742547
vt 0.98200708 0.87193299
vt 0.98215810 0.86491368
vt 0.98235961 0.86224017
vt 0.98305333 0.86495269
vt 0.98394708 0.85760728
vt 0.98440526 0.86912578
vt 0.98445078 0.86240013
vt 0.98445078 0.87018548
vt 0.98453176 0.86612487
vt 0.98565751 0.86333854
vt 0.98575921 0.86215055
vt 0.98578928 0.86153423
vt 0.98585260 0.86745946
vt 0.98718020 0.86145647
vt 0.98787394 0.86416851
vt 0.98807509 0.87296158
vt 0.98807509 0.86783882
vt 0.99239960 0.86433110
vn -0.10619099 -0.75139427 0.65125273
vn -0.50899772 -0.28500134 0.81221645
vn 0.42196107 -0.35335497 0.83491863
vn -0.14471581 -0.98947326 3.3121816e-5
vn -0.29276664 -0.95618392 3.0631446e-5
vn 0.85249244 -0.52273956 2.6595929e-5
vn 0.31030392 -0.95063740 3.6063103e-5
vn -0.53053883 -0.70365209 0.47265451
vn -0.45560103 -0.88209593 0.11972667
vn 0.28874429 0.35819897 0.88787400
vn 0.27320353 0.76248645 0.58649317
vn 0.50390998 -0.51816933 0.69106822
vn 0.76244276 0.57674087 0.29334451
vn 0.29955226 -0.91027445 0.28577767
vn 3.9333314e-2 0.99922615 -3.0577035e-5
vn 0.33244922 0.66359093 0.67016759
vn 0.24054876 0.70438896 0.66781171
vn 0.53746952 0.84328317 -1.6164196e-5
vn -0.10911816 0.92547523 0.36275175
vn 0.48710328 0.56908061 0.66247841
vn 0.57401219 0.74297385 0.34423811
vn 0.36649104 9.4199630e-2 0.92564072
vn 0.28857073 0.86375531 0.41310252
vn -0.55995984 0.32487944 0.76216687
vn -0.41973291 0.21808034 0.88105916
vn -0.26287654 -0.27834069 0.92380863
vn 0.30203924 -0.31813353 0.89864529
vn 0.54060893 0.56467692 0.62360401
vn -0.59366136 0.53682580 0.59948665
vn 0.15029340 0.98086819 0.12373149
vn -0.13984188 0.98452701 0.10559742
vn 0.54047747 0.56495001 0.62347060
vn -0.54300272 0.56477826 0.62142865
vn -0.49515987 -0.52458714 0.69254967
vn 0.49651277 -0.52267141 0.69302934
vn 0.23371906 0.95414733 0.18702477
vn -0.23600380 0.95379960 0.18592612
vn 0.87310760 0.25659584 0.41453793
vn 0.86833303 -0.37254317 0.32742836
vn -0.60699098 0.28578496 0.74154495
vn -0.90473706 0.42597048 -2.3043031e-5
vn -0.36656138 0.73115847 0.57536080
vn -0.22304778 0.97480751 -3.5964848e-5
vn -0.70710678 -0.70710678 1.8198084e-5
vn -0.57735027 -0.57735027 0.57735027
vn -0.10617916 -0.75143962 -0.65120234
vn -0.50898297 -0.28505789 -0.81220584
vn 0.24984425 -0.34595319 -0.90437506
vn -0.53053025 -0.70368500 -0.47261515
vn -0.45559886 -0.88210426 -0.11967352
vn 0.28876041 0.35813715 -0.88789369
vn 0.27321418 0.76244562 -0.58654130
vn 0.50392256 -0.51821760 -0.69102285
vn 0.76244809 0.57672045 -0.29337083
vn 0.43621863 -0.84537425 -0.30831101
vn 0.33246129 0.66354695 -0.67020514
vn 0.24055977 0.70434818 -0.66785076
vn -0.10911155 0.92545025 -0.36281746
vn 0.48711531 0.56903448 -0.66250919
vn 0.57401844 0.74294988 -0.34427942
vn 0.20470209 0.16451694 -0.96489959
vn 0.52643621 0.71142664 -0.46555027
vn -0.55994600 0.32482637 -0.76219965
vn -0.41971692 0.21801899 -0.88108197
vn -0.26285977 -0.27840502 -0.92379402
vn 0.30205556 -0.31819611 -0.89861765
vn 0.54062025 0.56463350 -0.62363351
vn -0.59365048 0.53678406 -0.59953481
vn 0.15029485 0.98086003 -0.12379446
vn -0.13983998 0.98451984 -0.10566676
vn 0.54048879 0.56490660 -0.62350012
vn -0.54299143 0.56473498 -0.62147784
vn -0.49514729 -0.52463536 -0.69252213
vn 0.49652535 -0.52271966 -0.69298393
vn 0.23372246 0.95413431 -0.18708696
vn -0.23600043 0.95378665 -0.18599682
vn 0.87311626 0.25657036 -0.41453546
vn 0.86833901 -0.37256612 -0.32738638
vn -0.60697752 0.28573332 -0.74157586
vn -0.36655093 0.73111841 -0.57541836
vn -0.57733979 -0.57739047 -0.57732055
g cube1_sep10_cube1_auv
usemtl cube1_auv
f 1/55/1 26/53/26 2/49/2
f 2/71/2 9/59/9 1/50/1
f 2/28/2 25/27/25 8/26/8
f 2/47/2 29/58/29 24/48/24
f 3/56/3 1/97/1 14/51/14
f 3/90/3 27/70/27 1/55/1
f 4/64/4 9/59/9 5/86/5
f 4/103/4 14/51/14 1/97/1
f 4/103/4 55/51/55 7/52/7
f 5/86/5 9/59/9 8/81/8
f 5/83/5 45/94/45 44/95/44
f 5/86/5 50/59/50 4/64/4
f 5/83/5 81/94/81 49/82/49
f 6/63/6 12/68/12 7/100/7
f 6/6/6 38/4/38 39/5/39
f 6/6/6 77/4/77 18/3/18
f 7/100/7 12/68/12 14/99/14
f 7/100/7 53/68/53 6/63/6
f 8/81/8 9/59/9 2/71/2
f 8/82/8 45/94/45 5/83/5
f 9/104/9 4/103/4 1/97/1
f 10/74/10 3/90/3 23/91/23
f 10/65/10 23/87/23 13/66/13
f 11/7/11 22/8/22 16/1/16
f 11/69/11 23/87/23 22/96/22
f 12/68/12 6/63/6 39/62/39
f 12/105/12 22/102/22 14/101/14
f 12/9/12 38/4/38 17/2/17
f 13/73/13 16/85/16 21/75/21
f 13/73/13 20/61/20 10/60/10
f 13/66/13 23/87/23 11/69/11
f 14/51/14 4/103/4 7/52/7
f 14/101/14 22/102/22 3/90/3
f 15/22/15 17/30/17 18/34/18
f 15/22/15 30/16/30 16/21/16
f 15/22/15 57/30/57 56/21/56
f 15/22/15 58/12/58 43/11/43
f 16/85/16 13/73/13 11/84/11
f 16/21/16 17/30/17 15/22/15
f 16/1/16 22/8/22 17/2/17
f 16/21/16 30/16/30 21/20/21
f 17/2/17 22/8/22 12/9/12
f 18/34/18 17/30/17 38/35/38
f 18/3/18 38/4/38 6/6/6
f 18/34/18 57/30/57 15/22/15
f 19/12/19 15/22/15 43/11/43
f 19/80/19 29/98/29 31/93/31
f 19/80/19 42/72/42 25/67/25
f 19/12/19 43/11/43 42/10/42
f 20/89/20 27/79/27 10/92/10
f 20/89/20 30/76/30 28/77/28
f 21/75/21 20/61/20 13/73/13
f 21/88/21 30/76/30 20/89/20
f 23/91/23 3/90/3 22/102/22
f 24/29/24 25/27/25 2/28/2
f 24/78/24 29/98/29 25/67/25
f 25/67/25 29/98/29 19/80/19
f 25/67/25 42/72/42 40/54/40
f 25/27/25 45/23/45 8/26/8
f 26/53/26 1/55/1 27/70/27
f 26/57/26 29/58/29 2/47/2
f 26/33/26 34/38/34 29/31/29
f 27/70/27 3/90/3 10/74/10
f 27/44/27 32/42/32 35/40/35
f 27/41/27 34/38/34 26/37/26
f 28/77/28 27/79/27 20/89/20
f 28/46/28 30/45/30 32/42/32
f 29/31/29 34/38/34 33/39/33
f 29/31/29 37/36/37 31/32/31
f 30/16/30 15/22/15 31/13/31
f 30/16/30 37/14/37 36/15/36
f 31/13/31 15/22/15 19/12/19
f 31/13/31 37/14/37 30/16/30
f 32/42/32 27/44/27 28/46/28
f 32/42/32 37/36/37 33/39/33
f 33/39/33 34/38/34 32/42/32
f 33/39/33 37/36/37 29/31/29
f 35/40/35 32/42/32 34/38/34
f 35/40/35 34/38/34 27/41/27
f 36/43/36 32/42/32 30/45/30
f 36/43/36 37/36/37 32/42/32
f 39/5/39 38/4/38 12/9/12
f 40/24/40 42/25/42 41/18/41
f 40/24/40 45/23/45 25/27/25
f 41/18/41 45/23/45 40/24/40
f 41/18/41 80/25/80 79/24/79
f 41/18/41 81/23/81 44/17/44
f 43/19/43 41/18/41 42/25/42
f 43/19/43 80/25/80 41/18/41
f 44/17/44 45/23/45 41/18/41
f 44/95/44 81/94/81 5/83/5
f 46/97/46 4/103/4 50/104/50
f 46/50/46 50/59/50 47/71/47
f 46/97/46 55/51/55 4/103/4
f 46/55/46 66/70/66 48/90/48
f 47/71/47 50/59/50 49/81/49
f 47/28/47 64/27/64 63/29/63
f 47/49/47 65/53/65 46/55/46
f 47/47/47 68/58/68 65/57/65
f 48/90/48 62/91/62 55/101/55
f 49/81/49 50/59/50 5/86/5
f 49/26/49 64/27/64 47/28/47
f 49/26/49 81/23/81 64/27/64
f 51/74/51 48/90/48 66/70/66
f 51/60/51 59/61/59 54/73/54
f 51/92/51 66/79/66 59/89/59
f 52/84/52 54/73/54 56/85/56
f 52/69/52 62/87/62 54/66/54
f 53/9/53 61/8/61 57/2/57
f 53/9/53 77/4/77 78/5/78
f 54/73/54 59/61/59 60/75/60
f 54/66/54 62/87/62 51/65/51
f 55/51/55 46/97/46 48/56/48
f 55/99/55 53/68/53 7/100/7
f 55/101/55 61/102/61 53/105/53
f 55/101/55 62/91/62 61/102/61
f 56/1/56 61/8/61 52/7/52
f 56/21/56 69/16/69 15/22/15
f 57/2/57 61/8/61 56/1/56
f 57/2/57 77/4/77 53/9/53
f 58/12/58 15/22/15 70/13/70
f 58/80/58 68/98/68 64/67/64
f 59/89/59 66/79/66 67/77/67
f 59/89/59 69/76/69 60/88/60
f 60/75/60 56/85/56 54/73/54
f 60/20/60 69/16/69 56/21/56
f 61/96/61 62/87/62 52/69/52
f 62/91/62 48/90/48 51/74/51
f 63/48/63 68/58/68 47/47/47
f 64/67/64 68/98/68 63/78/63
f 64/67/64 80/72/80 58/80/58
f 64/27/64 81/23/81 79/24/79
f 65/37/65 73/38/73 66/41/66
f 66/70/66 46/55/46 65/53/65
f 66/41/66 73/38/73 74/40/74
f 67/46/67 66/44/66 71/42/71
f 67/77/67 69/76/69 59/89/59
f 68/31/68 73/38/73 65/33/65
f 68/31/68 76/36/76 72/39/72
f 69/45/69 71/42/71 75/43/75
f 69/16/69 76/14/76 70/13/70
f 70/13/70 15/22/15 69/16/69
f 70/93/70 68/98/68 58/80/58
f 70/32/70 76/36/76 68/31/68
f 71/42/71 69/45/69 67/46/67
f 71/42/71 73/38/73 72/39/72
f 71/42/71 76/36/76 75/43/75
f 72/39/72 73/38/73 68/31/68
f 72/39/72 76/36/76 71/42/71
f 73/38/73 71/42/71 74/40/74
f 74/40/74 71/42/71 66/44/66
f 75/15/75 76/14/76 69/16/69
f 77/35/77 57/30/57 18/34/18
f 78/62/78 6/63/6 53/68/53
f 78/5/78 77/4/77 6/6/6
f 79/54/79 80/72/80 64/67/64
f 79/24/79 81/23/81 41/18/41
f 80/10/80 43/11/43 58/12/58
